<?xml version="1.0" encoding="UTF-8" standalone="no"?>
<!-- Created with Inkscape (http://www.inkscape.org/) -->

<svg
   xmlns:dc="http://purl.org/dc/elements/1.1/"
   xmlns:cc="http://creativecommons.org/ns#"
   xmlns:rdf="http://www.w3.org/1999/02/22-rdf-syntax-ns#"
   xmlns:svg="http://www.w3.org/2000/svg"
   xmlns="http://www.w3.org/2000/svg"
   xmlns:sodipodi="http://sodipodi.sourceforge.net/DTD/sodipodi-0.dtd"
   xmlns:inkscape="http://www.inkscape.org/namespaces/inkscape"
   width="210mm"
   height="297mm"
   viewBox="0 0 744.09448819 1052.3622047"
   id="svg3508"
   version="1.1"
   inkscape:version="0.91 r13725"
   sodipodi:docname="Blangonga.svg"
   inkscape:export-filename="D:\Git\MonsterHunterGenDatabase\image-src\Blangonga.png"
   inkscape:export-xdpi="140.79239"
   inkscape:export-ydpi="140.79239">
  <defs
     id="defs3510" />
  <sodipodi:namedview
     id="base"
     pagecolor="#ffffff"
     bordercolor="#666666"
     borderopacity="1.0"
     inkscape:pageopacity="0"
     inkscape:pageshadow="2"
     inkscape:zoom="2.8"
     inkscape:cx="267.53952"
     inkscape:cy="819.3571"
     inkscape:document-units="px"
     inkscape:current-layer="layer1"
     showgrid="false"
     inkscape:window-width="1122"
     inkscape:window-height="616"
     inkscape:window-x="584"
     inkscape:window-y="71"
     inkscape:window-maximized="0" />
  <metadata
     id="metadata3513">
    <rdf:RDF>
      <cc:Work
         rdf:about="">
        <dc:format>image/svg+xml</dc:format>
        <dc:type
           rdf:resource="http://purl.org/dc/dcmitype/StillImage" />
        <dc:title></dc:title>
      </cc:Work>
    </rdf:RDF>
  </metadata>
  <g
     inkscape:label="Layer 1"
     inkscape:groupmode="layer"
     id="layer1">
    <g
       id="g3386">
      <path
         sodipodi:nodetypes="cccc"
         inkscape:connector-curvature="0"
         id="path4827"
         d="m 262.78637,206.35619 c 2.38833,-0.77337 18.19848,-6.35262 19.39492,9.23568 0,0 3.2478,12.44991 -6.34952,7.2731 9.16373,-26.80974 -26.19174,-4.9564 -13.0454,-16.50878 z"
         style="fill:#8877dd;fill-opacity:1;stroke:none" />
      <path
         sodipodi:nodetypes="ccccc"
         inkscape:connector-curvature="0"
         id="path4829"
         d="m 275.87883,234.01441 c 0.10134,-2.54642 -2.08212,-11.59457 5.74669,-5.67466 l 0.042,18.50177 c 1.0273,3.45793 -7.51394,6.755 -5.74669,-2.75429 z"
         style="fill:#8877dd;fill-opacity:1;stroke:none" />
      <path
         sodipodi:nodetypes="ccccc"
         inkscape:connector-curvature="0"
         id="path4831"
         d="m 255.13507,193.87584 c -4.04511,1.7979 -3.454,6.42834 -4.31932,9.02119 -1.2828,4.85409 3.62454,6.56132 6.00319,3.69428 1.33969,-2.20066 4.06866,-3.90999 4.21208,-6.49059 -0.83087,-4.00779 -2.82931,-8.13641 -5.89595,-6.22488 z"
         style="fill:#b3b3b3;fill-opacity:1;stroke:none" />
      <path
         sodipodi:nodetypes="ccccccccccccccccccccccccccccccccccccccsccssc"
         inkscape:connector-curvature="0"
         id="path4833"
         d="m 202.87988,211.97188 c 5.98639,-2.10117 10.66667,5.03747 16.65306,-8.55742 2.07606,-3.31246 29.89742,-8.72978 24.81633,9.30613 7.72817,22.26188 19.2653,13.38775 19.2653,13.38775 8.81413,-3.39977 12.30058,-0.082 11.10204,9.14286 -1.01461,19.04382 4.85566,17.43302 8.16327,23.51022 l 0,4.5714 c -6.492,3.6317 -10.99828,-0.018 -16.32653,-0.653 -5.04168,2.2939 -5.462,-7.0103 -5.87755,-16.32658 0.25692,-4.36412 -0.31389,-9.88705 1.95918,-11.42857 4.42748,0.25981 4.52581,3.27455 4.2449,6.53061 -6.24117,0.2288 -2.2139,3.90866 -0.73469,2.93878 2.91723,0.50991 3.77398,-2.4216 3.71428,-5.38776 -0.66644,-5.89105 -2.49555,-6.81043 -5.26531,-6.69388 -3.81835,0.32348 -6.79943,2.20252 -6.53061,5.83674 0.59914,3.73786 -0.058,5.06742 -5.55102,5.91836 -3.55707,0.0822 -4.46025,-1.2999 -4.89796,-2.93877 -3.60603,-7.89352 -2.55782,6.62585 -2.77551,10.12245 0.28789,12.45002 0.75057,12.19042 -5.22449,12.40822 -13.12029,0.763 -11.93645,-4.9431 -11.59183,-12.08169 -0.0872,-0.0988 1.49979,-10.66133 14.04081,-20.9796 2.19601,-7.41325 0.60055,-10.81898 -6.20408,-11.99999 -7.60622,0.43965 -7.73907,3.37042 -8.16326,6.20408 1.03449,2.28944 -0.46318,4.00696 4.57142,5.37615 1.11691,0.0142 4.42306,-1.17281 0.9796,-3.09044 -1.58594,-0.31325 -2.52041,-1.09183 -1.95919,-2.93877 0.29685,-1.71736 2.13909,-1.99471 4.12945,-2.13405 2.43502,-0.4979 4.61002,0.73891 3.70729,5.39935 -1.26298,4.27282 -10.12516,7.71421 -13.38776,14.36735 -1.93605,10.44991 -0.30529,23.44771 -0.32653,35.26531 1.49658,-2.6739 4.19157,-1.6769 4.84427,-0.2224 0.73431,1.013 1.94767,2.1565 -1.38535,6.465 l 6.92676,1.1544 c 1.69903,0.6912 1.33683,1.8978 1.38535,3.0016 0.0101,0.7697 -0.0924,1.5393 -1.15446,2.3089 l -16.16244,0.4618 c -1.67236,-1.6918 -4.09882,-1.4446 -4.38695,-6.6958 l -0.61105,-57.96799 c -6.34071,-3.16024 -1.66817,49.27079 -3.09041,48.20299 -0.90587,-0.6801 -16.14656,-20.2018 -15.92346,-11.4528 -6.58734,-4.8959 24.43798,10.8249 9.88382,-31.69895 -0.86103,-4.30747 -16.33166,2.29676 -14.37602,-0.74712 1.40456,-2.18615 21.30425,-2.59852 18.53308,-5.34422 -1.90708,-1.88954 -14.92677,-8.33211 -7.01375,-12.54065 z"
         style="fill:#b3b3b3;stroke:none" />
      <path
         sodipodi:nodetypes="cccccc"
         inkscape:connector-curvature="0"
         id="path2996"
         d="m 276.5724,271.14632 c -1.56849,-8.421 2.38728,-5.0731 4.73469,0.9796 0.26511,7.6171 4.2931,18.4973 -4.73469,17.6327 -4.52727,-0.5232 -0.10057,0.6473 -16.32654,-3.5919 -1.78183,-3.3066 0.47852,-5.0733 7.83674,-4.8979 4.06947,0.6825 8.99627,4.1708 8.4898,-10.1225 z"
         style="fill:#8877bb;fill-opacity:1;stroke:none" />
      <path
         sodipodi:nodetypes="ccccc"
         inkscape:connector-curvature="0"
         id="path2998"
         d="m 257.78453,283.63252 0,2.7707 c -3.7739,0.1186 -3.57757,2.0016 -4.84874,3.2325 -0.15733,-2.1521 -1.00642,-4.6933 1.15446,-5.5414 z"
         style="fill:#eebb33;fill-opacity:1;stroke:none" />
      <path
         sodipodi:nodetypes="ccccc"
         inkscape:connector-curvature="0"
         id="path2998-1"
         d="m 261.45226,287.43332 0,2.7707 c -3.7739,0.1186 -3.57757,2.0016 -4.84874,3.2325 -0.15733,-2.1521 -1.00642,-4.6933 1.15446,-5.5414 z"
         style="fill:#eebb33;fill-opacity:1;stroke:none" />
      <path
         sodipodi:nodetypes="ccccc"
         inkscape:connector-curvature="0"
         id="path2998-7"
         d="m 266.78143,288.35972 0.96147,2.5985 c -3.49824,1.4208 -2.66068,3.1187 -3.42572,4.7142 -0.89436,-1.9638 -2.57252,-4.0524 -0.84022,-5.5977 z"
         style="fill:#eebb33;fill-opacity:1;stroke:none" />
      <path
         sodipodi:nodetypes="cccc"
         inkscape:connector-curvature="0"
         id="path3025"
         d="m 237.98192,286.84302 c 7.89722,0.2675 5.84867,-4.8066 6.69388,-8.3265 0.77902,6.0035 2.07612,14.1577 -5.87756,11.4285 z"
         style="fill:#8877dd;fill-opacity:1;stroke:none" />
      <path
         sodipodi:nodetypes="ccccc"
         inkscape:connector-curvature="0"
         id="path3027"
         d="m 236.83906,285.53692 c 1.53611,-3.3829 2.65235,-7.3956 4.7347,-9.9592 2.18542,-1.1578 2.79157,0.4481 3.2653,2.2857 -1.26142,-0.6521 -2.78876,-0.054 -3.91016,2.0845 -0.98904,2.256 -0.32341,6.2493 -4.08984,5.589 z"
         style="fill:#8877dd;fill-opacity:1;stroke:none" />
      <path
         sodipodi:nodetypes="ccccc"
         inkscape:connector-curvature="0"
         id="path3029"
         d="m 230.2584,273.58412 c 1.53353,-2.0257 6.24371,-3.9904 5.87755,-3.5918 -0.67397,4.674 -3.2954,4.9663 -5.06123,7.1837 0.65171,-1.3588 0.24063,-1.3512 1.95919,-4.0817 -1.53862,0.6947 -2.12771,0.5668 -2.77551,0.4898 z"
         style="fill:#8877dd;fill-opacity:1;stroke:none" />
      <path
         sodipodi:nodetypes="cccccccccc"
         inkscape:connector-curvature="0"
         id="path3031"
         d="m 251.1703,245.80866 c -5.82224,-2.79002 -4.79511,3.27623 -4.79511,3.27623 0,0 -1.38419,3.21183 1.10083,8.44553 1.50844,1.5564 0.77495,3.5435 2.5002,4.2955 2.87535,3.7635 7.34724,5.3122 11.68226,5.0711 6.40513,0.2985 -6.00831,-3.4447 -5.67907,-5.5648 4.32578,1.6606 7.2963,2.7606 3.92517,-5.2176 0.17149,-3.631 -1.17143,-5.94484 -1.38536,-7.13592 -0.24982,-1.57973 -0.38912,-3.25736 -2.53981,-3.15411 z"
         style="fill:#8877dd;fill-opacity:1;stroke:none" />
      <path
         sodipodi:nodetypes="ccccc"
         inkscape:connector-curvature="0"
         id="path3033"
         d="m 240.84924,247.32651 c -5.02523,-0.85289 -2.73971,5.28701 -2.77071,6.46501 -1.13573,10.109 2.53981,7.3885 2.53981,7.3885 1.96999,-0.3377 1.63396,-5.0482 2.07803,-7.908 1.04745,-3.23588 0.57272,-7.04578 -1.84713,-5.94551 z"
         style="fill:#eebb33;fill-opacity:1;stroke:none" />
      <path
         sodipodi:nodetypes="ccccc"
         inkscape:connector-curvature="0"
         id="path3033-4"
         d="m 234.28503,247.61605 c -2.76001,-0.85289 -1.50473,5.28707 -1.52176,6.46497 -0.62378,10.1091 1.39494,7.3886 1.39494,7.3886 1.08197,-0.3377 0.89742,-5.0483 1.14131,-7.9081 0.57529,-3.23584 0.31456,-7.04574 -1.01449,-5.94547 z"
         style="fill:#eebb33;fill-opacity:1;stroke:none" />
      <path
         sodipodi:nodetypes="ccccccccccc"
         inkscape:connector-curvature="0"
         id="path3053"
         d="m 196.11918,260.26842 c 3.54502,-0.8202 9.26414,1.5489 10.60492,-4.7911 0.0848,-6.44243 -0.0902,-5.05656 -0.005,-19.32728 -1.0563,-0.27321 0.89979,-6.82211 -4.72764,-5.83993 l -8.60564,0.46179 c -2.55094,1.09582 -4.88493,-1.57601 1.50598,-3.23249 4.66162,0.84619 11.70533,-2.46187 13.98417,2.53981 1.58779,3.55338 1.19076,20.0744 0.46943,27.6254 -0.12419,2.8554 -0.75772,5.9232 -5.41767,5.3922 l -5.37852,-0.2309 c -0.85862,-0.3874 -4.31101,1.3186 -2.42957,-2.5975 z"
         style="fill:#ee9999;fill-opacity:1;stroke:none" />
      <path
         inkscape:connector-curvature="0"
         id="path3055"
         d="m 193.39648,233.92286 3.53582,0 -1.10495,9.36074 z"
         style="fill:#eebb33;fill-opacity:1;stroke:none" />
      <path
         inkscape:connector-curvature="0"
         id="path3055-0"
         d="m 200.52474,233.42347 3.53582,0 -1.10495,9.36074 z"
         style="fill:#eebb33;fill-opacity:1;stroke:none" />
      <path
         inkscape:connector-curvature="0"
         id="path3055-0-9"
         d="m 201.79465,256.75322 3.53582,0 -1.10495,-4.9738 z"
         style="fill:#eebb33;fill-opacity:1;stroke:none" />
      <path
         inkscape:connector-curvature="0"
         id="path3055-0-9-4"
         d="m 199.78906,257.21492 -3.53582,0 1.10495,-4.9738 z"
         style="fill:#eebb33;fill-opacity:1;stroke:none" />
      <path
         sodipodi:nodetypes="cccccc"
         inkscape:connector-curvature="0"
         id="path3111"
         d="m 206.65687,243.21027 c -3.851,0.21955 -6.64897,1.5296 -7.18157,2.97479 l -5.97355,0.23089 c -3.01517,3.64102 -0.0976,3.51183 3.05623,3.23249 l 10.07527,-0.45478 c 0.5628,-0.72532 0.0236,-5.98339 0.0236,-5.98339 z"
         style="fill:#8877dd;fill-opacity:1;stroke:none" />
      <path
         sodipodi:nodetypes="cccccccccccc"
         inkscape:connector-curvature="0"
         id="path3113"
         d="m 228.6758,205.86344 c -7.75982,8.57844 -13.86655,10.50363 -21.87755,16.65306 l -1.87756,0.97959 c -0.18923,1.11766 -0.19256,3.45575 -2.04081,1.87755 -0.54201,-0.76365 0.0765,-1.79404 -1.63265,-1.63265 -0.79625,0.0745 -1.87217,0.27749 -1.22449,1.79591 -1.70581,2.57051 -2.86806,1.26013 -2.61225,-0.24489 -1.90458,-2.12009 -2.94936,-0.16527 -4.65306,0.32653 -0.29272,0.91266 -1.62866,1.48819 -0.65306,2.61224 6.53046,1.25151 14.8572,-0.16999 18.20408,-2.04082 l 27.42857,-23.18367 c -3.46627,-2.13169 -7.71637,2.01886 -9.06122,2.85715 z"
         style="fill:#bb4411;fill-opacity:1;stroke:none" />
      <path
         sodipodi:nodetypes="cccccc"
         inkscape:connector-curvature="0"
         id="path3129"
         d="m 202.35038,218.38068 c -0.77373,-1.94818 -0.74886,-2.4314 -2.13576,-2.82842 -2.33037,0.60939 -7.7567,-0.55003 -8.77389,2.53981 -0.44358,2.30803 2.56762,2.82469 6.23408,3.00159 1.92197,-0.45832 5.74385,3.15928 8.87434,0.7371 0.08,-0.39304 -1.66738,-2.76689 -4.19877,-3.45008 z"
         style="fill:#8877dd;fill-opacity:1;stroke:none" />
      <path
         sodipodi:nodetypes="cccccc"
         inkscape:connector-curvature="0"
         id="path3131"
         d="m 203.36967,206.5165 c 4.16849,-0.15791 4.63371,-1.70454 5.06123,-3.26531 2.1981,-0.0332 2.03965,-2.42293 8.16326,1.46939 1.29475,2.70395 1.03183,4.41667 -2.44898,4.08163 l -9.30357,-0.27872 c -1.58031,0.0575 -1.72468,-0.8424 -1.47194,-2.00699 z"
         style="fill:#8877dd;fill-opacity:1;stroke:none" />
      <path
         sodipodi:nodetypes="ccccc"
         inkscape:connector-curvature="0"
         id="path3133"
         d="m 209.99593,225.71069 c 2.83146,-1.55495 4.95084,-3.35077 6.36734,-5.38433 3.39701,-1.49054 3.89988,0.41254 4.08164,2.69216 -4.33744,-0.18721 -4.07363,2.3654 -6.04082,3.58956 -2.73085,0.79565 -5.69071,1.79005 -4.40816,-0.89739 z"
         style="fill:#8877dd;fill-opacity:1;stroke:none" />
      <path
         inkscape:transform-center-y="17.632653"
         inkscape:transform-center-x="77.04169"
         sodipodi:nodetypes="cccccccc"
         inkscape:connector-curvature="0"
         id="path3135"
         d="m 209.44289,226.51649 c 4.30798,-2.21282 4.03733,3.86065 4.29413,8.97959 l -0.2526,41.14294 c -2.29376,4.453 -2.2883,-0.7536 -2.65225,-4.4082 l 0.50519,-39.34698 c -0.16589,-3.7429 -0.48773,-4.66049 -1.83132,-3.18368 -0.78755,-1.02463 -3.32694,-1.98833 -0.0631,-3.18367 z"
         style="fill:#eebb33;fill-opacity:1;stroke:none" />
      <path
         sodipodi:nodetypes="cccc"
         inkscape:connector-curvature="0"
         id="path3267"
         d="m 188.06041,233.80896 4.57961,0.32712 0,34.34704 c -4.25782,-12.772 -8.02896,-25.32761 -4.57961,-34.67416 z"
         style="fill:#b3b3b3;stroke:none" />
    </g>
  </g>
</svg>
