<?xml version="1.0" encoding="UTF-8" standalone="no"?>
<!-- Created with Inkscape (http://www.inkscape.org/) -->

<svg
   xmlns:dc="http://purl.org/dc/elements/1.1/"
   xmlns:cc="http://creativecommons.org/ns#"
   xmlns:rdf="http://www.w3.org/1999/02/22-rdf-syntax-ns#"
   xmlns:svg="http://www.w3.org/2000/svg"
   xmlns="http://www.w3.org/2000/svg"
   xmlns:sodipodi="http://sodipodi.sourceforge.net/DTD/sodipodi-0.dtd"
   xmlns:inkscape="http://www.inkscape.org/namespaces/inkscape"
   width="210mm"
   height="297mm"
   viewBox="0 0 744.09448819 1052.3622047"
   id="svg3407"
   version="1.1"
   inkscape:version="0.91 r13725"
   sodipodi:docname="Bullfango.svg">
  <defs
     id="defs3409">
    <clipPath
       clipPathUnits="userSpaceOnUse"
       id="clipPath4044">
      <ellipse
         ry="1.9149477"
         rx="2.0779221"
         cy="265.23715"
         cx="103.85536"
         style="fill:#554433;fill-opacity:1;fill-rule:evenodd;stroke:none"
         id="path4046"
         transform="matrix(0.74509804,0,0,0.80851063,43.625977,32.536971)" />
    </clipPath>
  </defs>
  <sodipodi:namedview
     id="base"
     pagecolor="#ffffff"
     bordercolor="#666666"
     borderopacity="1.0"
     inkscape:pageopacity="0.0"
     inkscape:pageshadow="2"
     inkscape:zoom="1.4"
     inkscape:cx="308.27566"
     inkscape:cy="352.78772"
     inkscape:document-units="px"
     inkscape:current-layer="layer1"
     showgrid="false"
     inkscape:window-width="1680"
     inkscape:window-height="987"
     inkscape:window-x="-8"
     inkscape:window-y="-8"
     inkscape:window-maximized="1" />
  <metadata
     id="metadata3412">
    <rdf:RDF>
      <cc:Work
         rdf:about="">
        <dc:format>image/svg+xml</dc:format>
        <dc:type
           rdf:resource="http://purl.org/dc/dcmitype/StillImage" />
        <dc:title></dc:title>
      </cc:Work>
    </rdf:RDF>
  </metadata>
  <g
     inkscape:label="Layer 1"
     inkscape:groupmode="layer"
     id="layer1">
    <g
       transform="translate(85.813943,294.74121)"
       id="g3373">
      <path
         sodipodi:nodetypes="ccccccccccccccccccccc"
         inkscape:connector-curvature="0"
         id="path3865"
         d="m 117.99375,245.62047 c 0.68576,0.01 2.05925,-0.0577 1.30381,-1.28342 l 3.54469,-0.14256 0,5.74484 c -1.64605,0.26664 -1.45129,0.84008 -1.91495,1.30379 l -0.0407,1.87421 0.97784,0.0407 2.56685,-2.68908 0.20372,-0.36669 0.0815,3.91139 c 0.0691,-0.0691 6.13744,-6.11861 8.18945,-8.27094 l -7.00794,-7.53756 3.91139,-4.1151 c -0.3061,-1.43321 0.18475,-0.82112 0.12218,-5.58187 -1.19685,0.73817 -3.11077,4.04977 -5.01146,5.62261 -0.27432,0.56067 -0.70632,0.92161 -2.11866,0.0408 -1.69121,-1.29155 -2.43747,-2.73168 -4.80774,-5.05216 l -0.12223,7.00789 c -1.37745,-1.02456 -2.06315,-1.54825 -4.03362,-3.01502 l -0.0407,6.9264 c 2.99031,1.61913 1.84968,5.04796 4.19657,5.58177 z"
         style="fill:#bbddbb;fill-opacity:1;stroke:none" />
      <path
         sodipodi:nodetypes="ccccccccccccccccc"
         inkscape:connector-curvature="0"
         id="path3871"
         d="m 105.85723,254.43853 c -1.07796,-0.39316 -1.57323,-0.27645 -1.78441,0.0888 -0.89007,1.71161 -0.12241,1.70937 -0.16298,2.41416 2.10963,2.48229 4.38544,3.3028 6.59177,4.81804 l 7.125,0 -3.25,-0.0625 -2.67009,-2.31052 c -1.81943,-1.55896 -1.87588,-0.53532 -4.42531,-2.60385 -0.55624,-0.60316 -0.87513,-1.08629 -1.42398,-2.34415 z m 17.11313,1.28982 c -0.50616,0.17109 -0.70647,1.32007 -1.21875,1.71875 -1.62466,1.90956 -2.84002,2.85177 -4.09375,4.3125 l 2.90625,-0.0312 c 1.15864,-0.52456 1.0829,-2.56518 2.65625,-2.8125 -0.0917,-0.91493 0.0523,-1.70648 0,-3.1875 -0.0862,-0.0205 -0.17769,-0.0244 -0.25,0 z"
         style="fill:#ee8888;fill-opacity:1;stroke:none" />
      <path
         sodipodi:nodetypes="cccccccc"
         inkscape:connector-curvature="0"
         id="path3867"
         d="m 108.66348,230.0762 c -1.78198,6.86935 1.2281,18.66635 1.2281,18.66635 1.91094,4.10603 5.55498,4.07142 5.57607,4.1093 2.48183,1.43202 3.08198,2.89019 7.72031,2.86893 0.0724,0.95071 0.3241,1.68791 -3.11628,3.36484 -2.70309,0.77416 -8.03093,1.11801 -12.21728,-2.26186 0,0 -3.81188,-1.69788 -3.26528,-18.59884 1.03894,-5.11758 2.8817,-7.13908 4.07436,-8.14872 z"
         style="fill:#aa9944;fill-opacity:1;stroke:none" />
      <path
         sodipodi:nodetypes="cccccc"
         inkscape:connector-curvature="0"
         id="path3966"
         d="m 109.34779,257.88188 c -0.92138,-4.80036 5.33826,-4.23501 6.09375,-4.99703 l -3.57244,-1.49812 c -1.64211,-0.51302 -2.76039,-2.65571 -5.01634,-1.25896 -1.15384,1.36201 -0.46239,3.15821 -0.43202,4.79885 0.87513,1.67327 1.20164,1.90666 2.92705,2.95526 z"
         style="fill:#cccc77;fill-opacity:1;stroke:none" />
      <path
         sodipodi:nodetypes="ccccccccccccccccccccccccccccccc"
         inkscape:connector-curvature="0"
         id="path3859"
         d="m 130.70537,234.31497 8.14871,-0.4911 0.16298,24.8826 -2.93354,0.0819 -0.0815,-2.86478 -1.79272,-1.14591 c -0.49606,-0.66974 -0.34456,-1.46957 -0.0815,-2.29181 l -2.85205,0.49111 -4.07435,1.96441 c -0.21275,1.02765 -0.24765,1.98738 0,2.09009 1.20486,0.23972 1.39131,-0.15094 1.71123,-0.20752 l 0.13416,2.48567 c -1.97361,-0.0452 -3.96616,-0.10938 -5.86707,-0.0819 l 0.0288,-3.38602 -5.05221,-0.0819 c -0.0322,-0.62769 0.15087,-1.10771 -0.81488,-1.63811 l -2.04622,-1.04661 c -0.0176,-1.72193 1.72717,-2.2041 2.86109,-3.37228 l -0.0815,-4.6655 c 0.84011,-0.0964 1.64323,-0.2831 1.20194,-1.02312 0.81906,-0.49503 1.52375,-1.33631 3.68729,0.0409 1.34122,1.88256 1.03425,3.9243 0.22555,5.80686 l -2.01826,1.2323 0,1.96441 0.97785,-0.1637 2.68908,-2.86477 0.24446,4.01068 0.81487,0 8.2302,-8.26691 -7.00789,-7.61212 z"
         style="fill:#886644;fill-opacity:1;stroke:none" />
      <path
         sodipodi:nodetypes="ccccccccc"
         inkscape:connector-curvature="0"
         id="path3869"
         d="m 129.37348,250.50063 c 0.16972,-0.32502 0.70529,-2.38978 1.74188,-2.56375 0,0 2.26667,0.0766 3.11148,0.31691 0.41182,1.6844 0.1501,2.77946 -0.0288,3.94698 -0.66263,0.49001 -1.38288,0.49372 -1.46931,0.40334 0.27337,1.00558 -0.25642,1.21815 -0.60498,1.55574 -0.22034,0.0886 -2.94674,1.75242 -5.04176,0.0288 -0.0106,-0.668 0.40265,-1.45352 0.74327,-2.262 z"
         style="fill:#554433;fill-opacity:1;stroke:none" />
      <path
         inkscape:connector-curvature="0"
         id="path3876"
         d="m 112.49265,244.55161 -2.41654,3.07852 4.97071,-0.0407 z"
         style="fill:#aa3311;fill-opacity:1;stroke:none" />
      <path
         inkscape:connector-curvature="0"
         id="path3876-4"
         d="m 112.49265,240.22322 -2.41654,3.07852 4.97071,-0.0407 z"
         style="fill:#aa3311;fill-opacity:1;stroke:none" />
      <path
         inkscape:connector-curvature="0"
         id="path3876-0"
         d="m 112.49265,229.62112 -2.41654,3.07852 4.97071,-0.0407 z"
         style="fill:#aa3311;fill-opacity:1;stroke:none" />
      <path
         inkscape:connector-curvature="0"
         id="path3903"
         d="m 136.04108,259.27899 2.93862,0.0576 0,3.11149 -1.03716,-0.0576 0.11524,-0.97954 -1.1524,-0.11524 0,1.03716 -0.92192,0 z"
         style="fill:#332211;fill-opacity:1;stroke:none" />
      <path
         sodipodi:nodetypes="ccccccccc"
         inkscape:connector-curvature="0"
         id="path3903-9"
         d="m 128.80977,259.28833 0.0754,-2.487 4.07323,0 -0.0754,0.87776 -1.28231,-0.0975 -0.15086,0.97529 1.35774,0 0,0.78024 c -1.35692,0.005 -2.71568,0.0102 -3.9978,-0.0488 z"
         style="fill:#332211;fill-opacity:1;stroke:none" />
      <path
         inkscape:connector-curvature="0"
         id="path3923"
         d="m 124.27795,261.98494 -0.99395,0 0,-1.98789 2.98184,0 0,1.97349 -0.95073,0 0,-1.00835 -1.138,0 z"
         style="fill:#332211;fill-opacity:1;stroke:none" />
      <path
         inkscape:connector-curvature="0"
         id="path3925"
         d="m 114.47545,237.36734 3.42825,3.09652 -3.42825,0 z"
         style="fill:#99aaaa;fill-opacity:1;stroke:none" />
      <path
         sodipodi:nodetypes="cccc"
         inkscape:connector-curvature="0"
         id="path3925-4"
         d="m 117.95264,230.56436 c 0.87644,0.99505 1.6266,2.37514 2.60759,3.42247 l -2.60759,-0.32595 z"
         style="fill:#99aaaa;fill-opacity:1;stroke:none" />
      <path
         sodipodi:nodetypes="cccc"
         inkscape:connector-curvature="0"
         id="path3925-8"
         d="m 126.72267,234.07851 3.15764,-2.89279 -0.0611,2.89279 z"
         style="fill:#99aaaa;fill-opacity:1;stroke:none" />
      <path
         sodipodi:nodetypes="cccc"
         inkscape:connector-curvature="0"
         id="path3925-82"
         d="m 123.69604,240.04136 3.11134,3.26938 -2.85205,0 z"
         style="fill:#99aaaa;fill-opacity:1;stroke:none" />
      <path
         sodipodi:nodetypes="cccc"
         inkscape:connector-curvature="0"
         id="path3925-45"
         d="m 129.01087,247.96562 -0.31676,-5.43013 3.62991,3.1691 z"
         style="fill:#99aaaa;fill-opacity:1;stroke:none" />
      <path
         sodipodi:nodetypes="ccccc"
         inkscape:connector-curvature="0"
         id="path3968"
         d="m 109.91036,248.79213 -0.89311,-4.20627 c -3.16747,-5.50741 -4.40478,-1.19095 -4.49437,-1.09478 -0.11091,2.56937 0.30486,4.61206 0.63382,6.74155 -0.46424,-3.32101 0.4684,-4.5543 4.75366,-1.4405 z"
         style="fill:#cccc77;fill-opacity:1;stroke:none" />
      <path
         sodipodi:nodetypes="cccc"
         inkscape:connector-curvature="0"
         id="path3970"
         d="m 104.5095,241.01342 c 1.57191,-2.05172 2.93284,-2.83028 4.04679,0.46096 -0.40238,-3.87343 -0.51787,-7.61176 0.073,-11.40878 -3.19311,3.01368 -4.32862,6.81483 -4.11984,10.94782 z"
         style="fill:#cccc77;fill-opacity:1;stroke:none" />
      <ellipse
         ry="1.9149477"
         rx="2.0779221"
         cy="265.23715"
         cx="103.85536"
         transform="matrix(0.74509804,0,0,0.80851063,43.613246,32.486042)"
         id="path3974"
         style="fill:#554433;fill-opacity:1;fill-rule:evenodd;stroke:none" />
      <g
         clip-path="url(#clipPath4044)"
         transform="translate(-0.01018589,-0.05092943)"
         id="g4014">
        <path
           style="fill:#332222;fill-opacity:1;stroke:none"
           d="m 120.5806,245.40522 0.91673,0 -0.28521,1.53163 0.30558,1.59545 -0.97784,0 0.2852,-1.55291 z"
           id="path3978"
           inkscape:connector-curvature="0" />
        <path
           style="fill:#332222;fill-opacity:1;stroke:none"
           d="m 122.55157,246.4951 0,0.91673 -1.53163,-0.28521 -1.59545,0.30558 0,-0.97784 1.55291,0.2852 z"
           id="path3978-5"
           inkscape:connector-curvature="0" />
      </g>
      <circle
         r="0.52966642"
         cy="246.08768"
         cx="78.105423"
         transform="translate(42.89025,0.84542194)"
         id="path3972"
         style="fill:#eebb55;fill-opacity:1;fill-rule:evenodd;stroke:none" />
      <path
         sodipodi:nodetypes="ccccc"
         inkscape:connector-curvature="0"
         id="path4048"
         d="m 116.63866,253.76784 c 2.71132,-0.23114 2.60628,-1.81945 2.77989,-6.49422 l 0.45024,0.31927 c -0.38743,1.99326 0.36643,6.487 -2.61292,6.48257 z"
         style="fill:#554433;fill-opacity:1;stroke:none" />
      <path
         sodipodi:nodetypes="ccccc"
         inkscape:connector-curvature="0"
         id="path4050"
         d="m 118.33773,236.23674 c 1.3771,1.91983 2.79762,2.41633 4.16772,2.83551 1.08868,1.14716 0.63626,2.55118 0.48892,3.90435 -2.20402,-1.34011 -3.42527,-0.71466 -4.56117,0.0815 -0.45116,-2.64531 -0.91436,-5.04345 -0.0955,-6.82134 z"
         style="fill:#886644;fill-opacity:1;stroke:none" />
      <path
         sodipodi:nodetypes="cccccc"
         inkscape:connector-curvature="0"
         id="path4050-7"
         d="m 119.13987,238.07296 c 1.20687,0.50458 2.05407,1.05652 2.8286,1.64997 0.61196,0.69291 0.0446,1.56196 0.33184,2.27191 -1.49586,-0.7798 -2.32474,-0.41585 -3.09566,0.0474 -0.3062,-1.53929 -0.49833,-3.30144 0.0573,-4.33598 z"
         style="fill:#ee8888;fill-opacity:1;stroke:none" />
      <path
         inkscape:connector-curvature="0"
         id="path4072"
         d="m 131.64248,236.22773 -2.36313,1.95569 2.36313,1.95569 z"
         style="fill:#554433;fill-opacity:1;stroke:none" />
      <path
         inkscape:connector-curvature="0"
         id="path4072-1"
         d="m 134.75937,236.22773 -2.36313,1.95569 2.36313,1.95569 z"
         style="fill:#554433;fill-opacity:1;stroke:none" />
      <path
         inkscape:connector-curvature="0"
         id="path4072-15"
         d="m 137.87624,236.22773 -2.36313,1.95569 2.36313,1.95569 z"
         style="fill:#554433;fill-opacity:1;stroke:none" />
      <path
         inkscape:connector-curvature="0"
         id="path4099"
         d="m 138.87446,231.23664 -2.72981,2.72982 2.72981,2.72982 z"
         style="fill:#332222;fill-opacity:1;stroke:none" />
      <path
         sodipodi:nodetypes="ccccc"
         inkscape:connector-curvature="0"
         id="path4101"
         d="m 112.69672,261.80628 c -1.24957,-1.53989 -4.06822,-3.00093 -4.69209,-3.04736 -1.18478,-0.22206 -0.4665,0.47843 -0.23789,0.60178 1.49094,0.75944 3.06203,1.17388 3.99156,2.49473 z"
         style="fill:#332211;fill-opacity:1;stroke:none" />
    </g>
  </g>
</svg>
