<?xml version="1.0" encoding="UTF-8" standalone="no"?>
<!-- Generator: Adobe Illustrator 16.0.3, SVG Export Plug-In . SVG Version: 6.00 Build 0)  -->

<svg
   xmlns:dc="http://purl.org/dc/elements/1.1/"
   xmlns:cc="http://creativecommons.org/ns#"
   xmlns:rdf="http://www.w3.org/1999/02/22-rdf-syntax-ns#"
   xmlns:svg="http://www.w3.org/2000/svg"
   xmlns="http://www.w3.org/2000/svg"
   xmlns:sodipodi="http://sodipodi.sourceforge.net/DTD/sodipodi-0.dtd"
   xmlns:inkscape="http://www.inkscape.org/namespaces/inkscape"
   version="1.1"
   x="0px"
   y="0px"
   width="145.518px"
   height="134.703px"
   viewBox="0 0 145.518 134.703"
   style="enable-background:new 0 0 145.518 134.703;"
   xml:space="preserve"
   id="svg2"
   inkscape:version="0.91 r13725"
   sodipodi:docname="Ceanataur.svg"
   inkscape:export-filename="D:\Git\MonsterHunterGenDatabase\image-src\Ceanataur.png"
   inkscape:export-xdpi="95.720001"
   inkscape:export-ydpi="95.720001"><metadata
     id="metadata64"><rdf:RDF><cc:Work
         rdf:about=""><dc:format>image/svg+xml</dc:format><dc:type
           rdf:resource="http://purl.org/dc/dcmitype/StillImage" /><dc:title></dc:title></cc:Work></rdf:RDF></metadata><defs
     id="defs62" /><sodipodi:namedview
     pagecolor="#ffffff"
     bordercolor="#666666"
     borderopacity="1"
     objecttolerance="10"
     gridtolerance="10"
     guidetolerance="10"
     inkscape:pageopacity="0"
     inkscape:pageshadow="2"
     inkscape:window-width="835"
     inkscape:window-height="774"
     id="namedview60"
     showgrid="false"
     inkscape:zoom="1.7520025"
     inkscape:cx="38.877516"
     inkscape:cy="73.272507"
     inkscape:window-x="0"
     inkscape:window-y="0"
     inkscape:window-maximized="0"
     inkscape:current-layer="svg2" /><g
     id="g3445"><polygon
       id="polygon9"
       points="5.757,17.933 11.367,15.001 17.485,9.392 27.301,9.392 36.861,11.559 37.499,4.421 22.457,3.414 14.043,7.225 6.522,13.216 "
       style="fill:#de9977" /><polygon
       id="polygon11"
       points="131.856,35.973 112.584,17.933 99.287,4.421 91.807,4.421 96.566,18.697 95.887,40.452 60.533,41.134 71.167,48.852 82.969,59.491 91.807,65.745 106.085,74.45 117.643,80.568 133.961,97.563 142.119,97.563 145.518,65.745 137.896,47.206 "
       style="fill:#998866" /><polygon
       id="polygon13"
       points="59.171,0 68.008,10.675 70.729,21.63 64.27,28.518 56.111,29.406 71.153,37.31 91.55,36.034 91.55,17.933 83.391,4.421 69.369,0 "
       style="fill:#998866" /><polygon
       id="polygon15"
       points="31.635,10.374 42.089,13.089 56.111,22.853 56.111,24.562 62.485,24.562 62.485,12.833 59.171,8.754 50.757,4.421 47.442,2.126 31.635,4.421 "
       style="fill:#998866" /><polygon
       id="polygon17"
       points="63.504,65.745 62.485,69.689 56.111,69.689 54.327,65.745 50.247,64.08 50.247,53.627 56.111,50.989 59.298,55.922 59.298,65.745 " /><polygon
       id="polygon19"
       points="129.538,128.585 125.204,126.8 120.359,122.72 120.359,118.896 132.088,118.896 136.423,126.8 136.423,134.703 " /><polygon
       id="polygon21"
       points="33.675,134.703 38.774,129.35 39.539,122.72 46.167,118.896 56.111,118.896 50.247,126.8 44.638,129.095 42.089,134.703 " /><polygon
       id="polygon23"
       points="23.477,44.958 14.043,47.253 5.12,56.432 5.12,60.339 9.964,57.451 18.633,50.989 30.615,50.989 35.459,57.961 47.442,62.04 47.442,53.372 42.089,49.037 33.675,44.958 " /><polygon
       id="polygon25"
       points="49.305,17.933 51.012,8.754 49.305,3.414 59.171,8.754 59.171,20.727 54.238,21.272 "
       style="fill:#de9977" /><polygon
       id="polygon27"
       points="115.516,86.134 105.572,85.496 98.179,93.272 96.14,95.822 94.354,102.196 96.14,109.718 103.025,111.63 111.564,110.609 101.749,104.873 99.964,100.092 105.954,94.038 116.153,94.292 120.359,101.304 124.566,108.442 125.076,114.689 130.813,110.1 128.392,102.196 124.057,93.4 "
       style="fill:#6082c2" /><polygon
       id="polygon29"
       points="86.451,69.689 74.086,67.267 63.504,70.454 59.298,74.916 58.023,78.549 61.848,82.819 68.476,77.593 87.088,77.848 94.354,86.389 96.14,89.83 101.366,84.858 99.836,78.23 96.14,73.004 "
       style="fill:#6082c2" /><polygon
       id="polygon31"
       points="4.482,91.36 9.709,111.758 21.31,122.72 21.31,97.563 25.516,89.83 32.528,82.692 47.442,81.289 47.442,74.788 41.324,69.689 22.584,68.924 7.669,73.259 "
       style="fill:#6082c2" /><polygon
       id="polygon33"
       points="26.281,109.335 25.963,106.786 33.675,103.98 38.264,98.499 42.471,89.83 44.255,85.496 46.677,86.389 46.677,94.802 44.128,103.088 37.626,110.609 "
       style="fill:#6082c2" /><polygon
       id="polygon35"
       points="71.153,86.134 58.788,84.858 53.812,88.789 51.904,94.93 48.28,105.289 47.442,115.186 55.375,115.186 58.555,106.437 63.176,95.039 72.375,100.093 75.479,106.06 81.861,108.188 79.694,94.93 "
       style="fill:#6082c2" /><polygon
       id="polygon37"
       points="103.661,93.654 98.561,100.092 101.366,106.786 109.015,108.06 112.584,107.933 112.266,103.025 105.317,103.025 105.062,98.881 110.799,97.563 117.173,99.774 116.791,106.529 121.635,114.689 125.97,114.689 125.076,104.109 118.064,93.654 112.584,91.36 "
       style="fill:#ddeeee" /><polygon
       id="polygon39"
       points="62.26,83.971 70.978,79.892 85.418,84.858 95.81,90.6 97.962,88.098 87.003,76.322 67.809,75.47 60.237,80.911 "
       style="fill:#8da9d8" /><polygon
       id="polygon41"
       points="96.054,89.408 85.515,80.059 74.979,80.059 77.187,85.496 85.346,93.998 95.543,93.998 "
       style="fill:#5567aa" /><polygon
       style="fill:#ddeeee"
       points="71.399,106.06 71.399,100.947 63.176,95.039 60.237,101.434 53.375,115.186 50.247,115.186 56.875,98.053 59.927,87.682 75.479,98.855 75.479,106.06 "
       id="polygon45" /><polygon
       style="fill:#ddeeee"
       points="36.32,76.352 27.375,77.51 19.5,83.035 15.75,88.727 15.36,99.793 20.265,111.747 13.875,107.102 9.375,97.563 9.375,87.028 12.625,78.549 20.867,73.43 42.089,73.43 "
       id="polygon49" /><polygon
       id="polygon51"
       points="70.729,35.354 66.988,32.976 72.088,21.63 70.729,4.421 79.757,8.754 82.627,21.63 79.694,31.955 "
       style="fill:#de9977" /><polygon
       id="polygon53"
       points="98.561,60.339 82.627,58.854 75.997,53.499 71.167,48.852 90.021,50.989 105.062,44.958 109.27,38.584 104.426,24.562 104.298,10.029 112.584,17.933 116.026,42.281 112.584,53.499 "
       style="fill:#de9977" /><polygon
       id="polygon55"
       points="124.821,82.055 120.011,83.035 108.011,75.47 125.97,72.493 129.793,62.04 131.856,35.973 137.441,46.36 137.441,63.57 136.295,77.72 "
       style="fill:#de9977" /><polygon
       style="fill:#ddeeee"
       points="42.089,103.025 35.917,107.435 33,107.435 40.25,101.434 43.083,93.102 44.893,90.6 44.893,95.822 "
       id="polygon57" /></g><g
     id="Layer_1" /></svg>