<?xml version="1.0" encoding="UTF-8" standalone="no"?>
<!-- Generator: Adobe Illustrator 16.0.3, SVG Export Plug-In . SVG Version: 6.00 Build 0)  -->

<svg
   xmlns:dc="http://purl.org/dc/elements/1.1/"
   xmlns:cc="http://creativecommons.org/ns#"
   xmlns:rdf="http://www.w3.org/1999/02/22-rdf-syntax-ns#"
   xmlns:svg="http://www.w3.org/2000/svg"
   xmlns="http://www.w3.org/2000/svg"
   xmlns:sodipodi="http://sodipodi.sourceforge.net/DTD/sodipodi-0.dtd"
   xmlns:inkscape="http://www.inkscape.org/namespaces/inkscape"
   version="1.1"
   x="0px"
   y="0px"
   width="145.027px"
   height="140.699px"
   viewBox="0 0 145.027 140.699"
   style="enable-background:new 0 0 145.027 140.699;"
   xml:space="preserve"
   id="svg2"
   inkscape:version="0.91 r13725"
   sodipodi:docname="Giaprey.svg"
   inkscape:export-filename="D:\Git\MonsterHunterGenDatabase\image-src\Giaprey.png"
   inkscape:export-xdpi="96.389999"
   inkscape:export-ydpi="96.389999"><metadata
     id="metadata104"><rdf:RDF><cc:Work
         rdf:about=""><dc:format>image/svg+xml</dc:format><dc:type
           rdf:resource="http://purl.org/dc/dcmitype/StillImage" /><dc:title></dc:title></cc:Work></rdf:RDF></metadata><defs
     id="defs102" /><sodipodi:namedview
     pagecolor="#ffffff"
     bordercolor="#666666"
     borderopacity="1"
     objecttolerance="10"
     gridtolerance="10"
     guidetolerance="10"
     inkscape:pageopacity="0"
     inkscape:pageshadow="2"
     inkscape:window-width="1409"
     inkscape:window-height="832"
     id="namedview100"
     showgrid="false"
     inkscape:zoom="1.6773395"
     inkscape:cx="72.513496"
     inkscape:cy="70.349503"
     inkscape:window-x="0"
     inkscape:window-y="0"
     inkscape:window-maximized="0"
     inkscape:current-layer="svg2" /><g
     id="g7"><polygon
       id="polygon9"
       points="56.069,43.44 56.069,39.875 51.58,35.122 39.168,33.801 33.49,22.578 10.516,22.578 4.973,25.087 4.973,35.254 11.309,30.765 15.665,35.254 19.759,30.896 24.248,35.254 28.077,31.028 30.981,35.254 35.075,38.951 46.826,39.347 48.279,41.459 46.959,43.44 24.248,43.44 19.759,39.479 15.798,43.44 11.176,39.479 9.195,39.479 9.195,47.929 49.995,47.929 "
       style="fill:#fedd78" /><polygon
       id="polygon11"
       points="62.671,5.149 74.158,0 71.649,9.242 63.859,17.429 56.993,22.578 51.315,22.578 46.826,18.089 39.168,18.485 34.415,22.578 25.568,22.578 37.848,10.167 "
       style="fill:#dd8854" /><polygon
       id="polygon13"
       points="63.067,40.799 68.217,40.799 71.782,35.254 97.793,35.254 102.15,39.347 102.15,60.077 89.342,60.077 89.475,64.434 110.336,64.434 110.336,39.215 114.562,35.254 122.617,35.254 127.238,39.875 127.238,68.527 110.336,68.527 106.375,73.809 106.375,89.389 114.959,94.672 114.959,86.221 118.523,81.467 123.938,81.467 127.238,85.428 122.617,85.428 119.051,89.785 119.051,95.332 121.957,98.5 125.125,98.5 127.238,102.197 127.238,111.176 115.223,123.719 16.854,128.34 8.271,131.773 127.238,131.773 139.914,119.758 139.914,18.353 132.256,9.771 101.887,9.771 93.568,14.392 89.607,26.143 72.178,26.143 68.085,22.578 51.315,22.578 52.24,30.632 "
       style="fill:#bbcccb" /><polygon
       id="polygon15"
       points="34.371,105.719 43.35,114.873 64.651,114.873 52.504,107.303 44.23,98.5 42.997,91.283 51.096,81.07 52.856,76.318 43.525,78.078 34.371,86.705 "
       style="fill:#332222" /><polygon
       id="polygon17"
       points="85.25,98.5 59.898,98.5 59.898,94.803 81.201,94.803 81.201,89.875 59.898,89.875 59.898,86 85.25,86 "
       style="fill:#332222" /><polygon
       id="polygon19"
       points="85.25,73.148 64.651,73.148 64.651,69.452 81.201,69.452 81.201,64.523 64.651,64.523 64.651,60.65 85.25,60.65 "
       style="fill:#332222" /><polygon
       id="polygon21"
       points="92.82,52.375 93.348,60.077 89.342,60.077 89.342,50.086 "
       style="fill:#332222" /><polygon
       id="polygon23"
       points="89.342,89.875 89.342,98.5 114.893,98.5 102.15,89.875 "
       style="fill:#ffdd88" /><polygon
       id="polygon25"
       points="114.475,46.742 120.107,47.929 123.805,46.214 123.805,41.636 121.164,38.82 117.994,38.82 114.475,42.517 "
       style="fill:#ffdd88" /><rect
       id="rect27"
       height="4.2259998"
       width="9.3299999"
       style="fill:#ffdd88"
       y="52.022999"
       x="114.475" /><rect
       id="rect29"
       height="4.2249999"
       width="9.3299999"
       style="fill:#ffdd88"
       y="60.650002"
       x="114.475" /><polygon
       id="polygon31"
       points="48.103,22.666 48.103,27.641 44.405,30.633 40.181,29.225 38.596,24.648 44.053,21.303 "
       style="fill:#ef3b2d" /><polygon
       id="polygon33"
       points="72.574,132.305 68.349,132.305 70.461,126.67 "
       style="fill:#6699bb" /><polygon
       id="polygon35"
       points="89.477,132.305 85.25,132.305 87.361,126.67 "
       style="fill:#6699bb" /><polygon
       id="polygon37"
       points="104.23,132.305 100.004,132.305 102.117,126.67 "
       style="fill:#6699bb" /><polygon
       id="polygon39"
       points="131.926,114.873 131.926,119.1 126.291,116.986 "
       style="fill:#6699bb" /><polygon
       id="polygon41"
       points="136.328,102.197 136.328,106.424 130.693,104.311 "
       style="fill:#6699bb" /><polygon
       id="polygon43"
       points="128.053,90.137 128.053,94.363 122.42,92.25 "
       style="fill:#6699bb" /><polygon
       id="polygon45"
       points="130.693,36.003 140.561,25.968 140.561,36.003 "
       style="fill:#224455" /><polygon
       id="polygon47"
       points="140.561,47.929 140.561,38.82 130.693,43.375 "
       style="fill:#224455" /><polygon
       id="polygon49"
       points="131.926,60.65 139.824,56.249 139.824,64.875 "
       style="fill:#224455" /><polygon
       id="polygon51"
       points="139.824,77.199 140.561,69.277 131.926,73.148 "
       style="fill:#224455" /><polygon
       id="polygon53"
       points="139.824,90.137 139.824,85.121 131.926,87.586 "
       style="fill:#224455" /><polygon
       id="polygon55"
       points="133.51,22.578 123.805,25.968 123.805,18.751 132.959,9.42 140.561,18.223 "
       style="fill:#224455" /><polygon
       id="polygon57"
       points="111.832,9.42 120.988,9.42 117.113,27.025 "
       style="fill:#224455" /><polygon
       id="polygon59"
       points="100.918,24.385 110.426,27.025 109.367,18.927 101.887,9.771 93.568,14.392 "
       style="fill:#224455" /><rect
       id="rect61"
       height="4.467"
       width="4.467"
       style="fill:#bcaa55"
       y="1.322"
       x="97.650002" /><rect
       id="rect63"
       height="4.467"
       width="4.467"
       style="fill:#bcaa55"
       y="1.322"
       x="110.426" /><rect
       id="rect65"
       height="4.467"
       width="4.4650002"
       style="fill:#bcaa55"
       y="1.322"
       x="123.004" /><rect
       id="rect67"
       height="4.467"
       width="4.467"
       style="fill:#bcaa55"
       y="5.789"
       x="135.627" /><rect
       id="rect69"
       height="4.467"
       width="4.467"
       style="fill:#bcaa55"
       y="17.694"
       x="140.561" /><rect
       id="rect71"
       height="4.467"
       width="4.467"
       style="fill:#bcaa55"
       y="30.632999"
       x="140.561" /><rect
       id="rect73"
       height="4.467"
       width="4.467"
       style="fill:#bcaa55"
       y="43.32"
       x="140.561" /><rect
       id="rect75"
       height="4.467"
       width="4.467"
       style="fill:#bcaa55"
       y="56.259998"
       x="140.561" /><rect
       id="rect77"
       height="4.4660001"
       width="4.467"
       style="fill:#bcaa55"
       y="69.278"
       x="139.82401" /><rect
       id="rect79"
       height="4.4689999"
       width="4.467"
       style="fill:#bcaa55"
       y="82.217003"
       x="139.82401" /><rect
       id="rect81"
       height="4.467"
       width="4.467"
       style="fill:#bcaa55"
       y="94.362999"
       x="139.82401" /><rect
       id="rect83"
       height="4.4689999"
       width="4.467"
       style="fill:#bcaa55"
       y="124.436"
       x="139.82401" /><rect
       id="rect85"
       height="4.467"
       width="4.467"
       style="fill:#bcaa55"
       y="136.05701"
       x="126.227" /><rect
       id="rect87"
       height="4.467"
       width="4.467"
       style="fill:#bcaa55"
       y="136.05701"
       x="110.426" /><rect
       id="rect89"
       height="4.467"
       width="4.467"
       style="fill:#bcaa55"
       y="136.05701"
       x="93.876999" /><rect
       id="rect91"
       height="4.467"
       width="4.467"
       style="fill:#bcaa55"
       y="136.23199"
       x="43.581001" /><rect
       id="rect93"
       height="4.467"
       width="4.4660001"
       style="fill:#bcaa55"
       y="136.23199"
       x="26.504999" /><rect
       id="rect95"
       height="4.467"
       width="4.467"
       style="fill:#bcaa55"
       y="136.23199"
       x="59.897999" /><rect
       id="rect97"
       height="4.467"
       width="4.467"
       style="fill:#bcaa55"
       y="136.23199"
       x="76.678001" /></g><g
     id="Layer_1" /></svg>