<?xml version="1.0" encoding="UTF-8" standalone="no"?>
<svg
   xmlns:dc="http://purl.org/dc/elements/1.1/"
   xmlns:cc="http://creativecommons.org/ns#"
   xmlns:rdf="http://www.w3.org/1999/02/22-rdf-syntax-ns#"
   xmlns:svg="http://www.w3.org/2000/svg"
   xmlns="http://www.w3.org/2000/svg"
   xmlns:sodipodi="http://sodipodi.sourceforge.net/DTD/sodipodi-0.dtd"
   xmlns:inkscape="http://www.inkscape.org/namespaces/inkscape"
   width="150"
   height="150"
   viewBox="0 0 150 150"
   id="svg2"
   version="1.1"
   inkscape:version="0.91 r13725"
   sodipodi:docname="Grimclaw_Tigrex.svg">
  <metadata
     id="metadata80">
    <rdf:RDF>
      <cc:Work
         rdf:about="">
        <dc:format>image/svg+xml</dc:format>
        <dc:type
           rdf:resource="http://purl.org/dc/dcmitype/StillImage" />
        <dc:title></dc:title>
      </cc:Work>
    </rdf:RDF>
  </metadata>
  <defs
     id="defs78" />
  <sodipodi:namedview
     pagecolor="#ffffff"
     bordercolor="#666666"
     borderopacity="1"
     objecttolerance="10"
     gridtolerance="10"
     guidetolerance="10"
     inkscape:pageopacity="0"
     inkscape:pageshadow="2"
     inkscape:window-width="690"
     inkscape:window-height="480"
     id="namedview76"
     showgrid="false"
     inkscape:zoom="1.1125147"
     inkscape:cx="36.060667"
     inkscape:cy="83.921327"
     inkscape:window-x="232"
     inkscape:window-y="71"
     inkscape:window-maximized="0"
     inkscape:current-layer="svg2" />
  <g
     id="g3408">
    <path
       id="path4"
       fill="#123333"
       clip-rule="evenodd"
       fill-rule="evenodd"
       d="M54.445 7.694h4.21v4.086l4.086.125v3.838H50.61l-1.24 4.087H9.74l2.228-6.44h5.2l2.354 2.477h18.576l2.848-2.602 3.22-.37 10.154-.992.125-4.21zm-13.5 7.802l1.116 4.087.87-3.344-1.98-.75z" />
    <path
       id="path6"
       fill="#36859B"
       clip-rule="evenodd"
       fill-rule="evenodd"
       d="M58.778 15.743h3.963v3.963c-1.37-1.27-2.69-2.59-3.96-3.963z" />
    <path
       id="path8"
       fill="#B9A299"
       clip-rule="evenodd"
       fill-rule="evenodd"
       d="M5.9 28.003h5.077c-.826 1.404-1.754 2.704-2.6 4.087-.856-1.332-1.71-2.664-2.477-4.087zm8.173 0h4.83c-.992 1.486-1.842 3.112-3.096 4.334-.475-1.546-1.258-2.787-1.734-4.334zm8.05 0h4.086c-.66 1.783-1.49 3.38-2.11 5.2-.8-1.596-1.33-3.46-1.98-5.2zm8.05 0c1.327.077 2.963-.156 4.086.124v.25c-.55.16-.78 1.04-1.12 1.73-.34.68-.78 1.457-.99 2.106-.76-1.308-1.43-2.7-1.98-4.21z" />
    <path
       id="path10"
       fill="#36859B"
       clip-rule="evenodd"
       fill-rule="evenodd"
       d="M70.915 28.25c.278.054.05.612.125.868-.287.416-.044 1.36-.125 1.98v1.24c-1.238-.082-2.806.164-3.838-.125.084-.287.41-.332.495-.618.878-.774 1.703-1.6 2.477-2.477.23-.34.52-.63.86-.867z" />
    <path
       id="path12"
       fill="#B9A299"
       clip-rule="evenodd"
       fill-rule="evenodd"
       d="M71.04 29.118c-.082.62.162 1.566-.126 1.98.08-.62-.162-1.564.125-1.98zm-32.694 3.22h4.21v.124c-.787 2.308-1.453 4.74-2.105 7.182-.82-2.308-1.32-4.953-2.1-7.307z" />
    <path
       id="path14"
       fill="#AAA"
       clip-rule="evenodd"
       fill-rule="evenodd"
       d="M50.606 32.337h8.668c-.543 9.405-1.216 18.682-1.858 27.987H10.234c.24-2.43-.825-5.518-.372-7.678.273-1.3 1.985-2.775 2.105-4.086.83 1.026 1.084 2.63 1.857 3.714h4.334c1.206-1.188 1.974-2.814 2.848-4.333.758 1.23 1.007 2.96 1.61 4.34h4.21c.785-1.23 1.245-2.8 1.733-4.33.91 1.23 1.33 2.96 2.1 4.34.91-.16 1.68.22 2.35 0 1.31-.43 2.94-4.55 3.84-5.07 4.16-.91 8.86-2.36 13.25-3.47.05-3.91.47-7.45.5-11.39zm1.61 16.72c-1.56.255-2.988.644-4.583.866-.802.973-1.675 1.875-2.477 2.85.65 1 1.025 2.275 1.61 3.342 1.723.176 3.25.55 4.83.867.75-1.314 1.683-2.444 2.477-3.714-.71-1.316-1.293-2.754-1.858-4.212z" />
    <path
       id="path16"
       fill="#B9A299"
       clip-rule="evenodd"
       fill-rule="evenodd"
       d="M42.557 34.69c-.082.786.163 1.897-.125 2.477.082-.785-.163-1.897.125-2.476z" />
    <path
       id="path18"
       fill="#B44"
       clip-rule="evenodd"
       fill-rule="evenodd"
       d="M15.312 40.51c-1.858 1.114-3.343 2.602-5.202 3.716.236-1.374.556-2.665.743-4.087 2.293-1.3 4.347-2.84 6.688-4.09 2.88 1.37 5.77 2.74 8.55 4.21 2.02-1.37 4.1-2.68 6.07-4.09 2.61 1.27 4.91 2.85 7.56 4.08-1.5.47-1.82 2.14-2.1 3.84-1.03-.19-2.28-.5-3.59-.75-1.27-.24-3-.76-3.84-.62-1.13.19-1.48 1.4-2.35 1.98-1.2 1.03-2.37 2.08-3.46 3.22-1.09.57-2.52-2.13-3.59-2.61-.54-.74-1.33-1.23-1.98-1.86-.59-.78-1.41-1.31-2.1-1.98-.35-.36-.84-1.23-1.36-.99z" />
    <path
       id="path20"
       fill="#667"
       clip-rule="evenodd"
       fill-rule="evenodd"
       d="M54.073 53.267c-.794 1.27-1.728 2.4-2.477 3.714-1.58-.31-3.107-.69-4.83-.86-.584-1.06-.96-2.34-1.61-3.34.802-.97 1.675-1.87 2.477-2.85 1.595-.22 3.022-.61 4.582-.86.565 1.46 1.15 2.9 1.858 4.21z" />
    <path
       id="path22"
       fill="#987B71"
       clip-rule="evenodd"
       fill-rule="evenodd"
       d="M103.237 85.092h4.828c-1.32.207-3.507.207-4.828 0zm12.63 20.308v7.928c-.206-2.353-.206-5.572 0-7.927z" />
    <path
       id="path24"
       fill="#124"
       clip-rule="evenodd"
       fill-rule="evenodd"
       d="M26.333 117.66h.124V142H22v-7.868c-1.065-.34-2.39-.417-3.22-.99-.344-1.06-.637-2.17-.868-3.344-1.367.2-2.673.465-3.715.99-.88 3.188-.38 7.585-.248 11.212H9.74c-.158-3.958.317-9.085-.25-12.202.077-1.327-.156-2.963.125-4.086 6.78-1.477 11.45-5.063 16.718-8.05z" />
    <path
       id="path26"
       fill="#B9A299"
       clip-rule="evenodd"
       fill-rule="evenodd"
       d="M69.305 117.66c1.9.084 4.128-.163 5.82.125-1.9-.082-4.127.165-5.82-.124z" />
    <path
       id="path28"
       fill="#124"
       clip-rule="evenodd"
       fill-rule="evenodd"
       d="M42.31 133.637h3.343c-1.52 2.32-2.752 4.992-3.22 8.363H38.47c-.005-1.245-.098-2.642.372-3.41.984-.378 2.177-.548 3.344-.743-.05-1.493.04-2.847.123-4.21z" />
    <path
       id="path30"
       fill="#32DDFF"
       clip-rule="evenodd"
       fill-rule="evenodd"
       d="M45.652 133.637h8.545c.072 2.858.422 5.506.495 8.363H42.43c.47-3.37 1.703-6.044 3.222-8.363z" />
    <path
       id="path32"
       fill="#124"
       clip-rule="evenodd"
       fill-rule="evenodd"
       d="M54.197 133.637h16.47v4.088c-.464.36-.878.773-1.238 1.238-.38.57-.99 2.47-1.37 3.038-.51.41-.96-.5-1.37 0-3.76.29-8.05-.08-12.01 0-.07-2.85-.43-5.5-.5-8.36z" />
    <path
       id="path34"
       fill="#B9A299"
       clip-rule="evenodd"
       fill-rule="evenodd"
       d="M15.312 40.51c.524-.23 1.01.64 1.362.992-.518-.266-.662-.906-1.362-.99z" />
    <path
       id="path36"
       fill="#987B71"
       clip-rule="evenodd"
       fill-rule="evenodd"
       d="M18.78 43.484c.65.627 1.437 1.12 1.98 1.856-.65-.628-1.438-1.12-1.98-1.856z" />
    <path
       id="path38"
       fill="#B9A299"
       clip-rule="evenodd"
       fill-rule="evenodd"
       d="M24.352 47.942c1.094-1.135 2.266-2.192 3.467-3.22-1.1 1.135-2.27 2.193-3.47 3.22z" />
    <path
       id="path40"
       d="M67.943 19.83l-5.202-3.838V11.78h11.03l-2.6 8.175h-.12l-3.09-.124"
       fill="#667"
       clip-rule="evenodd"
       fill-rule="evenodd" />
    <path
       id="path42"
       fill="#AE4"
       clip-rule="evenodd"
       fill-rule="evenodd"
       d="M42.928 16.24c.864 1.064.596 2.99-.867 3.343-2.82.683-3.83-3.652-1.11-4.087.98-.156 1.51.158 1.98.743z" />
    <path
       id="path44"
       fill="#987B71"
       clip-rule="evenodd"
       fill-rule="evenodd"
       d="M67.57 31.595c.775-.877 1.6-1.704 2.478-2.477-.774.878-1.6 1.703-2.477 2.477z" />
    <path
       id="path46"
       d="M70.048 44.226l8.916 8.298.124.495.248 8.04-.248 7.8-3.467 7.3 2.85 10.65 6.2 1.98v17.46L49 106.14l.99-15.232.247-5.077 3.592-4.58L64.84 68v-9.66l-5.572-1.98 1.24-12.384 9.535.246"
       fill="#AAA"
       clip-rule="evenodd"
       fill-rule="evenodd" />
    <path
       id="path48"
       d="M25.838 85h-7.43l-2.724 1.904-5.945 6.174-.33 35.425 16.94-9.254.69-20.54 20.01-1.86.1-.37.85-11.32-22.18-.17"
       fill="#069"
       clip-rule="evenodd"
       fill-rule="evenodd" />
    <path
       id="path50"
       d="M69.367 117.85l-3.59-1.487-1.115-7.182 22.785.5.744 6.56 1 6.19 6.32 4.71-17.33.13v-5.07l-2.97-4.21-5.82-.12"
       fill="#667"
       clip-rule="evenodd"
       fill-rule="evenodd" />
    <path
       id="path52"
       fill="#423524"
       clip-rule="evenodd"
       fill-rule="evenodd"
       d="M84.424 16.05c.605-1.293 1.32-2.476 1.856-3.838 3.534-1.214 6.76-2.735 10.156-4.087-1.234 2.688-2.53 5.315-3.84 7.926h-8.172z" />
    <path
       id="path54"
       fill="#667"
       clip-rule="evenodd"
       fill-rule="evenodd"
       d="M36.86 47.198c.156-1.123.46-2.098.742-3.095.286-1.696.598-3.365 2.105-3.84 1.035-.905 3.085-.795 2.725-3.096.287-.58.043-1.69.125-2.476v-2.35h8.05c-.026 3.94-.445 7.49-.497 11.4-4.39 1.11-9.09 2.55-13.25 3.47z" />
    <path
       id="path56"
       d="M119.704 70.936h3.962v12.136h-12.88l1.61-5.2M104.98 7.876h6.813l1.486 1.486 1.11.992-8.3 10.897-5.12-1.31-.25-8.31 4.25-3.75M138 32.23l4.955 4.83-10.526 10.77h-.13l-4.96-5.08L138 32.227M60.513 43.98l.74-7.68h8.795v7.926l-9.534-.247m17.967-7.67l12.87 9.15h-.99l-6.31.12H78.6l-.093-6.44m.46 13.33l12.975-.12-.96 8.1-11.64.49m-49.17 6.18h4.088l1.61 1.61 2.227 2.1 2.105 2.1 2.23 2.103 2.23 2.23 1.73 1.86v3.84H30.17V67.13m47.015 5.74l1.9-4.005 6.315.247-4.59 3.758m-65.75-1.28l5.45 1.363 1.61 1.61 1.61 1.486 1.61 1.61 1.61 1.48.867 4.58H15.062V71.59m76.285 39.256l.125-1.36h11.887v4.084h-1.74l-6.44.125h-3.96l.12-2.36v-.5m-5.69-24.51l-5.08.492-2.23-10.65 8.17-5.696 3.22-3.59 9.78-10.4h3.96l4.58 28.36v.25h-4.96l-4.7-12.13-10.16 2.6-.99 7.68 7.3-.49-.728-1.43-2.85.06v-4.12l6.91.53 1.733 6.44-13.25 1.98-.743.124m-39.14 23.26l5.25.185v17.564l-17.08-1.668-.082-16.086m56.395 8.33l.13-.25h16.35v8.055H96.8l-4.584-2.6-1.236-5.2M54.444 15.74v3.965l-4.21 4.087-2.23 1.98-2.23 1.86H40.08l-7.307-1.363-1.486-1.48-.867-.49H13.826L9.986 28H5.53V11.78l4.086-3.095h10.65l1.98 3.095h15.977l4.705-3.962 11.392-.124h.125l-.125 4.21-10.154.992-3.22.37-2.848 2.602H19.522L17.17 13.39h-5.202l-2.23 6.44h39.63l1.238-4.087h3.84m71.62.893l6.19-4.705-.495 8.18-1.11.75-4.58-4.21m-11.39 11.88l9.79-9.16.9-1.15 5.05 4.62-10.65 10.65-1.24-1.11-2.35-2.23-1.48-1.61m24.204 2.21l6.19-4.58-.37 7.92-1.24.87-4.58-4.21M75.01 7.82l-1.238 3.968H62.74v.12l-4.085-.13V7.69h.123l16.224.124m56.965 48.545l12.136 4.08.123 40.3-6.726 2.08-6.667-1.58 1.134-44.89"
       fill="#36859B"
       clip-rule="evenodd"
       fill-rule="evenodd" />
    <path
       id="path58"
       fill="#AAA"
       clip-rule="evenodd"
       fill-rule="evenodd"
       d="M86.767 96.733c8.194.477 16.957.437 24.66 1.36.97 2.212 2.02 4.347 2.44 7.06-8.778.235-17.34.666-26.15.868-.392-3.02-.53-6.28-.95-9.28zm-59.814 1.814s13.16-1.453 20.062-1.857c.02-.146-.216 6.47-.62 9.66-5.43-.432-10.795-.928-16.098-1.487-.745 1.423-3.84 4.706-3.84 4.706l.496-11.03z" />
    <path
       id="path60"
       fill="#32DDFF"
       clip-rule="evenodd"
       fill-rule="evenodd"
       d="M5.9 133.018c.1-.768.154-1.58.372-2.23.953-.408 1.836-.888 3.22-.866v-.124c.566 3.117.09 8.244.248 12.202H5.777c0-.123 0 .123 0 0v-7.496c.284-.253.044-1.028.123-1.486zm28.483 7.306c.235-2.078.718-3.906 1.486-5.45 1.35-.75 3.07-1.14 5.07-1.237h1.36c-.09 1.363-.18 2.717-.13 4.21-1.17.195-2.36.365-3.35.743-.47.77-.38 2.1-.37 3.344h-4.21v-.37c.28-.173.04-.864.12-1.24zM95.063 142h-3.84s-.35-8.334 2.354-10.097c1.962-1.28 6.44-1.68 9.66-2.105-3.427 3.26-7.225 6.463-8.175 12.202z" />
    <path
       id="path62"
       fill="#B9A299"
       clip-rule="evenodd"
       fill-rule="evenodd"
       d="M127.756 117.042c-.082 7.02.165 14.366-.123 21.178v-21.054c.008-.075.018-.146.123-.124z" />
    <g
       id="g64"
       fill="#069">
      <path
         id="path66"
         d="M123.61 85h-7.62l-7.99-.155-4.89.155-4.704-12.09-10.154 2.624-.99 7.69 7.305-.49-.73-1.483-2.837.13v-4.09l6.86.5 1.76 6.44-13.237 1.98.38 10.53 22.772 1.36 2.465 7.06v24.21l16-7.86V89" />
      <path
         id="path68"
         d="M112 125v-.1c-.114.035-.227.062-.342.1H112z" />
    </g>
    <path
       id="path70"
       fill="#124"
       clip-rule="evenodd"
       fill-rule="evenodd"
       d="M111.658 124.968c3.093-.83 5.976-1.028 8.42-2.23 2.897-1.42 5.305-4.16 7.922-5.737v21.06c-1.424 1.1-3.06 2.82-4.454 3.95h-12.632c.215-1.39.99-4.15.99-4.15s4.254-5.16 4.336-7.8c-4.56-.27-10.12.46-11.89 3.59-1.265 2.24-1.29 5.38-2.105 8.37h-7.183c.95-5.74 4.747-8.94 8.175-12.2 2.548-1.88 4.102-4.5 8.42-4.83z" />
    <path
       id="path72"
       d="M76.982 72.833h3.84l-5.2 3.344-.125.123 1.485-3.467m67.244-4.086v7.8l-12.788.015.218-7.812m12.57 15.972v7.8l-13.164.447.188-8.19m12.976 15.91v8.42l-12.136 8.3h-2.106l.744-16.23M75.126 7.69h7.926v4.088l-2.726 2.85-2.6 2.6-2.724 2.6-2.23.128h-1.61l2.602-8.175 1.238-3.96.124-.12m50.94 8.94l-2.478-2.48 6.067-7.19 2.85-1.98.123 1.73-.124 1.49v.87l-.123 1.24-.12 1.61-6.19 4.71M96.44 8.12l.128-.247h8.42L102.26 10.6l-1.24 1.24v8.05l-8.42-3.714v-.124l3.84-7.925m-41.994 7.618h4.333l3.96 3.963 7.93 3.59.24.126.12 2.972-.13 1.857-.87.87-2.48 2.477-.5.616-7.8.124H35l-.743-3.96v-.25l-4.09-.123H9.985l3.838-3.714H30.42l.867.493 1.486 1.487 7.307 1.362h5.696l2.23-1.858 2.228-1.98 4.21-4.088v-3.97m56.39 8.94l8.172-12.26 6.067 5.58.25.25-.868 1.11-9.782 9.16h-.126l-1.734-1.61-1.98-2.23m28.042 6.05l-2.48-2.23 8.175-9.65.743.24-.248 7.06-6.19 4.58m-16.595 6.69l11.764-9.41 1.238 1.23 1.24 1.24 1.238 1.36.246.37-10.65 10.522h-.123l-4.954-5.327M70.04 36.3h8.422l.122 9.288h5.45l6.313-.123h1.116l.494 6.563v.37l-13.002.126-8.915-8.298V36.3m72.072 9.288l2.105-.123-.124 14.984-12.138-4.09v-1.74l2.353-3.35 7.8-5.7M90.97 60.47l-5.626 8.655-6.313-.156.29-8.04M57.8 109.36h4.83l.494 9.78 11.518 2.23v4.086l-2.102 3.22-2.23 3.095h-.247l-1.24-.12H67.7l-1.238-.12-5.945-.25-1.24-.12-5.943-.24-1.236-.123-5.945-.25-1.24-.125-5.695-.246-3.84-3.714-.866-.99h.866l3.962.12h3.96l3.838.12h3.344v-2.723l.124-5.33-16.1-.125.124-3.966h11.765v-4.087h1.238l10.155-.122m45.695.125h3.964v8.05h-16.47v-.87l.124-2.72.13-.246h3.97l6.44-.13h1.73l.13-4.088"
       fill="#999967"
       clip-rule="evenodd"
       fill-rule="evenodd" />
    <path
       id="path74"
       fill="#32DDFF"
       clip-rule="evenodd"
       fill-rule="evenodd"
       d="M23 92l16-3.333-19.667-.333L17 96l-2 6.875 3 5.5-3.375-.875L11 94.875v14.5l6.062 1.75 3.156 1.625.453 12.5-3.08 4.6c-1.24.197-2.4.455-3.36.94-.88 3.186-.22 7.583-.22 11.21 0 .042 0 0 0 0h8s0 .042 0 0v-7.868c-1-.34-2.39-.417-3.22-.99-.02-.06-.03-.122-.05-.182L23 127v-17l-5.333-7.333 4.667-4.333L23 92zm101 11.75l-3.75 3.75-2-19.5-15.25-.25L113.5 91l2.167 1.667 2.666 22-5.212 14.98c-2.69-.12-6.48.306-8.62 3.186-1.53 2.064-1.44 6.176-2.25 9.167h8.67l1.17-4.167 4.17-2.91L122 122.75V111l4-4.25V91l-2 12.75z" />
  </g>
</svg>
