<?xml version="1.0" encoding="UTF-8" standalone="no"?>
<!-- Generator: Adobe Illustrator 16.0.3, SVG Export Plug-In . SVG Version: 6.00 Build 0)  -->

<svg
   xmlns:dc="http://purl.org/dc/elements/1.1/"
   xmlns:cc="http://creativecommons.org/ns#"
   xmlns:rdf="http://www.w3.org/1999/02/22-rdf-syntax-ns#"
   xmlns:svg="http://www.w3.org/2000/svg"
   xmlns="http://www.w3.org/2000/svg"
   xmlns:sodipodi="http://sodipodi.sourceforge.net/DTD/sodipodi-0.dtd"
   xmlns:inkscape="http://www.inkscape.org/namespaces/inkscape"
   version="1.1"
   x="0px"
   y="0px"
   width="142px"
   height="134.002px"
   viewBox="0 0 142 134.002"
   style="enable-background:new 0 0 142 134.002;"
   xml:space="preserve"
   id="svg2"
   inkscape:version="0.91 r13725"
   sodipodi:docname="Hornetaur.svg"><metadata
     id="metadata64"><rdf:RDF><cc:Work
         rdf:about=""><dc:format>image/svg+xml</dc:format><dc:type
           rdf:resource="http://purl.org/dc/dcmitype/StillImage" /><dc:title></dc:title></cc:Work></rdf:RDF></metadata><defs
     id="defs62" /><sodipodi:namedview
     pagecolor="#ffffff"
     bordercolor="#666666"
     borderopacity="1"
     objecttolerance="10"
     gridtolerance="10"
     guidetolerance="10"
     inkscape:pageopacity="0"
     inkscape:pageshadow="2"
     inkscape:window-width="1198"
     inkscape:window-height="808"
     id="namedview60"
     showgrid="false"
     inkscape:zoom="1.7611678"
     inkscape:cx="71"
     inkscape:cy="67.000999"
     inkscape:window-x="0"
     inkscape:window-y="0"
     inkscape:window-maximized="0"
     inkscape:current-layer="svg2" /><g
     id="g3419"><g
       id="g7"><path
         style="clip-rule:evenodd;fill:#3e3d2e;fill-rule:evenodd"
         d="m 46.286,51.687 c 0,1.277 0,2.552 0,3.828 C 42.64,68.783 30.233,57.652 23.938,63.556 18.377,63.094 12.531,63.701 8,59.344 c 0,-2.552 0,-5.105 0,-7.657 12.763,0 25.523,0 38.286,0 z"
         id="path9"
         inkscape:connector-curvature="0" /><path
         style="clip-rule:evenodd;fill:#3e3d2e;fill-rule:evenodd"
         d="m 103.715,51.687 c 12.763,0 25.523,0 38.285,0 0,2.552 0,5.105 0,7.657 -4.525,4.346 -10.363,3.742 -15.916,4.225 -6.388,-5.64 -18.776,5.351 -22.369,-8.054 0,-1.277 0,-2.551 0,-3.828 z"
         id="path11"
         inkscape:connector-curvature="0" /><path
         style="clip-rule:evenodd;fill:#c4a279;fill-rule:evenodd"
         d="m 8,59.344 c 5.105,0 10.209,0 15.314,0 1.305,1.313 1.92,2.896 1.847,4.746 -1.022,2.666 -2.29,4.855 -5.675,2.911 -3.085,-0.479 -3.795,2.602 -5.743,3.772 C 11.795,69.602 11.085,66.522 8,67.001 8,64.449 8,61.896 8,59.344 Z"
         id="path13"
         inkscape:connector-curvature="0" /><path
         style="clip-rule:evenodd;fill:#c4a279;fill-rule:evenodd"
         d="m 126.687,59.344 c 5.105,0 10.209,0 15.313,0 0,2.552 0,5.105 0,7.657 -3.084,-0.479 -3.795,2.602 -5.742,3.772 -1.948,-1.171 -2.658,-4.251 -5.743,-3.772 -3.388,1.951 -4.649,-0.245 -5.676,-2.905 -0.088,-1.859 0.561,-3.429 1.848,-4.752 z"
         id="path15"
         inkscape:connector-curvature="0" /><path
         style="clip-rule:evenodd;fill:#e57f2e;fill-rule:evenodd"
         d="m 122.857,101.458 c -6.339,-4.881 -13.671,-4.324 -20.138,-3.502 -6.069,-2.497 1.374,-11.068 -6.662,-11.812 -1.276,1.836 -2.552,1.836 -3.828,0 0,-3.159 0,-6.32 0,-10.332 5.731,-2.294 11.821,-0.879 17.689,-0.965 2.698,4.435 0.926,8.904 1.479,13.299 4.004,4.182 9.603,0.145 14.108,2.527 2.307,3.32 0.701,7.175 1.18,10.785 -1.276,1.816 -2.55,1.816 -3.828,0 z"
         id="path17"
         inkscape:connector-curvature="0" /><path
         style="clip-rule:evenodd;fill:#e57f2e;fill-rule:evenodd"
         d="m 23.314,101.458 c 0,-3.159 0,-6.32 0,-9.616 4.02,-4.236 9.618,-0.191 14.06,-2.527 2.846,-3.966 0.057,-8.538 2.253,-13.911 4.766,-1.847 10.853,-0.495 16.616,-0.549 2.656,3.824 1.051,7.679 1.529,11.289 -1.277,1.853 -2.553,1.853 -3.829,0 -7.389,0.82 -1.294,7.535 -7.269,11.611 -4.556,0.652 -12.979,-1.913 -19.532,3.703 -1.276,1.816 -2.551,1.816 -3.828,0 z"
         id="path19"
         inkscape:connector-curvature="0" /><path
         style="clip-rule:evenodd;fill:#640e0e;fill-rule:evenodd"
         d="m 53.943,86.144 c 1.276,0 2.552,0 3.829,0 0,5.739 0,11.48 0,17.458 -5.523,3.86 -12.236,0.04 -18.577,2.698 0,5.288 0,10.857 0,16.922 4.264,2.01 9.031,1.48 13.72,0.536 1.844,-3.249 0.988,-6.306 0.65,-9.315 -2.149,-2.413 -4.359,-1.659 -7.381,-0.397 1.369,1.726 2.373,2.992 3.453,4.354 -0.881,3.195 -3.374,2.159 -5.658,1.877 -3.018,-2.527 -0.838,-5.979 -1.552,-8.882 3.208,-4.139 8.538,-3.436 18.055,2.341 2.329,2.656 -2.086,2.314 -2.167,4.232 0.879,1.736 1.758,3.474 2.633,5.2 -1.387,1.388 -2.74,2.741 -4.592,4.592 -6.31,0 -13.146,0 -20.773,0 0,-8.385 0,-16.942 0,-26.192 5.9,0 11.456,0 17.043,0 2.652,-5.387 0.622,-10.53 1.317,-15.424 z"
         id="path21"
         inkscape:connector-curvature="0" /><path
         style="clip-rule:evenodd;fill:#640e0e;fill-rule:evenodd"
         d="m 92.229,86.144 c 1.276,0 2.552,0 3.828,0 0,4.464 0,8.929 0,13.705 5.572,3.464 12.17,0.401 18.576,2.157 0,8.308 0,16.425 0,25.401 -6.355,0 -13.168,0 -21.189,0 -0.759,-0.72 -2.574,-2.445 -4.78,-4.539 1.004,-1.266 2.008,-2.533 3.229,-4.071 -0.983,-1.163 -2.086,-2.47 -3.21,-3.803 4.268,-7.158 10.876,-6.56 17.576,-5.329 2.298,3.062 0.935,6.229 1.065,9.263 -1.972,2.311 -4.202,2.022 -7.01,0.706 0.994,-1.965 1.873,-3.701 2.732,-5.402 -1.401,-2.043 -3.405,-1.106 -5.2,-1.17 -3.112,3.221 -1.928,6.799 -0.734,10.867 4.124,0 8.392,0 13.477,0 0,-5.822 0,-11.828 0,-18.536 -5.902,0 -11.458,0 -18.359,0 -0.001,-6.801 -0.001,-13.024 -0.001,-19.249 z"
         id="path23"
         inkscape:connector-curvature="0" /><path
         style="clip-rule:evenodd;fill:#c0966a;fill-rule:evenodd"
         d="m 126.687,59.344 c 0,1.276 0,2.552 0,3.828 -2.552,2.354 -5.105,2.229 -7.657,0 -5.089,-0.379 -2.989,4.285 -4.95,7.037 -6.735,0 -13.922,0 -21.481,0 0,-3.519 0,-6.483 0,-9.383 3.793,-1.812 7.455,-3.562 11.117,-5.312 -0.256,3.453 2.022,3.832 4.629,3.83 6.113,-0.004 12.226,0 18.342,0 z"
         id="path25"
         inkscape:connector-curvature="0" /><path
         style="clip-rule:evenodd;fill:#ba9a6d;fill-rule:evenodd"
         d="m 57.772,59.344 c 2.648,-0.098 3.926,1.179 3.828,3.828 -6.175,-0.688 -1.932,6.643 -6.005,7.657 -3.028,0 -6.169,0 -9.31,0 -3.41,-3.18 -8.52,-3.81 -11.486,-7.657 -1.276,0 -2.552,0 -3.828,0 -2.552,2.236 -5.105,2.38 -7.657,0 0,-1.276 0,-2.552 0,-3.828 6.115,0 12.228,-0.004 18.343,10e-4 2.606,0.002 4.885,-0.377 4.629,-3.83 4.07,0.551 6.607,5.702 11.486,3.829 z"
         id="path27"
         inkscape:connector-curvature="0" /><path
         style="clip-rule:evenodd;fill:#d29b52;fill-rule:evenodd"
         d="m 122.857,101.458 c 1.277,0 2.552,0 3.829,0 -0.875,6.161 6.696,1.812 7.419,6.026 -1.436,3.163 -6.619,-0.158 -7.257,3.444 -1.473,6.87 4.466,5.006 6.913,7.165 -0.458,4.268 -9.156,1.057 -6.896,8.152 0.724,3.653 5.77,0.564 7.22,3.842 -2.707,3.967 -6.48,1.513 -11.228,1.441 0,-9.993 0,-20.031 0,-30.07 z"
         id="path29"
         inkscape:connector-curvature="0" /><path
         style="clip-rule:evenodd;fill:#d29b52;fill-rule:evenodd"
         d="m 23.314,101.458 c 1.276,0 2.552,0 3.828,0 0,9.565 0,19.132 0,28.699 -3.106,3.443 -6.774,1.879 -11.018,1.021 0.004,-5.042 7.414,-0.804 7.188,-5.461 1.323,-6.124 -4.589,-4.296 -7.068,-6.431 0.468,-4.253 9.131,-1.072 7.017,-7.752 -0.746,-4.208 -5.931,-0.887 -7.366,-4.05 0.723,-4.214 8.294,0.135 7.419,-6.026 z"
         id="path31"
         inkscape:connector-curvature="0" /><path
         style="clip-rule:evenodd;fill:#d2773c;fill-rule:evenodd"
         d="m 80.743,89.972 c -0.097,-2.648 1.18,-3.926 3.829,-3.828 1.912,4.687 6.685,8.861 2.564,14.683 -5.019,-1.921 -7.103,-5.554 -6.393,-10.855 z"
         id="path33"
         inkscape:connector-curvature="0" /><path
         style="clip-rule:evenodd;fill:#d2773c;fill-rule:evenodd"
         d="m 65.429,86.144 c 2.649,-0.098 3.926,1.18 3.829,3.828 1.69,5.888 -2.589,8.211 -5.858,11.611 -4.656,-6.578 0.117,-10.753 2.029,-15.439 z"
         id="path35"
         inkscape:connector-curvature="0" /><path
         style="clip-rule:evenodd;fill:#b78682;fill-rule:evenodd"
         d="m 119.029,63.172 c 2.552,0 5.105,0 7.657,0 -0.098,2.649 1.18,3.926 3.828,3.829 -3.447,3.685 -3.447,3.685 -10.254,3.18 -2.371,-1.975 -0.766,-4.68 -1.231,-7.009 z"
         id="path37"
         inkscape:connector-curvature="0" /><path
         style="clip-rule:evenodd;fill:#bf8d71;fill-rule:evenodd"
         d="m 34.8,63.172 c 5.941,-0.615 9.987,1.611 11.486,7.657 -3.507,0 -7.017,0 -11.486,0 0,-3.135 0,-5.396 0,-7.657 z"
         id="path39"
         inkscape:connector-curvature="0" /><path
         style="clip-rule:evenodd;fill:#bf8d71;fill-rule:evenodd"
         d="m 23.314,63.172 c 2.552,0 5.105,0 7.657,0 0,1.885 0,3.769 0,6.042 -4.175,1.18 -8.684,4.855 -11.485,-2.213 2.649,0.097 3.926,-1.18 3.828,-3.829 z"
         id="path41"
         inkscape:connector-curvature="0" /><path
         style="clip-rule:evenodd;fill:#9a6836;fill-rule:evenodd"
         d="m 34.8,40.2 c -2.722,-0.557 -7.513,1.772 -7.423,-2.971 0.117,-6.162 -5.616,-3.465 -7.471,-6.168 0.589,-4.394 5.839,-0.65 6.999,-4.025 -1.121,-3.793 -5.999,-0.691 -7.349,-3.974 1.349,-2.768 4.429,-1.396 6.514,-2.791 2.204,-4.018 0.689,-8.44 0.983,-12.713 -3.111,-3.785 -6.904,-0.397 -9.609,-2.022 -6.222,9.16 5.081,6.023 5.449,10.278 -2.568,2.94 -5.991,0.685 -9.119,1.513 -3.501,-4.39 -1.613,-9.317 -1.54,-14.735 5.601,0 11.157,0 17.733,0 0.73,0.472 1.047,2.159 1.03,4.126 -0.063,7.608 -0.133,15.221 0.047,22.825 0.046,1.961 1.354,3.437 3.755,3.001 2.241,2.551 2.241,5.105 10e-4,7.656 z"
         id="path43"
         inkscape:connector-curvature="0" /><path
         style="clip-rule:evenodd;fill:#db8643;fill-rule:evenodd"
         d="m 34.8,40.2 c 0,-2.551 0,-5.105 0,-7.656 4.397,0 8.794,0 13.607,0 4.393,5.055 -1.65,13.332 5.154,17.591 -2.241,2.692 -4.946,1.086 -7.275,1.552 0,-3.511 0,-7.021 0,-11.486 C 41.821,40.2 38.311,40.2 34.8,40.2 Z"
         id="path45"
         inkscape:connector-curvature="0" /><path
         style="clip-rule:evenodd;fill:#fefefd;fill-rule:evenodd"
         d="m 96.058,40.2 c 3.593,-0.274 4.042,2.186 3.754,4.754 -0.213,1.913 -1.421,3.338 -3.754,2.904 0,-2.552 0,-5.105 0,-7.658 z"
         id="path47"
         inkscape:connector-curvature="0" /><path
         style="clip-rule:evenodd;fill:#fefefd;fill-rule:evenodd"
         d="m 86.486,51.666 c -1.783,-1.257 -1.783,-2.531 0,-3.788 1.784,1.257 1.784,2.531 0,3.788 z"
         id="path49"
         inkscape:connector-curvature="0" /><path
         style="clip-rule:evenodd;fill:#9a6836;fill-rule:evenodd"
         d="m 116.735,39.608 c 2.722,-0.557 7.513,1.772 7.423,-2.971 -0.117,-6.162 5.616,-3.465 7.471,-6.168 -0.589,-4.394 -5.839,-0.65 -6.999,-4.025 1.121,-3.793 5.999,-0.691 7.349,-3.974 -1.349,-2.768 -4.429,-1.396 -6.514,-2.791 -2.204,-4.018 -0.689,-8.44 -0.983,-12.713 3.111,-3.785 6.904,-0.397 9.609,-2.022 6.222,9.16 -5.081,6.023 -5.449,10.278 2.568,2.94 5.991,0.685 9.119,1.513 3.501,-4.39 1.613,-9.317 1.54,-14.735 -5.601,0 -11.157,0 -17.733,0 -0.73,0.472 -1.047,2.159 -1.03,4.126 0.063,7.608 0.133,15.221 -0.047,22.825 -0.046,1.961 -1.354,3.437 -3.755,3.001 -2.241,2.551 -2.241,5.106 -0.001,7.656 z"
         id="path51"
         inkscape:connector-curvature="0" /><path
         style="clip-rule:evenodd;fill:#db8643;fill-rule:evenodd"
         d="m 116.735,39.608 c 0,-2.551 0,-5.105 0,-7.656 -4.397,0 -8.794,0 -13.607,0 -4.393,5.055 1.65,13.332 -5.154,17.591 2.241,2.692 4.946,1.086 7.275,1.552 0,-3.511 0,-7.021 0,-11.486 4.465,-0.001 7.976,-0.001 11.486,-0.001 z"
         id="path53"
         inkscape:connector-curvature="0" /></g><polygon
       style="clip-rule:evenodd;fill:#332121;fill-rule:evenodd"
       points="80.607,92 88.441,84.167 88.441,57.627 92.275,55.515 86.486,54.399 83.125,52.751 88.275,51.154 96.275,40.294 103.275,29.667 103.275,18.667 92.607,31.952 80.941,38 76.25,35.251 77.5,27.751 86.486,13.173 100.255,7.95 82.588,4.209 68.941,10.667 59.833,23.667 57.941,39.703 57.941,51.746 61.608,65.059 61.608,83.667 68.941,92 "
       id="polygon55" /><circle
       style="clip-rule:evenodd;fill:#d71f27;fill-rule:evenodd"
       cx="84.049004"
       cy="43.991001"
       r="2.438"
       id="circle57" /></g><g
     id="Layer_1" /></svg>