<?xml version="1.0" encoding="UTF-8" standalone="no"?>
<svg
   xmlns:dc="http://purl.org/dc/elements/1.1/"
   xmlns:cc="http://creativecommons.org/ns#"
   xmlns:rdf="http://www.w3.org/1999/02/22-rdf-syntax-ns#"
   xmlns:svg="http://www.w3.org/2000/svg"
   xmlns="http://www.w3.org/2000/svg"
   xmlns:sodipodi="http://sodipodi.sourceforge.net/DTD/sodipodi-0.dtd"
   xmlns:inkscape="http://www.inkscape.org/namespaces/inkscape"
   width="150"
   height="150"
   viewBox="0 0 150 150"
   id="svg2"
   version="1.1"
   inkscape:version="0.91 r13725"
   sodipodi:docname="Larinoth.svg">
  <metadata
     id="metadata58">
    <rdf:RDF>
      <cc:Work
         rdf:about="">
        <dc:format>image/svg+xml</dc:format>
        <dc:type
           rdf:resource="http://purl.org/dc/dcmitype/StillImage" />
        <dc:title></dc:title>
      </cc:Work>
    </rdf:RDF>
  </metadata>
  <defs
     id="defs56" />
  <sodipodi:namedview
     pagecolor="#ffffff"
     bordercolor="#666666"
     borderopacity="1"
     objecttolerance="10"
     gridtolerance="10"
     guidetolerance="10"
     inkscape:pageopacity="0"
     inkscape:pageshadow="2"
     inkscape:window-width="1044"
     inkscape:window-height="811"
     id="namedview54"
     showgrid="false"
     inkscape:zoom="1.5733333"
     inkscape:cx="69.746863"
     inkscape:cy="80.409856"
     inkscape:window-x="0"
     inkscape:window-y="0"
     inkscape:window-maximized="0"
     inkscape:current-layer="svg2" />
  <g
     id="g4186"
     inkscape:export-xdpi="103.19"
     inkscape:export-ydpi="103.19">
    <path
       id="path4"
       d="M55.75 64.667h7.833V53h15l4.167 3.833h49.832l7.834 4v25.833L129 86.25v-9.832l-46.084-.084-4 3.5h-15.5V68.5H55.75"
       fill="#332121" />
    <path
       id="path6"
       d="M59.416 80V53h-11.5l7.834 7.167v12.166l-7.834 7.833m38.666-23L74.75 66.834l11.666 9.335-5.834-9.5m21.568 0l3.6-9.5L99.998 65l-5.75-7.83 3.6 9.5-3.498 9.5 5.648-7.535 5.65 7.534m15.834-9.5l3.6-9.5-5.75 7.83-5.75-7.83 3.6 9.5-3.5 9.5 5.65-7.536 5.65 7.534m15.268-15l.166 19.52-3.834 3.31-7.666.5v-8l5.834-2.167 1.832-3.832"
       fill="#A63" />
    <path
       id="path8"
       d="M63.595 126.678h42.07l5.67-22.073-65.42-11.855-2.582-4.27v15.29h5"
       fill="#999B78" />
    <path
       id="path10"
       d="M130.082 24.167l2.584-6-3.332-5.5L115.25 8.75l-11.75 2.584-5.666 3.958-5.417-.04-5.5-2.67L78.334 8l2.416 8.167 5.666 4.5h11.666l3.668 3.5m31.166 60h-85l-23.038-18.7.04-16.134 11.332-11.5h46.5l7.832 11.5 42 .167V34l-7.75-7.75h-15.75l-23-.25-7.5-3.5H28.75l-16 19.333.333 69.333 11.667 7.668.06-24.332 3.773 8.83.167 27-4.167 4.168.167 7.5h23v-23h7.833l5.084 7.666h9.416l35.5-15.666 2-3.5 2 3.332v19.98l-3.667 3.688v7.5h23v-23.168l11.5-4V80.166"
       fill="#DCAA27" />
    <path
       id="path12"
       d="M130.082 26.167l2.334-7.5-7.334-3.834-9.832-2.5-9.668 2.5-6.332 2.834-8.668-.834-4-2L78.916 10l1.834 8.167 5.666 4.5h11.666l3.668 3.5"
       fill="#438A40" />
    <path
       id="path14"
       d="M35.75 49.604l3.917-4.333h38l5.583-7.58H32l-7.25 8.25v57.834l5-21.332 6-7.166"
       fill="#999B78" />
    <path
       id="path16"
       d="M67.25 88h7.667v7.668H67.25zm-23 0h7.667v7.668H44.25zm46.166 0h7.668v7.668h-7.668zm23.168 0h7.668v7.668h-7.668zm-57.667 7.834h7.667v7.666h-7.667zm23 0h7.667v7.666h-7.668zm23.167 0h7.668v7.666h-7.668z"
       fill="#886728" />
    <path
       id="path18"
       d="M72.918 26.833l5.754-8h-11.51m-13.244 8l5.754-8h-11.51m-13.912 8l5.755-8h-11.51m-6.75 15.33l-1.587-9.726-8.138 8.138m5.564 15.092l-8-5.754v11.51m8 13.244l-8-5.753v11.508m8 13.912l-8-5.754v11.508m8 13.414l-8-5.754v11.508"
       fill="#23211F" />
    <path
       id="path20"
       d="M73.084 30.667l5.754-8h-11.51m-13.244 8l5.755-8H48.33m-13.913 8l5.755-8h-11.51m-4.25 14.495l-1.588-9.726-8.137 8.14m6.563 12.09l-8-5.754v11.51m8 13.245l-8-5.754V72.42m8 13.914l-8-5.754v11.508m8 13.414l-8-5.754v11.508"
       fill="#886728" />
    <path
       id="path22"
       d="M109.562 122.928h19.342v3.832h-19.342z"
       fill="#999B78" />
    <path
       id="path24"
       d="M109.562 126.762h19.342v3.832h-19.342z"
       fill="#DDDECC" />
    <path
       id="path26"
       d="M105.926 130.594h22.98v3.834h-22.98z"
       fill="#999B78" />
    <path
       id="path28"
       d="M111.41 142l-7.555-7.56-7.558 7.56m17.267-7.875v7.865h7.866"
       fill="#8A3523" />
    <path
       id="path30"
       d="M28.396 122.928h19.342v3.832H28.396z"
       fill="#999B78" />
    <path
       id="path32"
       d="M28.396 126.762h19.342v3.832H28.396z"
       fill="#DDDECC" />
    <path
       id="path34"
       d="M24.76 130.594h22.978v3.834h-22.98z"
       fill="#999B78" />
    <path
       id="path36"
       d="M30.243 142l-7.555-7.56L15.13 142m17.267-7.875v7.865h7.866"
       fill="#8A3523" />
    <circle
       id="circle38"
       fill="#FFF"
       r="5.916"
       cy="32.084"
       cx="104.166" />
    <path
       id="path40"
       d="M101.916 15h3.834v3.834h-3.834z"
       fill="#332121" />
    <path
       id="path42"
       d="M102 30.25h3.834v3.833H102z"
       fill="#CD2029" />
    <path
       id="path44"
       d="M113.666 15h3.834v3.834h-3.834zm11.5 0H129v3.834h-3.834z"
       fill="#332121" />
    <path
       id="path46"
       d="M105.75 41.667h7.832V45.5h-7.832z"
       fill="#999B78" />
    <path
       id="path48"
       d="M124.75 41.667h7.834V45.5h-7.834z"
       fill="#DDDECC" />
    <path
       id="path50"
       d="M121.084 41.667h7.832V45.5h-7.832z"
       fill="#999B78" />
    <path
       id="path52"
       d="M113.584 41.667h7.832V45.5h-7.832z"
       fill="#DDDECC" />
  </g>
</svg>
