<?xml version="1.0" encoding="UTF-8" standalone="no"?>
<!-- Generator: Adobe Illustrator 16.0.3, SVG Export Plug-In . SVG Version: 6.00 Build 0)  -->

<svg
   xmlns:dc="http://purl.org/dc/elements/1.1/"
   xmlns:cc="http://creativecommons.org/ns#"
   xmlns:rdf="http://www.w3.org/1999/02/22-rdf-syntax-ns#"
   xmlns:svg="http://www.w3.org/2000/svg"
   xmlns="http://www.w3.org/2000/svg"
   xmlns:sodipodi="http://sodipodi.sourceforge.net/DTD/sodipodi-0.dtd"
   xmlns:inkscape="http://www.inkscape.org/namespaces/inkscape"
   version="1.1"
   x="0px"
   y="0px"
   width="146.133px"
   height="142.754px"
   viewBox="0 0 146.133 142.754"
   style="enable-background:new 0 0 146.133 142.754;"
   xml:space="preserve"
   id="svg2"
   inkscape:version="0.91 r13725"
   sodipodi:docname="Ludroth.svg"><metadata
     id="metadata84"><rdf:RDF><cc:Work
         rdf:about=""><dc:format>image/svg+xml</dc:format><dc:type
           rdf:resource="http://purl.org/dc/dcmitype/StillImage" /><dc:title></dc:title></cc:Work></rdf:RDF></metadata><defs
     id="defs82" /><sodipodi:namedview
     pagecolor="#ffffff"
     bordercolor="#666666"
     borderopacity="1"
     objecttolerance="10"
     gridtolerance="10"
     guidetolerance="10"
     inkscape:pageopacity="0"
     inkscape:pageshadow="2"
     inkscape:window-width="1125"
     inkscape:window-height="716"
     id="namedview80"
     showgrid="false"
     inkscape:zoom="1.6531936"
     inkscape:cx="73.066498"
     inkscape:cy="71.376999"
     inkscape:window-x="0"
     inkscape:window-y="0"
     inkscape:window-maximized="0"
     inkscape:current-layer="svg2" /><g
     id="g3486"><polygon
       style="fill:#887832"
       points="92.096,120.471 87.639,125.206 67.027,125.206 67.027,105.151 41.957,102.96 41.957,95.958 92.096,95.958 "
       id="polygon7" /><polygon
       style="fill:#887832"
       points="101.008,70.89 88.197,70.89 85.412,76.739 79.422,78.968 79.422,83.425 71.205,91.503 66.191,91.503 66.191,70.89 71.205,66.712 104.908,66.712 104.908,79.106 92.096,78.968 101.008,74.789 "
       id="polygon9" /><polygon
       style="fill:#887832"
       points="124.25,7.211 117.25,7.211 117.25,12.674 107.416,12.674 107.416,7.211 100.416,7.211 100.416,12.674 90.75,12.674 90.75,7.211 83.75,7.211 83.75,12.674 83.74,12.674 70.09,16.852 71.833,9.877 63.684,12.674 59.506,16.852 50.593,25.766 41.833,30.544 41.836,49.042 46.414,53.62 79.422,53.62 88.475,45.821 98.502,29.108 120.229,29.108 124.686,33.007 124.686,53.899 108.809,66.99 108.809,120.471 100.174,129.385 63.406,129.385 54.771,125.484 37.779,120.749 37.779,87.603 16.888,66.712 16.888,48.328 23.853,40.807 34.159,40.807 29.423,33.286 17.445,33.286 12.71,37.464 12.71,133.562 104.908,133.562 120.785,128.827 129.42,120.749 133.6,107.937 133.6,66.433 137.777,66.433 146.133,57.52 146.133,25.487 141.955,12.674 124.25,12.674 "
       id="polygon11" /><polygon
       style="fill:#433418"
       points="67.027,58.564 60.341,64.971 54.631,71.238 54.631,75.555 63.267,75.555 63.267,79.455 58.531,83.354 67.027,87.672 67.027,75.555 71.135,71.447 75.662,66.92 104.908,67.06 100.312,58.564 "
       id="polygon13" /><polygon
       style="fill:#433418"
       points="68.063,91.53 76.002,84.149 83.383,91.53 "
       id="polygon15" /><polygon
       style="fill:#433418"
       points="108.809,120.471 100.174,129.385 92.096,129.385 92.096,125.206 96.691,125.206 96.691,95.958 88.057,91.503 88.057,83.425 108.809,83.425 "
       id="polygon17" /><polygon
       style="fill:#433418"
       points="78.307,0.976 79.422,5.292 75.473,11.978 63.833,12.544 65.333,7.211 "
       id="polygon19" /><polygon
       style="fill:#433418"
       points="89.311,0 96.83,0 96.135,4.039 92.096,8.078 83.74,8.078 83.74,3.343 "
       id="polygon21" /><polygon
       style="fill:#433418"
       points="112.848,0 112.848,3.064 108.391,8.078 100.451,8.078 100.451,3.064 104.908,0 "
       id="polygon23" /><polygon
       style="fill:#433418"
       points="129.977,8.078 117.305,8.078 117.305,4.039 121.482,0 133.738,0 "
       id="polygon25" /><polygon
       style="fill:#433418"
       points="146.133,4.039 146.133,8.078 142.373,12.674 133.738,12.674 133.738,8.078 138.055,4.039 "
       id="polygon27" /><polygon
       style="fill:#ab9a44"
       points="21.136,110.377 21.136,103.71 33.462,112.95 33.462,108.214 21.136,99.581 21.136,92.96 33.462,101.809 33.462,95.958 21.136,86.487 21.136,81.043 33.462,90.806 37.779,90.806 37.779,112.95 41.957,120.749 33.462,120.749 "
       id="polygon29" /><polygon
       style="fill:#433418"
       points="79.074,129.732 92.096,129.385 92.096,142.754 "
       id="polygon31" /><polygon
       style="fill:#433418"
       points="75.473,129.732 62.451,129.385 62.451,142.754 "
       id="polygon33" /><polygon
       style="fill:#433418"
       points="59.457,129.732 46.435,129.385 46.435,142.754 "
       id="polygon35" /><polygon
       style="fill:#433418"
       points="43.162,129.732 30.139,129.385 30.139,142.754 "
       id="polygon37" /><polygon
       style="fill:#433418"
       points="3.867,124.888 16.917,125.206 16.917,112.95 "
       id="polygon39" /><polygon
       style="fill:#433418"
       points="3.867,107.896 16.917,108.214 16.917,95.958 "
       id="polygon41" /><polygon
       style="fill:#433418"
       points="3.867,91.045 16.917,91.362 16.917,79.106 "
       id="polygon43" /><polygon
       style="fill:#433418"
       points="3.867,75.445 16.917,75.765 16.917,63.509 "
       id="polygon45" /><polygon
       style="fill:#433418"
       points="3.867,57.201 16.917,57.52 16.917,45.264 "
       id="polygon47" /><polygon
       style="fill:#433418"
       points="60.898,95.958 37.779,95.958 37.779,87.603 54.631,87.603 "
       id="polygon49" /><polygon
       style="fill:#433418"
       points="54.201,104.036 37.779,104.036 37.779,100.137 49.75,100.137 "
       id="polygon51" /><polygon
       style="fill:#433418"
       points="54.631,122.169 54.631,126.067 43.162,126.067 38.333,121.486 33.462,117.571 33.462,113.533 43.162,113.533 "
       id="polygon53" /><polygon
       style="fill:#433418"
       points="59.228,24.791 63.583,20.793 71.135,20.751 73.433,24.791 71.901,28.83 62.848,29.944 56.581,33.147 47.808,37.325 41.957,37.325 41.957,33.982 51.707,29.247 "
       id="polygon55" /><polygon
       style="fill:#dcbb26"
       points="133.6,61.698 133.738,35.793 127.541,29.039 76.333,29.043 73.208,24.419 129.838,24.373 137.986,33.286 137.986,66.433 133.6,66.433 133.6,101.809 133.6,113.229 127.541,128.827 120.785,128.827 120.785,72.377 "
       id="polygon57" /><polygon
       style="fill:#433418"
       points="59.367,41.921 63.406,37.325 67.166,37.325 67.166,41.643 58.81,48.328 55.049,49.999 41.833,49.211 41.957,45.96 52.821,45.96 "
       id="polygon59" /><polygon
       style="fill:#2bb4d2"
       points="66.709,32.127 60.417,31.293 64.062,27.879 67.684,26.417 68.938,29.342 "
       id="polygon61" /><polygon
       style="fill:#433418"
       points="146.133,83.425 137.777,81.057 133.6,77.993 133.6,66.433 137.777,66.433 146.133,75.068 "
       id="polygon63" /><polygon
       style="fill:#433418"
       points="146.133,100.137 138.195,95.958 133.6,95.958 133.6,83.425 146.133,92.338 "
       id="polygon65" /><polygon
       style="fill:#433418"
       points="146.133,124.648 134.852,120.471 129.838,116.433 129.838,108.493 133.6,101.809 142.094,108.771 "
       id="polygon67" /><polygon
       style="fill:#433418"
       points="133.6,137.74 121.482,132.866 121.482,125.206 125.521,120.749 129.42,120.749 133.6,129.385 "
       id="polygon69" /><polygon
       style="fill:#433418"
       points="104.908,133.562 117.025,129.385 117.025,142.754 "
       id="polygon71" /><polygon
       style="fill:#dcbb26"
       points="83.74,12.674 133.738,12.674 146.133,24.373 146.133,57.52 141.764,62.18 141.955,51.392 141.955,29.039 132.797,19.882 104.908,19.882 98.433,16.852 86.215,16.852 72.5,20.751 62.938,20.689 54.562,21.814 57.695,18.663 71.135,16.533 "
       id="polygon73" /><polygon
       style="fill:#433418"
       points="63.617,124.648 67.357,124.648 67.357,108.214 79.75,108.214 84,112.378 79.75,116.545 74.415,112.95 72.278,116.756 76.64,120.749 84,120.749 87.833,115.711 87.833,108.545 84,104.036 59.745,104.036 63.617,108.214 "
       id="polygon75" /><polygon
       style="fill:#433418"
       points="108.833,54.177 108.833,68.043 124.686,53.899 124.686,29.108 99.164,29.108 92.25,29.108 104.908,19.917 102.68,16.852 85.549,16.852 75.5,19.986 94.881,19.986 92.096,29.044 97.5,29.002 92.096,37.743 88.475,45.821 116.887,45.821 "
       id="polygon77" /></g><g
     id="Layer_1" /></svg>