<?xml version="1.0" encoding="UTF-8" standalone="no"?>
<!-- Generator: Adobe Illustrator 16.0.3, SVG Export Plug-In . SVG Version: 6.00 Build 0)  -->

<svg
   xmlns:dc="http://purl.org/dc/elements/1.1/"
   xmlns:cc="http://creativecommons.org/ns#"
   xmlns:rdf="http://www.w3.org/1999/02/22-rdf-syntax-ns#"
   xmlns:svg="http://www.w3.org/2000/svg"
   xmlns="http://www.w3.org/2000/svg"
   xmlns:sodipodi="http://sodipodi.sourceforge.net/DTD/sodipodi-0.dtd"
   xmlns:inkscape="http://www.inkscape.org/namespaces/inkscape"
   version="1.1"
   x="0px"
   y="0px"
   width="143.854px"
   height="149.999px"
   viewBox="0 0 143.854 149.999"
   style="enable-background:new 0 0 143.854 149.999;"
   xml:space="preserve"
   id="svg2"
   inkscape:version="0.91 r13725"
   sodipodi:docname="Maccao.svg"><metadata
     id="metadata72"><rdf:RDF><cc:Work
         rdf:about=""><dc:format>image/svg+xml</dc:format><dc:type
           rdf:resource="http://purl.org/dc/dcmitype/StillImage" /><dc:title></dc:title></cc:Work></rdf:RDF></metadata><defs
     id="defs70" /><sodipodi:namedview
     pagecolor="#ffffff"
     bordercolor="#666666"
     borderopacity="1"
     objecttolerance="10"
     gridtolerance="10"
     guidetolerance="10"
     inkscape:pageopacity="0"
     inkscape:pageshadow="2"
     inkscape:window-width="690"
     inkscape:window-height="480"
     id="namedview68"
     showgrid="false"
     inkscape:zoom="0.78667195"
     inkscape:cx="-0.067174604"
     inkscape:cy="87.449336"
     inkscape:window-x="0"
     inkscape:window-y="0"
     inkscape:window-maximized="0"
     inkscape:current-layer="svg2" /><g
     id="g3431"><polygon
       style="clip-rule:evenodd;fill:#ddcd99;fill-rule:evenodd"
       points="78.479,35.426 61.709,38.275 55.396,37.806 52.022,29.556 73.646,29.556 "
       id="polygon7" /><polygon
       style="clip-rule:evenodd;fill:#539b67;fill-rule:evenodd"
       points="140.604,50.25 134.854,50.25 134.854,42.5 126.354,33.5 113.854,25.611 84.854,25.611 65.854,27.25 73.604,38 80.104,38 101.604,39.75 104.51,52.41 116.604,42 126.604,50.25 126.604,53.5 123.354,53.5 117.354,48.5 106.354,58.25 101.604,58.25 91.604,50.25 84.604,50.25 84.854,58.25 94.354,66.5 106.354,66.5 108.104,70.75 106.354,75 101.354,79.25 76.854,79.25 59.854,62.5 52.604,58.25 47.604,58.75 39.104,67 39.104,104.5 43.604,104.5 47.854,99.5 49.354,87.25 55.354,92.5 59.354,102.5 66.854,109.25 69.604,116 122.604,116 131.229,107.375 133.354,104.664 133.354,104.75 143.854,101 143.854,91.5 140.604,97.25 134.854,97.25 134.854,88.964 143.854,85.75 143.854,76.25 140.604,82 134.854,82 134.854,72.714 143.854,69.5 143.854,60 140.604,65.75 134.854,65.75 134.854,57.214 143.854,54 143.854,44.5 "
       id="polygon9" /><polygon
       style="clip-rule:evenodd;fill:#ddcd99;fill-rule:evenodd"
       points="78.75,7 83,8.5 77.5,11.75 69.75,18.75 65.75,24 51.817,25.611 42.25,16.5 58.75,13 "
       id="polygon11" /><polygon
       style="clip-rule:evenodd;fill:#55ac47;fill-rule:evenodd"
       points="118.719,32.343 121.678,32.343 121.678,38.51 115.635,38.51 115.635,35.673 118.719,35.673 "
       id="polygon13" /><polygon
       style="clip-rule:evenodd;fill:#ba4827;fill-rule:evenodd"
       points="19,25.611 30.921,16.5 43.648,16.5 53.331,23.75 58.31,34 58.31,41.5 50.287,49 11.602,48.982 12.109,45.205 37.562,45.25 40.051,40.5 6.023,40.5 6.25,35.667 9.896,33.75 "
       id="polygon15" /><polygon
       style="clip-rule:evenodd;fill:#bd9a65;fill-rule:evenodd"
       points="64.333,117.001 60.667,120.834 48,124.501 39.25,128.501 41.833,133.168 75,133.168 81.667,125.168 122.5,125.168 129,133.168 135,136.668 135,141.168 36,141.168 27.583,132.751 25.833,129.168 31,120.834 43.667,112.501 51.833,107.834 59.833,108.501 64.333,113.168 "
       id="polygon17" /><polygon
       style="clip-rule:evenodd;fill-rule:evenodd"
       points="30.354,92.021 30.354,62.667 25.927,58.24 17,58.24 11.286,63.954 11.286,70.806 15.24,74.76 19.667,74.76 19.5,69.667 21.917,67.251 23.917,69.25 23.917,103.667 29,107.834 34.667,104.834 40,104.5 40,95.834 34.167,95.834 "
       id="polygon19" /><polygon
       style="clip-rule:evenodd;fill-rule:evenodd"
       points="72.667,54.834 71.667,58.24 73,63.667 77,66.667 85.667,66.667 81.333,62 79.5,59.834 81.167,58.459 85.667,58.459 85.667,50.25 77,50.25 "
       id="polygon21" /><polygon
       style="clip-rule:evenodd;fill:#ccdc2a;fill-rule:evenodd"
       points="35.287,23.363 36.95,27.176 36.693,30.762 29.324,30.422 31.593,25.478 "
       id="polygon23" /><polygon
       style="clip-rule:evenodd;fill:#55ac47;fill-rule:evenodd"
       points="51.626,70.834 47.626,70.834 47.626,62.5 55.792,62.5 55.792,66.334 51.626,66.334 "
       id="polygon25" /><g
       id="g27"><polygon
         style="clip-rule:evenodd;fill:#6ebe45;fill-rule:evenodd"
         points="107.729,81.75 111.729,81.75 111.729,90.084 103.562,90.084 103.562,86.25 107.729,86.25 "
         id="polygon29" /><polygon
         style="clip-rule:evenodd;fill:#6ebe45;fill-rule:evenodd"
         points="117.874,59.417 121.874,59.417 121.874,67.75 113.708,67.75 113.708,63.917 117.874,63.917 "
         id="polygon31" /><polygon
         style="clip-rule:evenodd;fill:#6ebe45;fill-rule:evenodd"
         points="126.272,97.582 128.833,97.582 128.833,102.916 123.606,102.916 123.606,100.462 126.272,100.462 "
         id="polygon33" /><polygon
         style="clip-rule:evenodd;fill:#6ebe45;fill-rule:evenodd"
         points="111.812,102.916 115.812,102.916 115.812,111.25 107.646,111.25 107.646,107.416 111.812,107.416 "
         id="polygon35" /><polygon
         style="clip-rule:evenodd;fill:#6ebe45;fill-rule:evenodd"
         points="95.646,98.749 99.646,98.749 99.646,107.083 91.479,107.083 91.479,103.249 95.646,103.249 "
         id="polygon37" /><polygon
         style="clip-rule:evenodd;fill:#6ebe45;fill-rule:evenodd"
         points="82.646,85.917 86.646,85.917 86.646,94.251 78.479,94.251 78.479,90.417 82.646,90.417 "
         id="polygon39" /><polygon
         style="clip-rule:evenodd;fill:#6ebe45;fill-rule:evenodd"
         points="62.083,81 65.043,81 65.043,87.167 59,87.167 59,84.33 62.083,84.33 "
         id="polygon41" /><polygon
         style="clip-rule:evenodd;fill:#6ebe45;fill-rule:evenodd"
         points="124.812,75.583 127.771,75.583 127.771,81.75 121.729,81.75 121.729,78.913 124.812,78.913 "
         id="polygon43" /></g><g
       id="g45"><polygon
         style="clip-rule:evenodd;fill:#ccdc2a;fill-rule:evenodd"
         points="110.166,83 114.166,83 114.166,91.334 106,91.334 106,87.5 110.166,87.5 "
         id="polygon47" /><polygon
         style="clip-rule:evenodd;fill:#ccdc2a;fill-rule:evenodd"
         points="120.312,60.667 124.312,60.667 124.312,69 116.146,69 116.146,65.167 120.312,65.167 "
         id="polygon49" /><polygon
         style="clip-rule:evenodd;fill:#ccdc2a;fill-rule:evenodd"
         points="128.71,98.832 131.271,98.832 131.271,104.166 126.044,104.166 126.044,101.712 128.71,101.712 "
         id="polygon51" /><polygon
         style="clip-rule:evenodd;fill:#ccdc2a;fill-rule:evenodd"
         points="114.249,104.166 118.249,104.166 118.249,112.5 110.083,112.5 110.083,108.666 114.249,108.666 "
         id="polygon53" /><polygon
         style="clip-rule:evenodd;fill:#ccdc2a;fill-rule:evenodd"
         points="98.083,99.999 102.083,99.999 102.083,108.333 93.917,108.333 93.917,104.499 98.083,104.499 "
         id="polygon55" /><polygon
         style="clip-rule:evenodd;fill:#ccdc2a;fill-rule:evenodd"
         points="85.083,87.167 89.083,87.167 89.083,95.501 80.917,95.501 80.917,91.667 85.083,91.667 "
         id="polygon57" /><polygon
         style="clip-rule:evenodd;fill:#ccdc2a;fill-rule:evenodd"
         points="64.521,82.25 67.48,82.25 67.48,88.417 61.438,88.417 61.438,85.58 64.521,85.58 "
         id="polygon59" /><polygon
         style="clip-rule:evenodd;fill:#ccdc2a;fill-rule:evenodd"
         points="127.25,76.833 130.209,76.833 130.209,83 124.166,83 124.166,80.163 127.25,80.163 "
         id="polygon61" /></g><polygon
       style="clip-rule:evenodd;fill:#ccdc2a;fill-rule:evenodd"
       points="120.291,33.916 123.25,33.916 123.25,40.083 117.207,40.083 117.207,37.246 120.291,37.246 "
       id="polygon63" /><polygon
       style="clip-rule:evenodd;fill:#ba4827;fill-rule:evenodd"
       points="107.834,40.583 108.918,45.205 104.655,52.41 101,50.25 96,45.75 94,42.5 81,41.25 77,38 102,38 "
       id="polygon65" /><g
       id="Layer_1" /></g></svg>