<?xml version="1.0" encoding="UTF-8" standalone="no"?>
<!-- Created with Inkscape (http://www.inkscape.org/) -->

<svg
   xmlns:dc="http://purl.org/dc/elements/1.1/"
   xmlns:cc="http://creativecommons.org/ns#"
   xmlns:rdf="http://www.w3.org/1999/02/22-rdf-syntax-ns#"
   xmlns:svg="http://www.w3.org/2000/svg"
   xmlns="http://www.w3.org/2000/svg"
   xmlns:sodipodi="http://sodipodi.sourceforge.net/DTD/sodipodi-0.dtd"
   xmlns:inkscape="http://www.inkscape.org/namespaces/inkscape"
   width="210mm"
   height="297mm"
   viewBox="0 0 744.09448819 1052.3622047"
   id="svg2"
   version="1.1"
   inkscape:version="0.91 r13725"
   sodipodi:docname="Mizutsune.svg">
  <defs
     id="defs4" />
  <sodipodi:namedview
     id="base"
     pagecolor="#ffffff"
     bordercolor="#666666"
     borderopacity="1.0"
     inkscape:pageopacity="0.0"
     inkscape:pageshadow="2"
     inkscape:zoom="0.7"
     inkscape:cx="378.94102"
     inkscape:cy="903.18898"
     inkscape:document-units="px"
     inkscape:current-layer="layer1"
     showgrid="false"
     inkscape:window-width="1680"
     inkscape:window-height="987"
     inkscape:window-x="-8"
     inkscape:window-y="-8"
     inkscape:window-maximized="1" />
  <metadata
     id="metadata7">
    <rdf:RDF>
      <cc:Work
         rdf:about="">
        <dc:format>image/svg+xml</dc:format>
        <dc:type
           rdf:resource="http://purl.org/dc/dcmitype/StillImage" />
        <dc:title></dc:title>
      </cc:Work>
    </rdf:RDF>
  </metadata>
  <g
     inkscape:label="Layer 1"
     inkscape:groupmode="layer"
     id="layer1">
    <g
       id="g4422"
       inkscape:export-xdpi="66.870003"
       inkscape:export-ydpi="66.870003">
      <path
         sodipodi:nodetypes="ccccc"
         inkscape:connector-curvature="0"
         id="path3406-4"
         d="m 651.00626,248.66108 c 0,-0.53571 10e-6,-6.60714 0.35714,-6.69643 0.35715,-0.0893 4.64286,0.89286 4.64286,0.89286 l 0.71429,5.89286 z"
         style="fill:#ccbbaa;fill-opacity:1;fill-rule:evenodd;stroke:none;stroke-width:1px;stroke-linecap:butt;stroke-linejoin:miter;stroke-opacity:1" />
      <path
         sodipodi:nodetypes="ccccccc"
         inkscape:connector-curvature="0"
         id="path3380-3"
         d="m 482.39676,225.07434 32.71664,-0.074 0.53572,23.92857 -5.53572,-0.35714 -14.57261,-13.92486 -7.78843,-5.76132 z"
         style="fill:#cc7788;fill-opacity:1;fill-rule:evenodd;stroke:none;stroke-width:1px;stroke-linecap:butt;stroke-linejoin:miter;stroke-opacity:1" />
      <path
         sodipodi:nodetypes="cccccc"
         inkscape:connector-curvature="0"
         id="path3382-9"
         d="m 490.02412,264.1968 -4.82143,-4.01786 29.55357,0.17857 1.875,26.69643 -20.53571,-17.5 z"
         style="fill:#cc7788;fill-opacity:1;fill-rule:evenodd;stroke:none;stroke-width:1px;stroke-linecap:butt;stroke-linejoin:miter;stroke-opacity:1" />
      <path
         sodipodi:nodetypes="ccccccccccc"
         inkscape:connector-curvature="0"
         id="path3362-9"
         d="m 609.50469,383.59557 40.4061,0.25253 17.67767,-18.43528 6.56599,-12.12183 0.41579,-46.33177 5.55584,5.3033 0.0893,47.08939 -8.83884,13.13198 -15.65736,16.66752 -46.46702,0.25253 z"
         style="fill:#442244;fill-opacity:1;fill-rule:evenodd;stroke:none;stroke-width:1px;stroke-linecap:butt;stroke-linejoin:miter;stroke-opacity:1" />
      <path
         sodipodi:nodetypes="ccccccccccc"
         inkscape:connector-curvature="0"
         id="path3364-5"
         d="m 609.50469,377.78719 0,7.32361 41.92133,-0.75762 17.93021,-19.95051 6.06091,-11.61676 -0.25254,-45.20432 -6.71524,-6.61063 0.40179,47.26927 -24.74874,23.73858 -27.27412,0.75762 z"
         style="fill:#883377;fill-opacity:1;fill-rule:evenodd;stroke:none;stroke-width:1px;stroke-linecap:butt;stroke-linejoin:miter;stroke-opacity:1" />
      <path
         sodipodi:nodetypes="ccccccccccccc"
         inkscape:connector-curvature="0"
         id="path3366-2"
         d="m 609.25215,407.08161 0.25254,-11.36421 39.64848,0 3.53554,12.12183 -4.36549,-0.0538 -6.49365,-6.25965 -13.38452,0.12627 -1.4376,5.25973 -5.00213,0.0436 0.60009,-5.36324 -6.02966,-0.31886 -1.88657,6.30753 z"
         style="fill:#330033;fill-opacity:1;fill-rule:evenodd;stroke:none;stroke-width:1px;stroke-linecap:butt;stroke-linejoin:miter;stroke-opacity:1" />
      <path
         inkscape:connector-curvature="0"
         id="path3368-3"
         d="m 574.65442,407.08161 0.25254,-11.86929 16.16244,0.25254 1.51523,11.86929 -6.81853,0 -1.01015,-5.80838 -5.55584,0 1.51523,5.55584 z"
         style="fill:#330033;fill-rule:evenodd;stroke:none;stroke-width:1px;stroke-linecap:butt;stroke-linejoin:miter;stroke-opacity:1;fill-opacity:1" />
      <path
         sodipodi:nodetypes="cccccc"
         inkscape:connector-curvature="0"
         id="path3384-6"
         d="m 479.93483,295.35751 23.03571,0.53572 0.89286,19.28572 -11.96954,-10.3299 -5.73038,-4.74407 z"
         style="fill:#cc7788;fill-opacity:1;fill-rule:evenodd;stroke:none;stroke-width:1px;stroke-linecap:butt;stroke-linejoin:miter;stroke-opacity:1" />
      <path
         sodipodi:nodetypes="ccccccc"
         inkscape:connector-curvature="0"
         id="path3386-9"
         d="m 480.1134,330.71466 23.03572,0 0.89285,19.46429 -2.14285,0.17857 -9.10715,-8.66071 -7.58928,-6.42857 z"
         style="fill:#cc7788;fill-opacity:1;fill-rule:evenodd;stroke:none;stroke-width:1px;stroke-linecap:butt;stroke-linejoin:miter;stroke-opacity:1" />
      <path
         sodipodi:nodetypes="ccccccc"
         inkscape:connector-curvature="0"
         id="path3388-8"
         d="m 481.12355,360.00038 24.46429,0.17857 -0.17857,19.28571 -3.75,0.71429 -8.125,-7.32143 -5.35715,-5.53571 z"
         style="fill:#cc7788;fill-opacity:1;fill-rule:evenodd;stroke:none;stroke-width:1px;stroke-linecap:butt;stroke-linejoin:miter;stroke-opacity:1" />
      <path
         inkscape:connector-curvature="0"
         id="path3392-3"
         d="m 592.79197,236.0718 -16.25,0.53571 -7.85714,-6.60714 -0.35714,-18.03572 22.32143,0.35715 8.75,6.78571 -0.17858,11.78572 z"
         style="fill:#cc7788;fill-rule:evenodd;stroke:none;stroke-width:1px;stroke-linecap:butt;stroke-linejoin:miter;stroke-opacity:1;fill-opacity:1" />
      <path
         sodipodi:nodetypes="ccccccc"
         inkscape:connector-curvature="0"
         id="path3396-1"
         d="m 580.12423,207.34346 -14.65369,-0.37881 -4.28571,-6.07142 -4.28571,4.46428 6.25,7.5 17.09055,0.39954 z"
         style="fill:#ccbb77;fill-opacity:1;fill-rule:evenodd;stroke:none;stroke-width:1px;stroke-linecap:butt;stroke-linejoin:miter;stroke-opacity:1" />
      <path
         sodipodi:nodetypes="ccccccc"
         inkscape:connector-curvature="0"
         id="path3398-6"
         d="m 580.83945,242.67894 -8.94033,-0.35714 -5.89286,-6.42857 -3.92857,4.46428 6.42857,7.32143 11.70278,1.84884 z"
         style="fill:#ccbb77;fill-opacity:1;fill-rule:evenodd;stroke:none;stroke-width:1px;stroke-linecap:butt;stroke-linejoin:miter;stroke-opacity:1" />
      <path
         inkscape:connector-curvature="0"
         id="path3394-0"
         d="m 574.22054,248.5718 0.53572,10.71428 5.89286,6.42857 22.32142,0.35715 2.14286,4.64285 -13.21428,8.39286 1.07142,4.28572 27.85715,0.17857 0.17857,-17.5 -17.85714,-17.85715 z"
         style="fill:#cc7788;fill-rule:evenodd;stroke:none;stroke-width:1px;stroke-linecap:butt;stroke-linejoin:miter;stroke-opacity:1;fill-opacity:1" />
      <path
         inkscape:connector-curvature="0"
         id="path3358-4"
         d="m 555.47054,395.35752 -33.57142,-0.35714 -11.42858,-13.92857 0.35715,-85.7143 23.21428,-30 0,-38.92857 -24.28571,-19.64286 -31.42857,0 37.32143,37.32143 -35.17858,0 33.125,33.125 -34.19642,0 23.88392,23.88394 0,11.74107 -24.24107,0 23.92857,23.92857 0,12.14286 -22.68921,-6.07956 24.74153,24.74153 0,10.98089 -5.98089,0.71428 -0.35714,8.92858 12.14286,12.5 42.5,0 z"
         style="fill:#442244;fill-rule:evenodd;stroke:none;stroke-width:1px;stroke-linecap:butt;stroke-linejoin:miter;stroke-opacity:1;fill-opacity:1" />
      <path
         sodipodi:nodetypes="ccccc"
         inkscape:connector-curvature="0"
         id="path3408-8"
         d="m 662.30091,248.43787 0.40178,-6.11607 5,0.71428 0.22322,5.66964 z"
         style="fill:#ccbbaa;fill-opacity:1;fill-rule:evenodd;stroke:none;stroke-width:1px;stroke-linecap:butt;stroke-linejoin:miter;stroke-opacity:1" />
      <path
         sodipodi:nodetypes="ccccc"
         inkscape:connector-curvature="0"
         id="path3410-7"
         d="m 674.17591,248.79501 0.58035,-6.38393 5.08929,0.35715 -0.31251,6.02678 z"
         style="fill:#ccbbaa;fill-opacity:1;fill-rule:evenodd;stroke:none;stroke-width:1px;stroke-linecap:butt;stroke-linejoin:miter;stroke-opacity:1" />
      <path
         inkscape:connector-curvature="0"
         id="path3412-7"
         d="m 674.08662,230.13429 6.07142,-0.625 -0.35714,-4.91071 -5.98214,0.0893 0.53571,5.625 z"
         style="fill:#ccbb77;fill-opacity:1;fill-rule:evenodd;stroke:none;stroke-width:1px;stroke-linecap:butt;stroke-linejoin:miter;stroke-opacity:1" />
      <path
         sodipodi:nodetypes="cccccccccccccccccccccccccccccccccccc"
         inkscape:connector-curvature="0"
         id="path3404-8"
         d="m 579.57769,207.3218 0.53571,5.89285 9.28572,-0.17857 8.57142,7.5 -0.17857,9.28572 -8.21428,1.07143 0.17857,4.82142 13.57143,1.07143 0.53571,5.71429 -23.21428,0.17857 -0.71429,6.07143 23.21429,-0.17857 13.21428,13.92857 -1.07143,3.39286 -5.35714,6.07142 -4.46429,0.89286 -0.89285,4.82143 9.82143,-0.53571 1.60714,-12.14286 5.0848,0.91452 2.88778,-4.44076 8.9917,-1.11662 -0.48527,14.28572 12.09242,3.21428 0.53571,-17.85714 24.10714,0 10.53572,-6.25 0.17857,-5.35714 -34.82143,0 0,-11.60715 29.28572,0 0,-12.14285 -51.96429,0.17857 -1.07143,-11.42857 -7.14286,-6.25 z"
         style="fill:#d3d3bd;fill-opacity:1;fill-rule:evenodd;stroke:none;stroke-width:1px;stroke-linecap:butt;stroke-linejoin:miter;stroke-opacity:1" />
      <path
         inkscape:connector-curvature="0"
         id="path3400-6"
         d="m 623.8634,248.21465 -13.92857,-16.25 21.42857,-0.53571 13.03572,16.25 z"
         style="fill:#112244;fill-rule:evenodd;stroke:none;stroke-width:1px;stroke-linecap:butt;stroke-linejoin:miter;stroke-opacity:1;fill-opacity:1" />
      <path
         sodipodi:nodetypes="ccccccc"
         inkscape:connector-curvature="0"
         id="path3402-4"
         d="m 625.89465,239.64322 2.12054,3.34822 7.12053,-0.15625 -4.12946,-5.33482 -6.60714,0 1.07142,1.42857 z"
         style="fill:#33ccff;fill-opacity:1;fill-rule:evenodd;stroke:none;stroke-width:1px;stroke-linecap:butt;stroke-linejoin:miter;stroke-opacity:1" />
      <path
         inkscape:connector-curvature="0"
         id="path3414-3"
         d="m 650.47055,274.10751 4.375,4.91072 7.14285,-7.23215 0.35715,-17.14285 -5.26786,0.0893 -0.53572,14.91072 z"
         style="fill:#cc7788;fill-rule:evenodd;stroke:none;stroke-width:1px;stroke-linecap:butt;stroke-linejoin:miter;stroke-opacity:1;fill-opacity:1" />
      <path
         inkscape:connector-curvature="0"
         id="path3416-0"
         d="m 668.59555,254.55394 -0.26786,15.08929 -5.80357,4.10714 3.57143,4.55357 7.76785,-6.96429 0.35715,-16.78571 z"
         style="fill:#cc7788;fill-rule:evenodd;stroke:none;stroke-width:1px;stroke-linecap:butt;stroke-linejoin:miter;stroke-opacity:1;fill-opacity:1" />
      <g
         style="stroke:none"
         id="g4400">
        <path
           sodipodi:nodetypes="cccccccccccccccccccccccccccccccccccc"
           style="fill:#cc7788;fill-opacity:1;fill-rule:evenodd;stroke:none;stroke-width:1px;stroke-linecap:butt;stroke-linejoin:miter;stroke-opacity:1"
           d="m 527.25626,360.17895 11.60714,0 0.53572,-22.85714 7.5,-11.78572 13.57142,-11.96428 10.53572,-12.14286 9.64286,-4.64287 16.25,-0.89285 10.17857,5.00001 13.21428,18.03571 1.60715,17.14286 11.42857,0.35714 5.71428,-6.60714 0.53572,-22.32143 -6.42857,-6.25 0,-17.67858 -5.53572,-5 0.17857,-8.75 -6.82904,-3.89608 0.75761,-6.10392 11.42858,0.53571 0.17857,14.10714 18.58412,20.88017 0.80992,41.78944 -7.33041,10.28318 -7.74356,7.70023 -10.71429,5.64032 -8.81499,1.71547 -6.47562,-18.73206 -13.70667,-9.51286 -29.14303,-1.87238 -15.9885,15.93247 -1.1977,17.21683 -6.67213,6.63778 -17.32143,-0.35715 z"
           id="path3378-4"
           inkscape:connector-curvature="0" />
        <path
           style="fill:#cc7788;fill-rule:evenodd;stroke:none;stroke-width:1px;stroke-linecap:butt;stroke-linejoin:miter;stroke-opacity:1;fill-opacity:1"
           d="m 621.00626,295.89323 c 0.0893,0.35714 1.07143,5.35715 1.07143,5.35715 l 13.48214,-0.26786 -0.17857,-5.71429 z"
           id="path3418-7"
           inkscape:connector-curvature="0" />
        <path
           style="fill:#cc7788;fill-rule:evenodd;stroke:none;stroke-width:1px;stroke-linecap:butt;stroke-linejoin:miter;stroke-opacity:1;fill-opacity:1"
           d="m 627.25626,313.03609 0.0893,6.16072 13.57143,-0.26786 -0.17857,-5.98214 z"
           id="path3420-2"
           inkscape:connector-curvature="0" />
      </g>
      <path
         inkscape:connector-curvature="0"
         id="path3370-8"
         d="m 586.01864,295.45975 -29.54696,-0.25254 -2.02031,5.80839 31.31473,0.75761 z"
         style="fill:#ccbb77;fill-rule:evenodd;stroke:none;stroke-width:1px;stroke-linecap:butt;stroke-linejoin:miter;stroke-opacity:1;fill-opacity:1" />
      <path
         inkscape:connector-curvature="0"
         id="path3422-5"
         d="m 544.09731,372.35762 6.69226,-7.82868 0.63135,-17.1726 15.78363,-16.79378 33.20876,0.63134 13.8896,11.8693 3.78807,17.29886 7.19734,-0.25254 11.74302,-6.56599 14.14214,-17.5514 -0.63135,-40.27985 -17.04632,-21.08693 0.75761,-1.51523 9.72272,3.15673 24.62247,24.74875 1.51523,10.73287 -0.25254,38.00699 -25.50635,24.74873 -23.86485,7.19734 0.88388,16.03617 -10.10153,3.53554 -13.00571,0 -0.63135,-17.67767 -29.54696,0.12627 0.37881,11.61675 7.32361,0.37881 0.63134,5.6821 -20.58186,-0.12626 z"
         style="fill:#d3d3bd;fill-rule:evenodd;stroke:none;stroke-width:1px;stroke-linecap:butt;stroke-linejoin:miter;stroke-opacity:1;fill-opacity:1" />
      <path
         inkscape:connector-curvature="0"
         id="path3372-8"
         d="m 573.89681,307.58159 -28.03173,0 -2.52538,5.80837 30.05203,0 z"
         style="fill:#ccbb77;fill-rule:evenodd;stroke:none;stroke-width:1px;stroke-linecap:butt;stroke-linejoin:miter;stroke-opacity:1;fill-opacity:1" />
      <path
         sodipodi:nodetypes="cccccccccccccccc"
         inkscape:connector-curvature="0"
         id="path3376-6"
         d="m 508.7786,206.86902 29.72766,0.45278 6.42857,7.67857 0.17857,57.32143 -28.21428,30.17858 -1.07143,66.78571 11.96428,14.64286 22.45535,0.17858 6.29465,5.71428 -0.66964,7.09822 -35.9375,-1.20537 -11.42857,-15 0.71428,-87.14286 23.57143,-28.39286 0.17857,-38.39286 z"
         style="fill:#883377;fill-opacity:1;fill-rule:evenodd;stroke:none;stroke-width:1px;stroke-linecap:butt;stroke-linejoin:miter;stroke-opacity:1" />
      <path
         inkscape:connector-curvature="0"
         id="path3374-8"
         d="m 562.28006,318.9458 -28.03174,0.50508 -2.27284,5.80838 30.05204,-0.50508 z"
         style="fill:#ccbb77;fill-rule:evenodd;stroke:none;stroke-width:1px;stroke-linecap:butt;stroke-linejoin:miter;stroke-opacity:1;fill-opacity:1" />
      <path
         sodipodi:nodetypes="cccsccccccccccccccccccccccccc"
         inkscape:connector-curvature="0"
         id="path4405-9"
         d="m 549.9422,384.39522 6.78571,-6.60714 0.35715,-26.25 c 0,0 5,-8.39286 7.67857,-8.39286 2.67857,0 21.60714,0.71428 21.60714,0.71428 l 11.60714,11.42858 -0.53571,28.39285 -11.07143,0 -0.71428,-5.17857 6.60714,-2.67857 -0.35714,-19.64286 -7.5,-7.14285 -16.07143,0 -6.25,6.60714 0.71428,16.78571 16.96429,0.53572 1.25,-2.67857 -1.25,-7.85715 -3.92857,-1.78571 -1.96429,4.82143 -5.53571,0.71428 4.10714,-10.89285 10.35714,0.35714 3.03572,5 0,12.5 -3.03572,5.53571 -19.10714,-0.53571 -7.61358,13.78436 z"
         style="fill:#883377;fill-opacity:1;fill-rule:evenodd;stroke:none;stroke-width:1px;stroke-linecap:butt;stroke-linejoin:miter;stroke-opacity:1" />
      <path
         sodipodi:nodetypes="cccccccccccccc"
         inkscape:connector-curvature="0"
         id="path3390-1"
         d="m 537.72884,207.3416 6.4917,-0.0198 12.76786,15.89285 -0.44643,55 -29.10714,31.9643 0.35714,61.25 16.60715,0.17857 5.80357,12.67858 -24.55357,1.60714 -11.96429,-15.89286 1.60714,-69.28572 27.5,-29.46429 0.53572,-55.53572 z"
         style="fill:#d3d3bd;fill-opacity:1;fill-rule:evenodd;stroke:none;stroke-width:1px;stroke-linecap:butt;stroke-linejoin:miter;stroke-opacity:1" />
    </g>
  </g>
</svg>
