<?xml version="1.0" encoding="UTF-8" standalone="no"?>
<!-- Generator: Adobe Illustrator 16.0.3, SVG Export Plug-In . SVG Version: 6.00 Build 0)  -->

<svg
   xmlns:dc="http://purl.org/dc/elements/1.1/"
   xmlns:cc="http://creativecommons.org/ns#"
   xmlns:rdf="http://www.w3.org/1999/02/22-rdf-syntax-ns#"
   xmlns:svg="http://www.w3.org/2000/svg"
   xmlns="http://www.w3.org/2000/svg"
   xmlns:sodipodi="http://sodipodi.sourceforge.net/DTD/sodipodi-0.dtd"
   xmlns:inkscape="http://www.inkscape.org/namespaces/inkscape"
   version="1.1"
   x="0px"
   y="0px"
   width="134.375px"
   height="130.707px"
   viewBox="0 0 134.375 130.707"
   style="enable-background:new 0 0 134.375 130.707;"
   xml:space="preserve"
   id="svg2"
   inkscape:version="0.91 r13725"
   sodipodi:docname="Moofah.svg"><metadata
     id="metadata56"><rdf:RDF><cc:Work
         rdf:about=""><dc:format>image/svg+xml</dc:format><dc:type
           rdf:resource="http://purl.org/dc/dcmitype/StillImage" /><dc:title></dc:title></cc:Work></rdf:RDF></metadata><defs
     id="defs54" /><sodipodi:namedview
     pagecolor="#ffffff"
     bordercolor="#666666"
     borderopacity="1"
     objecttolerance="10"
     gridtolerance="10"
     guidetolerance="10"
     inkscape:pageopacity="0"
     inkscape:pageshadow="2"
     inkscape:window-width="1164"
     inkscape:window-height="765"
     id="namedview52"
     showgrid="false"
     inkscape:zoom="2.5534547"
     inkscape:cx="-8.3861123"
     inkscape:cy="62.621667"
     inkscape:window-x="0"
     inkscape:window-y="0"
     inkscape:window-maximized="0"
     inkscape:current-layer="svg2" /><g
     id="moofah"><polygon
       style="fill:#DDDFBB;"
       points="12.625,73.082 12.625,51.582 16.375,50.082 12.625,44.832 12.625,35.582 8.625,25.082    16.375,15.832 44.625,15.832 44.625,32.832 51.375,44.457 62.875,51.582 76.625,55.082 114.625,55.082 122.625,59.332    130.5,67.082 130.5,81.582 15.125,81.582  "
       id="polygon5" /><polygon
       style="fill:#BBBC99;"
       points="12.625,71.082 20.625,78.332 122.625,78.332 130.5,70.457 130.5,106.332 127.875,110.582    115.625,113.832 37.375,113.832 29.125,109.832 17.125,97.832 12.625,90.582  "
       id="polygon7" /><polygon
       style="fill:#686652;"
       points="108.403,39.156 111.083,36.756 123.659,35.332 131.371,39.603 133.625,45.773    128.167,54.552 116.303,55.264 117.252,49.213 117.625,38.332  "
       id="polygon9" /><polygon
       style="fill:#DDDFBB;"
       points="102.125,42.832 110.625,31.832 123.875,30.332 132,34.832 134.375,41.332 128.625,50.582    116.125,51.332 117.125,44.957 114.375,43.332  "
       id="polygon11" /><polygon
       style="fill:#886728;"
       points="39.637,60.07 25.5,74.207 53.625,74.207  "
       id="polygon13" /><g
       id="g15"><polygon
         style="fill:#886728;"
         points="39.637,60.32 25.5,74.457 53.625,74.457   "
         id="polygon17" /><polygon
         style="fill:#886728;"
         points="71.637,60.32 57.5,74.457 85.625,74.457   "
         id="polygon19" /><polygon
         style="fill:#886728;"
         points="104.262,60.32 90.125,74.457 118.25,74.457   "
         id="polygon21" /><polygon
         style="fill:#886728;"
         points="39.637,81.582 25.5,95.719 53.625,95.719   "
         id="polygon23" /><polygon
         style="fill:#886728;"
         points="71.637,81.582 57.5,95.719 85.625,95.719   "
         id="polygon25" /><polygon
         style="fill:#886728;"
         points="104.262,81.582 90.125,95.719 118.25,95.719   "
         id="polygon27" /></g><polygon
       style="fill:#679B41;"
       points="118.312,11.082 106.438,22.957 130.062,22.957  "
       id="polygon29" /><polygon
       style="fill:#679B41;"
       points="83.438,11.082 71.562,22.957 95.188,22.957  "
       id="polygon31" /><polygon
       points="32.375,23.832 39.562,18.832 42.125,15.832 52.5,14.582 55.5,15.832 50.125,19.832 44.625,23.457 40.75,27.582    33.5,27.582 31.625,26.207  "
       id="polygon33" /><polygon
       points="16.625,24.207 12.625,19.582 6.5,19.582 2.25,21.895 0,25.582 0,31.457 5.125,32.082 10.922,31.112 12.625,35.582    17.5,34.082 17.5,28.082  "
       id="polygon35" /><rect
       x="44.625"
       y="113.832"
       style="fill:#030303;"
       width="8.375"
       height="16.875"
       id="rect37" /><rect
       x="99.625"
       y="113.832"
       style="fill:#030303;"
       width="8.375"
       height="16.875"
       id="rect39" /><polygon
       style="fill:#FFFFFF;"
       points="27.5,43.582 27.5,47.457 32,47.457 32,51.332 22.5,51.332 22.5,43.582  "
       id="polygon41" /><polygon
       style="fill:#BBBC99;"
       points="24.25,51.332 20.75,51.332 20.75,43.582 22.5,43.582 24.25,43.582  "
       id="polygon43" /><polygon
       style="fill:#FFFFFF;"
       points="42.75,43.582 42.75,47.457 47.25,47.457 47.25,51.332 37.75,51.332 37.75,43.582  "
       id="polygon45" /><polygon
       style="fill:#BBBC99;"
       points="39.5,51.332 36,51.332 36,43.582 37.75,43.582 39.5,43.582  "
       id="polygon47" /><polygon
       style="fill:#B2A080;"
       points="25.25,13.082 19.75,11.249 19.75,7.915 25.25,4.082 44.583,4.082 55.75,0 52.75,7.415    46.917,11.749 28.75,11.749  "
       id="polygon49" /></g><g
     id="Layer_1" /></svg>