<?xml version="1.0" encoding="UTF-8" standalone="no"?>
<svg
   xmlns:dc="http://purl.org/dc/elements/1.1/"
   xmlns:cc="http://creativecommons.org/ns#"
   xmlns:rdf="http://www.w3.org/1999/02/22-rdf-syntax-ns#"
   xmlns:svg="http://www.w3.org/2000/svg"
   xmlns="http://www.w3.org/2000/svg"
   xmlns:sodipodi="http://sodipodi.sourceforge.net/DTD/sodipodi-0.dtd"
   xmlns:inkscape="http://www.inkscape.org/namespaces/inkscape"
   width="150"
   height="150"
   viewBox="0 0 150 150"
   id="svg2"
   version="1.1"
   inkscape:version="0.91 r13725"
   sodipodi:docname="Nargacuga.svg">
  <metadata
     id="metadata40">
    <rdf:RDF>
      <cc:Work
         rdf:about="">
        <dc:format>image/svg+xml</dc:format>
        <dc:type
           rdf:resource="http://purl.org/dc/dcmitype/StillImage" />
        <dc:title></dc:title>
      </cc:Work>
    </rdf:RDF>
  </metadata>
  <defs
     id="defs38" />
  <sodipodi:namedview
     pagecolor="#ffffff"
     bordercolor="#666666"
     borderopacity="1"
     objecttolerance="10"
     gridtolerance="10"
     guidetolerance="10"
     inkscape:pageopacity="0"
     inkscape:pageshadow="2"
     inkscape:window-width="690"
     inkscape:window-height="480"
     id="namedview36"
     showgrid="false"
     inkscape:zoom="0.78666667"
     inkscape:cx="10.702179"
     inkscape:cy="97.462135"
     inkscape:window-x="72"
     inkscape:window-y="76"
     inkscape:window-maximized="0"
     inkscape:current-layer="svg2" />
  <g
     fill-rule="evenodd"
     clip-rule="evenodd"
     id="g4">
    <path
       fill="#A6A"
       d="M5.464 39.39h20.47l.14 53.274 7.853 9.556.42 26.202-15.843-18.675-4.767-7.383-7.992-16.938"
       id="path6" />
    <path
       fill="#159"
       d="M76.877 83.79L90.71 97.435l-16.264 18.882L55.378 100.8m30.192 10.657l7.01-7.852h28.275L137.12 87.06l7.29-.84-.28 16.825-8.132 8.412-.14 7.852-12.058 12.47-10.002.14-.56-6.44-18.134-8.52"
       id="path8" />
    <path
       fill="#135"
       d="M144.13 115.803v15.984h-16.825M68.838 140.2l10.376-8.694V119.45l-4.486-3.227-12.06-10.094V54.67l-8.13-13.32v25.38H50.47V54.532l-8.13-12.9V111.6l16.404 20.19"
       id="path10" />
    <path
       fill="#699"
       d="M79.308 111.48v20.026l7.85-3.784h23.556v3.925H87.532l3.27 3.273h20.472l4.72-4.72v-14.256H94.262l-8.786-4.487"
       id="path12" />
    <path
       fill="#159"
       d="M66.782 87.154L78.56 77.06l-7.852-6.17v-8.225l20.188-.374.375-24.11H78.94L66.782 46.4m69.358-8.413l7.85 5.61v18.88h-7.85"
       id="path14" />
    <path
       fill="#159"
       d="M131.838 62.664h-13.46l-8.974-8.04L95.57 66.59V30.883l-5.607-4.673H38.927L21.915 41.913H5.465L5.65 14.06l8.226-8.227h105.436l12.15 12.152m-9.906 57.018l5.608 8.414 5.234 4.672-9.534 10.46H96.318l-8.786-9.535H99.31l.373-9.91 7.85 7.854h4.302"
       id="path16" />
    <path
       fill="#699"
       d="M125.123 66.965h18.307L124.6 82.917M92.94 66.965H74.634l18.828 15.952"
       id="path18" />
    <path
       fill="#159"
       d="M128.286 70.89h13.086l-13.46 11.404M90.71 70.89H77.625l13.46 11.404"
       id="path20" />
    <path
       fill="#699"
       d="M109.592 58.553l-10.095 8.225v8.04H119.5v-8.04"
       id="path22" />
    <path
       fill="#159"
       d="M103.608 76.873l5.984 5.234 5.982-5.234.187-8.973h-12.33"
       id="path24" />
    <path
       fill="#A6A"
       d="M144.176 90.894l-.373 11.963-8.04 8.226-11.964 12.713-33.65-.187-2.99-2.06 8.59-9.16 8.412-3.74 12.62 2.52 8.69-.56 5.47-9.117 7.99-4.908"
       id="path26" />
    <path
       fill="#9A0"
       d="M96.692 117.44l4.86-5.982h8.6l-5.608 5.98"
       id="path28" />
    <path
       fill="#699"
       d="M135.998 131.928h8.132v7.99l-8.132 4.207m-12.058-12.197h8.132v7.99l-8.132 4.207M7.723 7.703h18.632l-7.025 10.08L8.486 24.81m29.507 5.326l-4.066 6.87 4.487 8.973-16.826-.14.56-7.01L30 30.27m-16.403 4.21v8.133L9.25 46.96H5.605V34.203m40.94-12.34h11.918l.14 8.133-5.89 4.486-6.448-4.627m24.677-7.99H82.86l.14 8.13-5.89 4.487-6.45-4.627M22.01 58.6l7.85.42 4.487 5.887-8.412 9.815-3.926.14m1.96 8.273l2.52 3.785 7.71.28-4.347 7.993-7.43-4.627v-7.29m7.71 16.404l3.926-.14 4.767 8.27-.28 3.788-8.133-.14m11.92 4.065v20.47L32.8 127.86l-6.87-2.1 12.2-6.03.28-3.78m-20.05-8.694l5.19 8.554-10.375 8.272h-3.09l-.42-11.92M5.745 86.78v8.413l9.393.7-3.93-9.252M5.605 71.22l8.553-5.89-8.414-7.01"
       id="path30" />
    <path
       fill="#A6A"
       d="M105.573 44.017l8.552-2.945 4.348 3.366-5.61 3.224M123.66 26.07v8.693h4.767V25.79m-21.03-7.992h8.412v8.412h-8.42zM95.48 26.07h8.41v8.412h-8.41zM91.132 9.666h8.412v8.412h-8.412zm-20.19 0h8.412v8.412h-8.412zm-20.332 0h8.414v8.412H50.61zM30.14 13.45h8.414v8.414H30.14z"
       id="path32" />
    <path
       fill="#699"
       d="M67.016 131.928h-8.132v7.99l8.132 4.207m12.058-12.197h-8.132v7.99l8.132 4.207"
       id="path34" />
  </g>
</svg>
