<?xml version="1.0" encoding="UTF-8" standalone="no"?>
<!-- Created with Inkscape (http://www.inkscape.org/) -->

<svg
   xmlns:dc="http://purl.org/dc/elements/1.1/"
   xmlns:cc="http://creativecommons.org/ns#"
   xmlns:rdf="http://www.w3.org/1999/02/22-rdf-syntax-ns#"
   xmlns:svg="http://www.w3.org/2000/svg"
   xmlns="http://www.w3.org/2000/svg"
   xmlns:sodipodi="http://sodipodi.sourceforge.net/DTD/sodipodi-0.dtd"
   xmlns:inkscape="http://www.inkscape.org/namespaces/inkscape"
   width="210"
   height="210"
   id="svg2"
   version="1.1"
   inkscape:version="0.91 r13725"
   sodipodi:docname="Plesioth.svg">
  <defs
     id="defs4">
    <clipPath
       clipPathUnits="userSpaceOnUse"
       id="clipPath3845">
      <rect
         style="color:#000000;fill:#ee7700;fill-opacity:1;fill-rule:nonzero;stroke:none;stroke-width:9;marker:none;visibility:visible;display:inline;overflow:visible;enable-background:accumulate"
         id="rect3847"
         width="24.163265"
         height="8.4897957"
         x="74.211975"
         y="1021.5443" />
    </clipPath>
    <clipPath
       clipPathUnits="userSpaceOnUse"
       id="clipPath3908">
      <rect
         style="color:#000000;fill:#ee7700;fill-opacity:1;fill-rule:nonzero;stroke:none;stroke-width:9;marker:none;visibility:visible;display:inline;overflow:visible;enable-background:accumulate"
         id="rect3910"
         width="23.836735"
         height="5.2244902"
         x="76.734703"
         y="866.56628" />
    </clipPath>
    <clipPath
       clipPathUnits="userSpaceOnUse"
       id="clipPath3930">
      <path
         style="fill:#ffee66;fill-opacity:1;stroke:none"
         d="m 98.572586,860.61241 c -15.92665,-3.34902 -18.66148,2.80006 -19.39493,10.39014 l 0.23089,27.24526 c 4.99433,-2.77042 3.21578,-14.24884 4.38695,-21.93474 l 5.07963,14.3153 c 0.95458,-3.58601 1.37811,-8.36688 3.46337,-9.40885 0.66089,1.20632 2.5224,6.83419 3.46339,8.94707 l 1.15446,-21.70385 c 3.953414,-3.47044 2.37819,-5.55873 1.61624,-7.85033 z"
         id="path3932"
         inkscape:connector-curvature="0"
         sodipodi:nodetypes="ccccccccc" />
    </clipPath>
    <clipPath
       clipPathUnits="userSpaceOnUse"
       id="clipPath3941">
      <rect
         style="color:#000000;fill:#ee7700;fill-opacity:1;fill-rule:nonzero;stroke:none;stroke-width:9;marker:none;visibility:visible;display:inline;overflow:visible;enable-background:accumulate"
         id="rect3943"
         width="23.836735"
         height="3.9183676"
         x="68.847305"
         y="877.26752"
         inkscape:transform-center-x="-5.5510204"
         inkscape:transform-center-y="5.5510204" />
    </clipPath>
    <clipPath
       clipPathUnits="userSpaceOnUse"
       id="clipPath4005">
      <g
         id="g4007">
        <rect
           y="833.87512"
           x="113.67715"
           height="8.4038057"
           width="15.039845"
           id="rect4009"
           style="color:#000000;fill:#ee7700;fill-opacity:1;fill-rule:nonzero;stroke:none;stroke-width:9;marker:none;visibility:visible;display:inline;overflow:visible;enable-background:accumulate" />
        <rect
           y="846.63483"
           x="113.74889"
           height="5.5753784"
           width="15.039845"
           id="rect4011"
           style="color:#000000;fill:#ee7700;fill-opacity:1;fill-rule:nonzero;stroke:none;stroke-width:9;marker:none;visibility:visible;display:inline;overflow:visible;enable-background:accumulate" />
        <rect
           y="858.30212"
           x="114.456"
           height="8.4038057"
           width="15.039845"
           id="rect4013"
           style="color:#000000;fill:#ee7700;fill-opacity:1;fill-rule:nonzero;stroke:none;stroke-width:9;marker:none;visibility:visible;display:inline;overflow:visible;enable-background:accumulate" />
        <rect
           y="872.44421"
           x="114.80956"
           height="8.4038057"
           width="15.039845"
           id="rect4015"
           style="color:#000000;fill:#ee7700;fill-opacity:1;fill-rule:nonzero;stroke:none;stroke-width:9;marker:none;visibility:visible;display:inline;overflow:visible;enable-background:accumulate" />
      </g>
    </clipPath>
    <clipPath
       clipPathUnits="userSpaceOnUse"
       id="clipPath4097">
      <g
         id="g4099">
        <rect
           y="876.46942"
           x="149.3763"
           height="23.157747"
           width="7.7781744"
           id="rect4101"
           style="color:#000000;fill:#ee7700;fill-opacity:1;fill-rule:nonzero;stroke:none;stroke-width:9;marker:none;visibility:visible;display:inline;overflow:visible;enable-background:accumulate" />
        <rect
           y="876.20422"
           x="163.69522"
           height="23.157747"
           width="5.6568542"
           id="rect4103"
           style="color:#000000;fill:#ee7700;fill-opacity:1;fill-rule:nonzero;stroke:none;stroke-width:9;marker:none;visibility:visible;display:inline;overflow:visible;enable-background:accumulate" />
      </g>
    </clipPath>
    <clipPath
       clipPathUnits="userSpaceOnUse"
       id="clipPath4164">
      <g
         id="g4166">
        <rect
           transform="translate(0,842.36218)"
           y="57.441711"
           x="106.59634"
           height="21.566757"
           width="4.9497476"
           id="rect4168"
           style="color:#000000;fill:#ee7700;fill-opacity:1;fill-rule:nonzero;stroke:none;stroke-width:9;marker:none;visibility:visible;display:inline;overflow:visible;enable-background:accumulate" />
        <rect
           y="899.62714"
           x="117.02617"
           height="21.566757"
           width="4.9497476"
           id="rect4170"
           style="color:#000000;fill:#ee7700;fill-opacity:1;fill-rule:nonzero;stroke:none;stroke-width:9;marker:none;visibility:visible;display:inline;overflow:visible;enable-background:accumulate" />
      </g>
    </clipPath>
    <clipPath
       clipPathUnits="userSpaceOnUse"
       id="clipPath4216">
      <g
         id="g4218">
        <rect
           y="868.61218"
           x="104.25"
           height="11"
           width="4"
           id="rect4220"
           style="color:#000000;fill:#df8021;fill-opacity:1;fill-rule:nonzero;stroke:none;stroke-width:9;marker:none;visibility:visible;display:inline;overflow:visible;enable-background:accumulate" />
        <rect
           y="869.11218"
           x="112.5"
           height="11"
           width="7.25"
           id="rect4222"
           style="color:#000000;fill:#df8021;fill-opacity:1;fill-rule:nonzero;stroke:none;stroke-width:9;marker:none;visibility:visible;display:inline;overflow:visible;enable-background:accumulate" />
      </g>
    </clipPath>
    <clipPath
       clipPathUnits="userSpaceOnUse"
       id="clipPath4292">
      <path
         transform="translate(-24.395175,844.39511)"
         sodipodi:type="arc"
         style="fill:#113366;fill-opacity:1;fill-rule:evenodd;stroke:none"
         id="path4294"
         sodipodi:cx="103.94469"
         sodipodi:cy="68.136703"
         sodipodi:rx="3.3587573"
         sodipodi:ry="3.2703688"
         d="m 107.30344,68.136703 a 3.3587573,3.2703688 0 1 1 -6.71751,0 3.3587573,3.2703688 0 1 1 6.71751,0 z" />
    </clipPath>
  </defs>
  <sodipodi:namedview
     id="base"
     pagecolor="#ffffff"
     bordercolor="#666666"
     borderopacity="1.0"
     inkscape:pageopacity="0.0"
     inkscape:pageshadow="2"
     inkscape:zoom="2"
     inkscape:cx="-52.357557"
     inkscape:cy="89.625471"
     inkscape:document-units="px"
     inkscape:current-layer="layer1"
     showgrid="false"
     inkscape:window-width="1920"
     inkscape:window-height="1017"
     inkscape:window-x="1672"
     inkscape:window-y="-8"
     inkscape:window-maximized="1" />
  <metadata
     id="metadata7">
    <rdf:RDF>
      <cc:Work
         rdf:about="">
        <dc:format>image/svg+xml</dc:format>
        <dc:type
           rdf:resource="http://purl.org/dc/dcmitype/StillImage" />
        <dc:title></dc:title>
      </cc:Work>
    </rdf:RDF>
  </metadata>
  <g
     inkscape:label="Layer 1"
     inkscape:groupmode="layer"
     id="layer1"
     transform="translate(0,-842.36218)">
    <g
       id="g3390"
       transform="translate(-55,-19.5)">
      <g
         transform="translate(5.846939,-15.331633)"
         id="g3024">
        <path
           style="fill:#335599;fill-opacity:1;stroke:none"
           d="m 109.26551,938.51932 c 16.10885,0.0621 32.21769,-2.94185 48.32654,0.97959 31.16352,19.45048 21.17601,56.71938 21.55102,57.46939 -1.85034,12.8227 -3.70068,16.4728 -5.55102,22.8572 -8.06025,2.6268 -14.55021,1.3279 -20.89796,-0.3266 -1.04987,-7.2904 -1.91563,-14.4152 5.55102,-14.0408 1.55514,-13.72056 2.42386,-27.30383 -0.32653,-40.16327 -1.68805,-3.2595 -3.76071,-4.2113 -5.87756,-4.89796 -8.43537,-0.38095 -22.6209,3.73057 -26.44897,-0.4898 -9.95196,-7.16601 -19.32118,-13.35863 -16.32654,-21.38775 z"
           id="path2996-7"
           inkscape:connector-curvature="0"
           sodipodi:nodetypes="cccccccccc" />
        <path
           style="fill:#ee7700;fill-opacity:1;stroke:none"
           d="m 109.26551,938.75022 c 13.26277,7.3806 46.73277,7.91651 48.18649,8.37973 31.16352,19.45044 15.68789,50.30019 15.68789,50.30019 l -6.05362,23.68616 c -1.44801,0.3819 -8.04442,0.2679 -14.39217,-1.3866 -1.04987,-7.2904 -1.91563,-14.4152 5.55102,-14.0408 1.55514,-13.72045 2.42386,-27.30375 -0.32653,-40.16315 -1.68805,-3.2595 -3.76071,-4.2113 -5.87756,-4.898 -8.43538,-0.3809 -22.62091,3.7306 -26.44898,-0.4898 -9.95196,-7.166 -19.32118,-13.35861 -16.32654,-21.38773 z"
           id="path2996-1"
           inkscape:connector-curvature="0"
           sodipodi:nodetypes="cccccccccc" />
        <path
           style="fill:#ddcccc;fill-opacity:1;stroke:none"
           d="m 109.26551,938.66588 c 5.93861,17.14375 38.58293,9.54198 49.25011,15.29489 19.32853,8.69141 10.23731,45.00123 10.23731,45.00123 -1.3478,8.7916 -3.838,16.2016 -9.48899,21.9196 0,0 -0.2221,0.4183 -6.56985,-1.2362 -1.04987,-7.2904 -1.91563,-14.4151 5.55102,-14.0407 1.55514,-13.7206 2.42386,-27.30387 -0.32653,-40.16331 -1.68805,-3.2595 -3.76071,-4.2113 -5.87756,-4.89796 -8.43537,-0.38095 -22.6209,3.73057 -26.44897,-0.4898 -9.95196,-7.16601 -19.32118,-13.35863 -16.32654,-21.38775 z"
           id="path2996"
           inkscape:connector-curvature="0"
           sodipodi:nodetypes="cccccccccc" />
      </g>
      <path
         sodipodi:nodetypes="ccccccc"
         inkscape:connector-curvature="0"
         id="path3029"
         d="m 158.54782,988.79966 c 3.759,-1.06689 2.74406,-6.39226 -3.47639,-5.64666 -6.99483,-1.65202 -9.14877,3.32977 -7.83674,13.06123 2.90531,9.54407 -0.61625,10.59547 -6.27991,8.81627 -10.2058,-2.2641 -7.32213,5.3559 -3.34793,5.6071 6.18411,-1.6777 20.38992,5.5877 18.5258,-9.6887 -0.49801,-4.52476 -4.01831,-13.27293 2.41517,-12.14924 z"
         style="fill:#335599;fill-opacity:1;stroke:none" />
      <path
         sodipodi:nodetypes="ccccccccc"
         inkscape:connector-curvature="0"
         id="path3031"
         d="m 182.31552,988.18039 c 2.25285,0.20864 2.57513,-1.1859 3.7551,-2.69387 -3.56921,-7.34204 10.41974,-4.55727 5.06122,1.06122 l -0.16326,15.18376 c 2.64268,1.0572 6.00759,4.9592 3.10204,7.5102 0,0 -2.35849,0.014 -4.7347,0.1632 -7.21899,2.1173 -2.39458,-8.272 -3.59183,-12.4081 l -4.08164,-1.5511 z"
         style="fill:#335599;fill-opacity:1;stroke:none" />
      <path
         sodipodi:nodetypes="cccc"
         inkscape:connector-curvature="0"
         id="path3033"
         d="m 131.80612,1010.4183 c 5.1534,-10.9272 -10.64681,-7.3043 -10.12245,-0.082 1.87755,-2.7297 3.75511,-3.7963 5.63266,-3.9184 -1.84184,6.1026 2.05532,4.0065 4.48979,4 z"
         style="fill:#ee7700;fill-opacity:1;stroke:none" />
      <path
         sodipodi:nodetypes="cccc"
         inkscape:connector-curvature="0"
         id="path3033-4"
         d="m 197.70481,1009.4526 c -5.1534,-10.9272 10.64681,-7.3043 10.12245,-0.082 -1.87755,-2.7297 -3.75511,-3.7963 -5.63266,-3.9184 1.84184,6.1026 -2.05532,4.0065 -4.48979,4 z"
         style="fill:#ee7700;fill-opacity:1;stroke:none" />
      <path
         sodipodi:nodetypes="cccc"
         inkscape:connector-curvature="0"
         id="path3053"
         d="m 121.77793,977.39429 c 3.07627,23.71801 29.62832,6.33368 22.53062,22.85711 -10.99742,5.7814 -19.18704,0.2594 -22.53062,-6.53058 -3.13114,-11.70446 -0.97222,-12.8288 0,-16.32653 z"
         style="fill:#335599;fill-opacity:1;stroke:none" />
      <path
         sodipodi:nodetypes="cccsccccccccc"
         inkscape:connector-curvature="0"
         id="path3055"
         d="m 111.1617,957.2596 c 3.35811,3.46657 5.56019,8.32036 7.38855,13.62263 l 1.61624,-10.85193 c 0,0 1.84714,11.08282 2.30892,9.92836 0.46179,-1.15446 2.77071,-10.15925 2.77071,-10.15925 l 3.69427,9.69746 1.61624,-12.23727 c 2.3404,5.36264 2.08694,11.50344 1.38535,17.77868 -0.23025,4.59722 -2.77112,4.24313 -5.07962,4.38695 -3.1347,-0.64808 -3.75433,-3.90161 -5.31052,-3.23249 -2.30763,-0.43552 -4.10168,3.9283 -5.31051,3.23249 -4.792,0.64855 -4.96901,-2.11276 -6.23409,-4.38695 -0.44198,-7.08375 0.059,-12.84735 1.15446,-17.77868 z"
         style="fill:#ffee66;fill-opacity:1;stroke:none" />
      <path
         transform="translate(35.071429,-55.821429)"
         clip-path="url(#clipPath3845)"
         sodipodi:nodetypes="cccsccccccccc"
         inkscape:connector-curvature="0"
         id="path3055-0"
         d="m 76.063256,1013.1497 c 3.35811,3.4666 5.56019,8.3204 7.38855,13.6226 l 1.61624,-10.8519 c 0,0 1.84714,11.0828 2.30892,9.9284 0.46179,-1.1545 2.77071,-10.1593 2.77071,-10.1593 l 3.69427,9.6975 1.61624,-12.2373 c 2.3404,5.3626 2.08694,11.5034 1.38535,17.7787 -0.23025,4.5972 -2.77112,4.2431 -5.07962,4.3869 -3.1347,-0.6481 -3.75433,-3.9016 -5.31052,-3.2325 -2.30763,-0.4355 -4.10168,3.9283 -5.31051,3.2325 -4.792,0.6486 -4.96901,-2.1127 -6.23409,-4.3869 -0.44198,-7.0838 0.059,-12.8474 1.15446,-17.7787 z"
         style="fill:#ee7700;fill-opacity:1;stroke:none" />
      <path
         sodipodi:nodetypes="ccccccccc"
         inkscape:connector-curvature="0"
         id="path3849"
         d="m 160.43652,951.67575 c -15.92665,-3.34902 -18.66148,2.80006 -19.39493,10.39014 l 0.23089,27.24526 c 4.99433,-2.77042 3.21578,-14.24884 4.38695,-21.93474 l 5.07963,14.3153 c 0.95458,-3.58601 1.37811,-8.36688 3.46337,-9.40885 0.66089,1.20632 2.5224,6.83419 3.46339,8.94707 l 1.15446,-21.70385 c 3.95341,-3.47044 2.37819,-5.55873 1.61624,-7.85033 z"
         style="fill:#ffee66;fill-opacity:1;stroke:none" />
      <path
         transform="translate(62.87435,91.867746)"
         clip-path="url(#clipPath3908)"
         sodipodi:nodetypes="ccccccccc"
         inkscape:connector-curvature="0"
         id="path3849-9"
         d="m 97.707174,859.64496 c -15.92665,-3.34902 -18.66148,2.80006 -19.39493,10.39014 l 0.23089,27.24526 c 4.99433,-2.77042 3.21578,-14.24884 4.38695,-21.93474 l 5.07963,14.3153 c 0.95458,-3.58601 1.37811,-8.36688 3.46337,-9.40885 0.66089,1.20632 2.5224,6.83419 3.46339,8.94707 l 1.15446,-20.70385 c 3.953406,-3.47044 2.37819,-6.55873 1.61624,-8.85033 z"
         style="fill:#ee7700;fill-opacity:1;stroke:none" />
      <rect
         transform="translate(61.845632,91.011663)"
         clip-path="url(#clipPath3930)"
         y="880.93359"
         x="75.918365"
         height="5.2244902"
         width="23.836735"
         id="rect3869-4"
         style="color:#000000;display:inline;overflow:visible;visibility:visible;fill:#ee7700;fill-opacity:1;fill-rule:nonzero;stroke:none;stroke-width:9;marker:none;enable-background:accumulate" />
      <path
         transform="translate(72.391803,105.2025)"
         clip-path="url(#clipPath3941)"
         sodipodi:nodetypes="ccccccccc"
         inkscape:connector-curvature="0"
         id="path3849-2"
         d="m 88.059784,846.62901 c -15.92665,-3.34902 -18.66148,2.80006 -19.39493,10.39014 l 0.23089,27.24526 c 4.99433,-2.77042 3.21578,-14.24884 4.38695,-21.93474 l 5.07963,14.3153 c 0.95458,-3.58601 1.37811,-8.36688 3.46337,-9.40885 0.66089,1.20632 2.5224,6.83419 3.46339,8.94707 l 1.15446,-21.70385 c 3.95341,-3.47044 2.37819,-5.55873 1.61624,-7.85033 z"
         style="fill:#ee7700;fill-opacity:1;stroke:none" />
      <path
         sodipodi:nodetypes="cccccccccc"
         inkscape:connector-curvature="0"
         id="path3945"
         d="m 183.58013,950.86218 c -0.42629,-1.07684 -3.39858,-6.73102 5.84147,-6 2.69009,0.0277 18.76552,-7.00242 15.02092,12.25 0.91587,13.14748 0.50127,22.22709 0.27816,33 -0.32832,6.03144 -2.67849,6.61152 -4.17247,9.50002 -1.46507,-15.29205 0.30288,-32.70209 -3.05982,-42.25002 -2.37271,7.99671 -2.05816,26.68918 -2.78165,41.25002 -0.64905,-14.83335 -3.45813,-28.83469 -1.94716,-44.50002 1.24891,-5.66157 -2.45217,-3.48624 -4.17248,-2.13128 -2.86471,2.69906 -4.36956,0.78372 -5.00697,-1.11872 z"
         style="fill:#ffee66;fill-opacity:1;stroke:none" />
      <path
         transform="translate(78.010299,117.75105)"
         clip-path="url(#clipPath4005)"
         sodipodi:nodetypes="cccccccccc"
         inkscape:connector-curvature="0"
         id="path3945-4"
         d="m 105.68064,833.35218 c -0.42629,-1.07684 -3.39858,-6.73102 5.84147,-6 2.69009,0.0277 18.76552,-7.00242 15.02092,12.25 0.91587,13.14748 0.50127,22.22709 0.27816,33 -0.32832,6.03144 -2.67849,6.61152 -4.17247,9.50002 -1.46507,-15.29205 0.30288,-32.70209 -3.05982,-42.25002 -2.37271,7.99671 -2.05816,26.68918 -2.78165,41.25002 -0.64905,-14.83335 -3.45813,-28.83469 -1.94716,-44.50002 1.24891,-5.66157 -2.45217,-3.48624 -4.17248,-2.13128 -2.86471,2.69906 -4.36956,0.78372 -5.00697,-1.11872 z"
         style="fill:#ee7700;fill-opacity:1;stroke:none" />
      <path
         sodipodi:nodetypes="cccccccc"
         inkscape:connector-curvature="0"
         id="path4017"
         d="m 164.03253,921.34033 c 6.19305,3.1295 10.91697,10.18116 17.34036,14.17246 l 16.61701,-1.06066 c -4.95056,-1.13887 -15.44265,-1.24869 -16.61701,-4.06587 9.5392,0.75479 17.68441,-0.81374 24.39519,-4.77297 -9.0554,-0.25867 -24.29514,-0.41467 -31.1127,-3.35875 l 33.94112,-1.23744 c -12.95309,-1.93828 -46.58773,-5.23219 -44.56397,0.32323 z"
         style="fill:#ffee66;fill-opacity:1;stroke:none" />
      <path
         transform="translate(26.120978,39.078373)"
         clip-path="url(#clipPath4097)"
         sodipodi:nodetypes="cccccccc"
         inkscape:connector-curvature="0"
         id="path4017-2"
         d="m 137.74466,882.23376 c 6.19305,3.1295 10.91697,10.18116 17.34036,14.17246 l 16.61701,-1.06066 c -4.95056,-1.13887 -15.44265,-1.24869 -16.61701,-4.06587 9.5392,0.75479 17.68441,-0.81374 24.39519,-4.77297 -9.0554,-0.25867 -24.29514,-0.41467 -31.1127,-3.35875 l 33.94112,-1.23744 c -12.95309,-1.93828 -46.58773,-5.23219 -44.56397,0.32323 z"
         style="fill:#ee7700;fill-opacity:1;stroke:none" />
      <path
         sodipodi:nodetypes="cccccccc"
         inkscape:connector-curvature="0"
         id="path4105-1"
         d="m 142.08862,926.87169 c 6.27199,0.16027 12.11571,-1.17835 19.25,2 -7.37746,-1.25498 -12.07305,0.23234 -16.25,2.25 6.13541,2.36978 11.24992,3.2082 15.5,2.75 -3.40342,2.3547 -9.58585,2.72439 -16.25,2.75 5.52045,1.90723 11.29158,3.18774 17.75,2.75 -6.4185,3.01773 -12.70592,4.72512 -18.75,4 z"
         style="fill:#ffee66;fill-opacity:1;stroke:none" />
      <path
         transform="translate(39.108757,23.957107)"
         clip-path="url(#clipPath4164)"
         sodipodi:nodetypes="cccccccc"
         inkscape:connector-curvature="0"
         id="path4105"
         d="m 103.35712,902.89377 c 6.27199,0.16027 12.11571,-1.17835 19.25,2 -7.37746,-1.25498 -12.07305,0.23234 -16.25,2.25 6.13541,2.36978 11.24992,3.2082 15.5,2.75 -3.40342,2.3547 -9.58585,2.72439 -16.25,2.75 5.52045,1.90723 11.29158,3.18774 17.75,2.75 -6.4185,3.01773 -12.70592,4.72512 -18.75,4 z"
         style="fill:#ee7700;fill-opacity:1;stroke:none" />
      <path
         sodipodi:nodetypes="cccc"
         inkscape:connector-curvature="0"
         id="path4172"
         d="m 136.5,921.36218 c -1.588,-5.78297 4.50973,-8.457 20.25,-7.23056 3.79854,-0.48152 5.40231,5.40592 -1.25,5.4777 -13.06584,-2.28666 -14.60987,-0.30544 -19,1.75286 z"
         style="fill:#ffee88;fill-opacity:1;stroke:none" />
      <path
         transform="matrix(1,0,0,0.87065322,41.25,154.97226)"
         clip-path="url(#clipPath4216)"
         sodipodi:nodetypes="cccc"
         inkscape:connector-curvature="0"
         id="path4172-4"
         d="m 95.349388,880.15398 c -1.588,-6.59831 4.50973,-9.64935 20.250002,-8.25 3.79854,-0.54941 5.40231,6.1681 -1.25,6.25 -13.06584,-2.60905 -14.609872,-0.3485 -19.000002,2 z"
         style="fill:#df8021;fill-opacity:1;stroke:none" />
      <ellipse
         transform="translate(25.809397,858.09531)"
         id="path4224"
         style="fill:#113366;fill-opacity:1;fill-rule:evenodd;stroke:none"
         cx="103.94469"
         cy="68.136703"
         rx="3.3587573"
         ry="3.2703688" />
      <g
         clip-path="url(#clipPath4292)"
         transform="translate(50.204582,13.689145)"
         id="g4246">
        <rect
           style="color:#000000;display:inline;overflow:visible;visibility:visible;fill:#224477;fill-opacity:1;fill-rule:nonzero;stroke:none;stroke-width:9;marker:none;enable-background:accumulate"
           id="rect4226"
           width="1.4142135"
           height="7.601398"
           x="663.05774"
           y="627.30737"
           transform="matrix(0.74939406,0.66212427,-0.66212427,0.74939406,0,0)"
           inkscape:transform-center-x="6.363961"
           inkscape:transform-center-y="-2.1213203" />
        <rect
           style="color:#000000;display:inline;overflow:visible;visibility:visible;fill:#224477;fill-opacity:1;fill-rule:nonzero;stroke:none;stroke-width:9;marker:none;enable-background:accumulate"
           id="rect4226-3"
           width="1.4142135"
           height="7.601398"
           x="-583.31165"
           y="703.01355"
           transform="matrix(0.71363207,-0.70052071,0.70052071,0.71363207,0,0)" />
      </g>
      <ellipse
         transform="translate(116.5594,857.03281)"
         id="path4296"
         style="fill:#bbbb77;fill-opacity:1;fill-rule:evenodd;stroke:none"
         cx="13.125669"
         cy="69.285751"
         rx="1.3700194"
         ry="1.4142135" />
    </g>
  </g>
</svg>
