<?xml version="1.0" encoding="UTF-8" standalone="no"?>
<svg
   xmlns:dc="http://purl.org/dc/elements/1.1/"
   xmlns:cc="http://creativecommons.org/ns#"
   xmlns:rdf="http://www.w3.org/1999/02/22-rdf-syntax-ns#"
   xmlns:svg="http://www.w3.org/2000/svg"
   xmlns="http://www.w3.org/2000/svg"
   xmlns:sodipodi="http://sodipodi.sourceforge.net/DTD/sodipodi-0.dtd"
   xmlns:inkscape="http://www.inkscape.org/namespaces/inkscape"
   width="150"
   height="150"
   viewBox="0 0 150 150"
   id="svg2"
   version="1.1"
   inkscape:version="0.91 r13725"
   sodipodi:docname="Golden_Zinogre.svg">
  <metadata
     id="metadata80">
    <rdf:RDF>
      <cc:Work
         rdf:about="">
        <dc:format>image/svg+xml</dc:format>
        <dc:type
           rdf:resource="http://purl.org/dc/dcmitype/StillImage" />
        <dc:title></dc:title>
      </cc:Work>
    </rdf:RDF>
  </metadata>
  <defs
     id="defs78" />
  <sodipodi:namedview
     pagecolor="#ffffff"
     bordercolor="#666666"
     borderopacity="1"
     objecttolerance="10"
     gridtolerance="10"
     guidetolerance="10"
     inkscape:pageopacity="0"
     inkscape:pageshadow="2"
     inkscape:window-width="871"
     inkscape:window-height="634"
     id="namedview76"
     showgrid="false"
     inkscape:zoom="1.5733333"
     inkscape:cx="75"
     inkscape:cy="75"
     inkscape:window-x="0"
     inkscape:window-y="0"
     inkscape:window-maximized="0"
     inkscape:current-layer="svg2" />
  <g
     fill-rule="evenodd"
     clip-rule="evenodd"
     id="g4">
    <path
       fill="#473"
       d="M115.842 41.947l7.122 11.595L119 68.578v56.066L108.664 135H84.878L65.17 102.3 48.52 87.985l3.398-11.232 11.213-7.826-5.43-24.13-5.43-12.575 30.58-8.496 35.68 7.474"
       id="path6" />
    <path
       d="M20.72 17.714h14.33c.1 1.06-.2 2.513.15 3.32 2.89 5.455 6.86 9.83 10.56 14.478h-6.034c-.084-1.072-.248-2.064-.453-3.016-8.427-4.998-17.206-9.645-25.643-14.63 2.315-.1 5.03.2 7.09-.152zm21.42 4.074c-.506-1.757-1.895-2.632-2.715-4.074h9.2c.034.118.005.298.15.302.623 1.602 1.52 3.153 2.415 4.826.775 1.457 2.173 3.347 2.412 4.827.393 2.41-.84 4.96-.754 7.84h-4.224c-2.184-3.6-4.426-7.14-6.637-10.71v-1.51c.346-.21.058-1.05.153-1.51z"
       fill="#DDDD10"
       id="path8" />
    <path
       d="M120.272 3.083c.292.363.71.598 1.056.905.17 1.59.258 3.263.303 4.978-2.62 2.953-5.32 5.838-7.99 8.748h-3.62c-.06-.337-.74-.06-1.06-.15 3.7-4.855 7.5-9.605 11.17-14.48h.15z"
       fill="#DF9"
       id="path10" />
    <path
       fill="#7F0"
       d="M121.63 8.966l7.995-5.582h.15v2.113l-6.484 6.485-1.35 1.358-3.16 3.168-4.52 4.525-4.52 4.373-7.99 7.996-6.48 2.262.3 1.056.69 1.532-10.77 4.205-1.59.127 1.66-2.994 16.95-19.462 4.83-2.565 2.71.15h3.62l8-8.747"
       id="path12" />
    <path
       fill="#DF9"
       d="M102.473 20.128L86.335 39.435l-1.96 2.866-.152.16-5.43 5.43-.15.15-5.432 5.44-2.86 3.02-.3-.15-6.95-4.25.02-3.14-6.63-6.63 9.81-.6 7.25-.6 2.71-2.56 7.54-8.14V28.6l1.36-10.71-.45-.3L96.14 7.16l3.925-3.017 1.81.45.6 15.54m16.294-3.62c1.14-.916 2.02-2.1 3.16-3.015.15 2.417.21 4.92.45 7.24H126c.658.35 1.96.055 2.866.154h4.225c.21.342 1.05.055 1.51.15h4.08c.21.342 1.05.055 1.51.15-.26.69-.3 1.606-.6 2.262-.61.49-1.17 1.043-1.65 1.658-.56.44-1.07.943-1.51 1.51h-.15c-.61.49-1.17 1.04-1.66 1.657-.56.44-1.06.94-1.5 1.51-.61.49-1.17 1.04-1.66 1.66-.56.44-1.07.94-1.51 1.51-.17.03-.24.16-.3.3.69.81 1.45 1.57 2.26 2.26.79.56 1.32 1.4 2.11 1.96.64.76 1.35 1.47 2.11 2.11.64.76 1.35 1.47 2.11 2.11.69.81 1.45 1.57 2.27 2.26.85.61 1.42 1.49 2.26 2.11.44.69.55 3.25 0 3.92-3.1-.82-6.7-1.14-10.25-1.51-.685-3.1.45-6.16-.302-8.75-.35-1.19-2.017-2.56-2.867-3.62-1.046-1.3-1.87-2.54-2.87-3.47-1.154-.47-3.33-.68-4.68-.45-4.05-.27-8.136-.51-12.216-.76h-1.202c-.31-.25-1.65-.25-1.96 0-.382.07-.69.21-.9.45-3.435 1.49-6.52 3.33-9.955 4.82-.224-.23-.24-.67-.3-1.06 2.15-.77 4.766-6.09 6.888-6.89 2.728-2.6 4.99-.65 7.59-3.37 1.597-1.37 2.93-3 4.525-4.37 1.57-1.45 3.08-2.95 4.527-4.52z"
       id="path14" />
    <path
       d="M39.124 17.413c.032.17.167.235.302.3.82 1.443 2.21 2.318 2.715 4.075-.34.208-.05 1.05-.15 1.508v1.508c2.21 3.57 4.46 7.112 6.64 10.708h-2.86c-3.7-4.648-7.67-9.023-10.56-14.48.09-1.07-.17-2.49.16-3.318.31-.09.99.187 1.06-.15.93.07 2.01-.502 2.72-.15zm38.31 10.257c.1-2.02-.742-3.777-.45-5.28.32-1.66 2.997-3.3 3.77-4.676h1.207c.61-.096 1.61.196 1.97-.15h.76c.31-.13.94.13.46.3-1.51 1.56-2.76 3.373-4.22 4.978-.52.08-.22.986-.3 1.51v1.054c-.35.508-.05 1.657-.15 2.413v.45c-.9-.1-2.21.2-2.86-.15.02-.22.03-.43-.15-.46z"
       fill="#889910"
       id="path16" />
    <path
       d="M65.37 17.563h16.59v.15h-1.205c-.774 1.378-3.45 3.016-3.772 4.678-.29 1.51.55 3.26.452 5.28v.76h-3.317c-.356-.34-1.353-.05-1.96-.15-2.435.74-3.79 2.55-5.883 3.62.497-.81 1.395-1.22 1.96-1.96.567-.44 1.07-.94 1.51-1.51 1.685-3.44 3.3-6.95 4.977-10.4h-.905c-.657.1-1.706-.19-2.112.15-.607.1-1.604-.19-1.96.15-1.27 1.15-2.477 2.35-3.62 3.62-1.26 2.26-2.673 4.37-3.772 6.79-.344.21-.057 1.05-.15 1.51.018.63-.262.95-.15 1.66-1.708.26-3.527.4-5.432.45-.65.31-.51 1.4-.75 2.11-.33-.01-.06-.63-.15-.9.35-.4.06-1.45.15-2.11v-.76c.35-.45.06-1.55.15-2.26v-.75c.35-.4.06-1.45.15-2.11v-.9c.35-.4.06-1.45.15-2.11-.02-.37-.02-.72.15-.9-1.21-1.39-2.73-2.49-4.22-3.62-.03-.12-.15-.15-.15-.3h2.27c3.62-.09 7.64.21 11.01-.15zm71.138 105.822l3.27-7.155 3.572-3.23H133v-10.782L143.366 93H133V80.81L143.916 72H133V59.404l9.174-10.193L133 47.52v-8.5l-6.393-6.626-19.25-1.36L88.98 36.47 71.067 55.707l.312 15.418 28.68-28.19 17.29-.467L123 47.58v61.774"
       fill="#DDDD10"
       id="path18" />
    <path
       d="M52.246 18.016c1.49 1.126 3.006 2.223 4.224 3.62-.174.18-.17.535-.15.906-.35.406-.054 1.456-.15 2.112v.905c-.35.4-.055 1.45-.152 2.11v.75c-.348.45-.054 1.55-.15 2.26v.75c-.35.4-.054 1.45-.15 2.11.085.26-.183.88.15.9.003.35-.26.44-.15.9-.636.32-1.837.07-2.716.15h-.15c-.088-2.88 1.146-5.43.753-7.84-.24-1.48-1.637-3.37-2.412-4.83C50.3 21.15 49.4 19.6 48.778 18v-.15c1.12.084 2.593-.183 3.468.15z"
       fill="#889910"
       id="path20" />
    <path
       fill="#473"
       d="M83.77 30.385l-7.54 8.146-2.715 2.57-7.242.61 4.527-6.04-6.19-.15-3.318 3.47-1.14 3.13-3.687.2-6.507.48-2.61-.44-2.87 1.02 1.02 2.3-4.72.28-5.88.31-2.115 2.11-.755.61-5.126.75L17.1 38.99l14.33-.45 1.66-2.87L53 35.513l2.715-.15.152-.905.753-2.11 5.43-.454h4.223l5.884-3.62 11.613.302v1.81"
       id="path22" />
    <path
       fill="#5A0"
       d="M36.967 126l9.94 14h55.3l14.526-14"
       id="path24" />
    <path
       fill="#889910"
       d="M121.406 31.966l5.01.51-9.168 10.156h-.15l-2.263-.152h-.15l-1.604.274 6.8-8.75m11.26 22.778l2.26 2.714-.6 3.772-10.71-6.79V47.58l1.81 1.66 1.81 1.962 1.81 1.81 1.66 1.81 1.96 1.962"
       id="path26" />
    <path
       fill="#DDDD10"
       d="M121.285 115.555l13.715 9.01v8.41L124.568 143H14v-3H6.67L14 128.858V126H6.67l7.33-9.844v-4.65l-7.422-3.578 37.285-.18L40 111.685V130h7v7.268L56.584 129H64v8.268L73.76 129H82v8.268L90.666 129h13.328M55.867 64.474l-10.56-11.916-.904-3.017-11.96-.77 1.85-2.8 6.49-.04 4.913-6.96 3.823.19 7.1 3.31 6.48 6.49v4.23l.15 1.51v4.38l-6.64.61-.76 4.83"
       id="path28" />
    <path
       fill="#889910"
       d="M76.982 65.53l-.068-16.13 4.09-4.31.115 16.352-4.14 4.088m10.98-10.49l-.41-17.043 1.27-1.53 3.25-.955.02 15.44-4.14 4.087m14.71-12.12l-.55-10.28 1.41-.43 3.24-.96.09 11.49-4.21.17M67.78 74.88l-.604.3.15-13.123.604-3.47 3.354-3.263-.034 15.33.753-.15-4.223 4.374m54.302-6.335v-.903l2.11 1.96 1.66 1.658 1.81 1.66 1.66 1.66 1.66 1.51 1.66 1.66.298.45.153 3.017v1.055l.15 1.81-.15.302-10.71-8.447-.152-2.263v-1.357l-.15-3.77"
       id="path30" />
    <path
       d="M118.915 80.462c-1.27-.89-2.54-1.783-3.77-2.715-2.914-.104-5.928-.104-8.75-.3 1.355-1.57 2.688-3.298 4.375-5.28.968-1.137 3.293-4.654 4.677-5.13 1.125-.385 2.204.113 3.318-.3h.45c.342.112.06.846.152 1.208.002 3.62-.32 6.918-.302 10.557-.344.355-.052 1.352-.15 1.96z"
       fill="#DF9"
       id="path32" />
    <path
       fill="#889910"
       d="M122.084 88.607l9.953 8.748.606 2.112v1.056l-.15 1.96v2.113l-9.956-6.636-.304-2.565v-3.018l-.15-2.714v-1.056"
       id="path34" />
    <path
       d="M133.095 81.52c1.123-.94 2.377-1.746 3.47-2.717-.076 1.022.938 1.68 1.508 2.413 1.71 2.2 3.47 4.73 5.28 6.938-.296.863-.092 2.22-.15 3.32-3.247-.325-6.45-.692-9.807-.906-.007-2.155-.253-4.07-.3-6.185.115-.032.175-.127.15-.302-.098-.55.193-1.5-.15-1.81v-.75z"
       fill="#DF9"
       id="path36" />
    <path
       fill="#DDDD10"
       d="M28.263 95.094l6.637 3.168 4.224 5.73-10.86-.903v-8"
       id="path38" />
    <path
       d="M118.162 143.39h.15c2.023-1.9 3.984-4.19 5.883-6.213v-.15c2.99-3.093 5.78-6.386 8.747-9.503h.152c.978-.683 2.088-2.536 3.168-3.62v19.485h-18.1"
       fill="#DF9"
       id="path40" />
    <path
       fill="#473"
       d="M24.342 138.384l6 4.56h-5.814l-6.674-3.202v-27.15h6.336l.152 25.792"
       id="path42" />
    <path
       fill="#473"
       d="M35.555 138.384l6 4.56h-5.813l-6.675-3.202v-27.15h6.336l.152 25.792"
       id="path44" />
    <path
       d="M73.815 18.016h.905c-1.677 3.453-3.292 6.964-4.977 10.408-.567.44-1.07.943-1.51 1.508-.565.74-1.463 1.15-1.96 1.96-.834 1.375-2.804.197-4.223 0-.11-.712.17-1.035.15-1.658.344-.208.058-1.05.15-1.507 1.1-2.42 2.513-4.527 3.772-6.788 1.27-1.15 2.476-2.36 3.62-3.62.356-.35 1.354-.06 1.96-.16.66-.1 1.707.19 2.113-.15z"
       fill="#889910"
       id="path46" />
    <path
       d="M85.13 17.865c-.343 3.683-.858 7.188-1.36 10.71h-1.96c-.16-.343-.95-.06-1.357-.152v-.604c.35-.51.053-1.66.15-2.42v-1.05c.395-.21-.072-1.28.303-1.51 1.46-1.61 2.712-3.42 4.223-4.98z"
       fill="#DDDD10"
       id="path48" />
    <path
       d="M13.63 17.865c8.438 4.986 17.217 9.633 25.644 14.63.205.953.37 1.945.453 3.017H33.09c-9.55-4.93-19.182-9.78-28.508-14.932-.266-.69-.39-1.52-.604-2.262.04-.048-.052-.433 0-.453 2.353-.92 6.628.682 9.352 0h.3z"
       fill="#889910"
       id="path50" />
    <path
       fill="#133A3D"
       d="M45.71 38.96l-3.327 4.644-6.817.318 1.02-2.548 3.694-2.262 2.38-.053 1.57-1.79 4.375-.05-2.894 1.73m20.44 2.7l-9.8.6.28-2.3 4.55-1.02 3.32-3.47 6.19.15-4.52 6.03m-39.24 8.03l-4.07 1.05-8.9-11.62 3.17-.15 9.8 10.71"
       id="path52" />
    <path
       d="M32.033 48.938c-1.332 2.237-3.13 4.01-4.373 6.335-2.396.168-4.356.77-6.788.905-1.452 1.112-2.888 2.24-4.374 3.318-.786-.62-1.93-.885-2.716-1.507 1.387-1.94 2.858-3.78 4.374-5.59 1.598-.52 3.185-1.04 4.677-1.66 1.51-.2 2.708-.71 4.073-1.06 1.655-.31 3.41-.52 5.127-.76z"
       fill="#DDDD10"
       id="path54" />
    <path
       fill="#7F0"
       d="M38.37 77.747L28.865 67.34l12.822-11.766L38.82 65.83l-2.866 3.32 9.504 8.297-.454 4.373v.152l-11.16 11.464h-4.978l-10.56-10.863-.3-5.43 4.827-3.47 6.033.454 1.093 5.027-3.44.255-2.68 3.05 7.28 4.33"
       id="path56" />
    <path
       d="M142.898 71.562c-.137-.744-1.43-.802-2.262-.905-2.232-.274-5.786-.495-7.694-.905V65.53c-.092-.46.195-1.3-.148-1.51v-.754c.467-.992.346-2.57.602-3.772.838-.42 1.397-1.115 2.112-1.66-.336.748 1.033 1.722 1.81 2.565 1.987 2.16 4.638 5.1 6.185 6.63v.75c-.353 1.1-.615 2.3-.605 3.77z"
       fill="#DF9"
       id="path58" />
    <path
       d="M67.438 62.362l-12.213 11.95-7.225.382v6.673l-.765 4.072 2.565-1.21 1.417-3.09 1.71-.34 4.746 3.42 7.693-7.67 1.99-1.3.083-12.91z"
       fill="#DDDD10"
       id="path60" />
    <path
       d="M105.49 77.446c-3.846-.026-7.44-.3-11.31-.303 0-.15.12-.18.15-.302 1.73-2.2 4.207-5.33 6.184-7.84.565-.72 1.536-2.37 2.263-2.56.878-.23 1.866.36 2.715.31v10.71z"
       fill="#DF9"
       id="path62" />
    <path
       fill="#DDDD10"
       d="M106.396 77.446l8.75.3 3.77 2.716.15.15v3.774l-.15 4.222h-.15l-7.24-1.207-2.566-3.01-2.11-.15h-3.168l-3.168-.15H88.596l-3.316 3.92-.457 5.43-.302 5.73 4.08 4.38 8.9.91v-8.9l-6.03-1.06-.15-3.47 6.94-.45 3.32 3.47v3.77l-.15 1.51v3.17l-2.26 6.19-14.18.15-7.99-6.63-.3-1.66V95.1l.15-2.718v-2.72L77 86.95v-2.57l6.186-7.24 1.96-.3h2.56l2.413.15h2.56l1.51.15 11.31.303h.9"
       id="path64" />
    <path
       fill="#DF9"
       d="M56.922 88.91l.302 5.128 8.145 5.732 4.22 5.73 12.67 17.196-1.81 2.866h-4.22l-2.42-9.35-3.92-.152-17.2-15.384-2.11-5.28-4.83-6.637 1.48-3.37 4.16-5.27 3.73-.68L67.2 75.2 56.92 88.91"
       id="path66" />
    <path
       fill="#889910"
       d="M136.263 123.903l-3.168 3.62-2.264-2.263-1.96-1.96-1.81-1.96-3.77-3.77-1.96-1.964-.3-.15 1.06-6.185 1.21 1.21 2.27 2.27 2.11 2.26 4.38 4.38 2.27 2.26 2.11 1.97v.15l-.15.15M31.9 48.93l.755-.61 1.66.6 10.104.54.93 3.02-12.69 1.86-1.96 1.51-3.17-.602 4.37-6.336"
       id="path68" />
    <path
       fill="#DDDD10"
       d="M15.29 95.395h3.32l6.636 6.938-.453 1.81-13.424-.15 3.92-8.598m27.68 30.167l5.43-7.24 4.22-2.262 4.22 8.748-.15.905H42.97v-.15m21.47 0l5.43-7.24 4.223-2.263 4.22 8.748-.15.905H64.45v-.15m14.97 0l5.43-7.24 4.223-2.263 4.226 8.748-.15.905H79.42v-.15"
       id="path70" />
    <path
       d="M107.602 111.837c.812 2.07 1.37 4.362.304 6.485-1.497-.13-2.424.604-3.47.303-1.61-.464-1.965-3.214-3.32-3.923.646-1.166 1.65-1.973 2.264-3.167 1.602-.094 2.686.328 4.222.302z"
       fill="#7F0"
       id="path72" />
    <path
       d="M96.188 55.075c.497.91 1.256 1.56 1.81 2.412-.383 1.227-1.125 2.094-1.508 3.318-1.18-.378-2.05-1.067-3.02-1.66.174-1.085.51-2.008.605-3.166.552-.46 1.385-.63 2.113-.91zM73.76 75.845c.498.91 1.256 1.56 1.81 2.41-.382 1.228-1.124 2.095-1.507 3.32-1.18-.38-2.05-1.068-3.018-1.66.172-1.085.507-2.01.604-3.167.55-.453 1.38-.625 2.11-.904z"
       fill="#DDDD10"
       id="path74" />
  </g>
</svg>
