<?xml version="1.0" encoding="UTF-8" standalone="no"?>
<svg
   xmlns:dc="http://purl.org/dc/elements/1.1/"
   xmlns:cc="http://creativecommons.org/ns#"
   xmlns:rdf="http://www.w3.org/1999/02/22-rdf-syntax-ns#"
   xmlns:svg="http://www.w3.org/2000/svg"
   xmlns="http://www.w3.org/2000/svg"
   xmlns:sodipodi="http://sodipodi.sourceforge.net/DTD/sodipodi-0.dtd"
   xmlns:inkscape="http://www.inkscape.org/namespaces/inkscape"
   width="150"
   height="150"
   viewBox="0 0 150 150"
   id="svg2"
   version="1.1"
   inkscape:version="0.91 r13725"
   sodipodi:docname="Uroktor.svg">
  <metadata
     id="metadata26">
    <rdf:RDF>
      <cc:Work
         rdf:about="">
        <dc:format>image/svg+xml</dc:format>
        <dc:type
           rdf:resource="http://purl.org/dc/dcmitype/StillImage" />
        <dc:title></dc:title>
      </cc:Work>
    </rdf:RDF>
  </metadata>
  <defs
     id="defs24" />
  <sodipodi:namedview
     pagecolor="#ffffff"
     bordercolor="#666666"
     borderopacity="1"
     objecttolerance="10"
     gridtolerance="10"
     guidetolerance="10"
     inkscape:pageopacity="0"
     inkscape:pageshadow="2"
     inkscape:window-width="988"
     inkscape:window-height="706"
     id="namedview22"
     showgrid="false"
     inkscape:zoom="1.5733333"
     inkscape:cx="75"
     inkscape:cy="75"
     inkscape:window-x="0"
     inkscape:window-y="0"
     inkscape:window-maximized="0"
     inkscape:current-layer="svg2" />
  <g
     id="g4154"
     inkscape:export-xdpi="102.66"
     inkscape:export-ydpi="102.66">
    <path
       id="path4"
       d="M39 32.54H23.415l-6.37-5.916-3.418-3.417 4.75-5.416 6 5v-7.33l-7.667-4.83-7.334 4.84v15.16l4.907 5.13-4.907 5.125v15.16l7.333 4.835 7.66-4.834v-7.33l-6 5-4.75-5.41 3.41-3.415 5.87-5.373h15.6"
       fill="#CD4927" />
    <path
       id="path6"
       d="M118.917 40.792L98.583 56.125v62.666l20.334 13.34"
       fill="#EEBB53" />
    <path
       id="path8"
       d="M38.584 131.125v9.834h94.997l6.67-8.09V23.62l-12.5-14.58H87.46l-6.376 14.252 39.167.5 5.5 10.5v96.333"
       fill="#AB5558" />
    <path
       id="path10"
       d="M128.917 106.125l11.833 3.833-11.833-11.833.333-11.334 11.333 4-11.333-11.66V63.8l11 3.666-11-12.333V40.79l11 3.333-18.667-19.667 12.334-8.333-5-6-7.667 10.667h-15.333l10-11.667h-9.667l-4.333 12.333-19.334-.333-9.25 19h29.25l7.334 7.333v19.667H94.084l-27-26.666H59.75v42h50.167v12.16H78.75l-6.398-7.67H59.75v23h50.167v10.164l-5.667 5h-74l-5.333-4.662L40.25 63.79h-31v65l11.5 12.166h23.333l-3.5-7.833 19 .333-3.5 7.5 12.167-7.5h11l-4.5 7.5 12.5-7.5 11 .333-3.834 7.17 11.834-7.17 10.333-.33-3.5 7.5 12.167-7.83 4-5 11 4.66-11.667-11.666"
       fill="#CE7867" />
    <path
       id="path12"
       d="M32.75 63.626H17.084v54L32.75 75.292M59.834 48.46l27 22.832v7h-27v-6.666h14.333l-14.333-13.25m0 30.75l19.387 13.01v3.99H59.84v-3.8h10.29l-10.293-7.55"
       fill="#AB5558" />
    <path
       id="path14"
       d="M40.25 9.125l3.333 8 8.334 11.333H65.25l8.917-7.916 6.416-1.25 6.5 5.333 2.417 5.417-2.417 5.916-4 4.167H71l-3.083-4h-16L40.583 51.458l-.333 8-11.333-11.333 11-12-11-15"
       fill="#EEBB53" />
    <path
       id="path16"
       d="M71.28 32.037l5.302-5.303 5.303 5.303-5.303 5.303z"
       fill="#7799CF" />
    <path
       id="path18"
       d="M47.917 32.958l-5.166 3-6.5-10.667-7.33-4.16 3.67 11.5 3.84 2.17v3.67l-7.5 9.67 7.835-3.332 7.5-4.5"
       fill="#AB8935" />
    <path
       id="path20"
       d="M44.5 62.624l7.833 5.333 3.167 7 .5 7.502-15.5-.01m-5.33 23.7l8.002 4.11 3.236 5.4.51 5.786-15.833-.004m8.732-35.468l8.123 4.65 3.285 6.105.518 6.54H35.668"
       fill="#CD4927" />
  </g>
</svg>
