<?xml version="1.0" encoding="UTF-8" standalone="no"?>
<svg
   xmlns:dc="http://purl.org/dc/elements/1.1/"
   xmlns:cc="http://creativecommons.org/ns#"
   xmlns:rdf="http://www.w3.org/1999/02/22-rdf-syntax-ns#"
   xmlns:svg="http://www.w3.org/2000/svg"
   xmlns="http://www.w3.org/2000/svg"
   xmlns:sodipodi="http://sodipodi.sourceforge.net/DTD/sodipodi-0.dtd"
   xmlns:inkscape="http://www.inkscape.org/namespaces/inkscape"
   width="150"
   height="150"
   viewBox="0 0 150 150"
   id="svg2"
   version="1.1"
   inkscape:version="0.91 r13725"
   sodipodi:docname="Vespoid.svg">
  <metadata
     id="metadata48">
    <rdf:RDF>
      <cc:Work
         rdf:about="">
        <dc:format>image/svg+xml</dc:format>
        <dc:type
           rdf:resource="http://purl.org/dc/dcmitype/StillImage" />
        <dc:title></dc:title>
      </cc:Work>
    </rdf:RDF>
  </metadata>
  <defs
     id="defs46" />
  <sodipodi:namedview
     pagecolor="#ffffff"
     bordercolor="#666666"
     borderopacity="1"
     objecttolerance="10"
     gridtolerance="10"
     guidetolerance="10"
     inkscape:pageopacity="0"
     inkscape:pageshadow="2"
     inkscape:window-width="997"
     inkscape:window-height="646"
     id="namedview44"
     showgrid="false"
     inkscape:zoom="1.5733333"
     inkscape:cx="75"
     inkscape:cy="75"
     inkscape:window-x="0"
     inkscape:window-y="0"
     inkscape:window-maximized="0"
     inkscape:current-layer="svg2" />
  <g
     id="g4176"
     inkscape:export-xdpi="106.42"
     inkscape:export-ydpi="106.42">
    <path
       id="path4"
       d="M64.04 97.518v-3.803c1.268-1.268 2.534-2.533 3.802-3.801v-3.803h-6.894c-.626 6.004-1.11 10.678-1.658 15.943H34.055v25.078h21.882v-17.334H41.818v10.775c2.87-.521 5.001-.906 7.609-1.381-1.877-2.086-3.063-3.406-5.127-5.699 3.065-.283 5.224-.482 8.493-.783-.278 4.564-.488 7.979-.663 10.814H37.428c0-3.66-.095-6.73.028-9.793.115-2.91.457-5.811.69-8.611H64.04v-7.602zm3.802-41.82h-6.9c-.624-6.013-1.108-10.685-1.658-15.972H29.533V10.94H14.381c.399 2.627.659 4.351.925 6.1 3.334-1.333 6.226-2.489 9.915-3.961v11.325c-2.82.964-4.739 1.619-7.11 2.428 3.119 3.292 10.832 1.329 7.207 8.66-2.196.802-4.39 1.601-7.485 2.729 11.984 9.893 26.371 3.904 38.604 6.962V59.5h11.405v-3.802zm-44.174 48.806c-1.656.711-3.312 1.42-5.036 2.16 3.434 2.605 5.866 4.453 9.241 7.014-4.244 2.039-6.792 3.264-9.787 4.701 2.915 1.34 5.465 2.512 7.307 3.359v13.992c-4.093-.355-7.491-.65-9.651-.838-1.273-3.264-1.938-4.967-4.169-10.682v14.707h18.252V93.714c-7.983.698-.539 9.35-6.157 10.79z"
       fill="#620E11" />
    <path
       id="path6"
       d="M71.687 29.085c.115-.118.229-.238.345-.356-.88-1.032-1.76-2.062-2.64-3.095-.399.399-.8.801-1.199 1.199l3.107 2.651c.114-.119.229-.236.343-.354v-.045h.044z"
       fill="#BC7689" />
    <path
       id="path8"
       d="M64.04 44.292c.198.24.396.43.595.595l3.207 3.207v-3.802l3.802-3.802c-2.881.575-7.279-1.885-7.604 3.802z"
       fill="#620E11" />
    <path
       id="path10"
       d="M107.701 93.715c-9.081-4.139-6.094-12.135-6.534-19.008-4.821 0-9.675.315-14.446-.174-1.628-.167-3.048-2.359-4.562-3.628H67.843c-1.515 1.269-2.935 3.461-4.562 3.628-4.771.489-9.625.174-14.446.174-.44 6.874 2.547 14.87-6.534 19.008H29.826v3.803h26.813V78.243c4.611.434 7.965.75 11.205 1.053v6.816H82.16v-6.816c3.239-.303 6.594-.619 11.205-1.053v19.275h26.812v-3.803h-12.476z"
       fill="#BC7689" />
    <path
       id="path12"
       d="M85.96 97.518v-3.803c-1.269-1.268-2.534-2.533-3.802-3.801v-3.803h6.895c.625 6.004 1.109 10.678 1.657 15.943h25.235v25.078H94.062v-17.334h14.119v10.775c-2.869-.521-5-.906-7.609-1.381 1.877-2.086 3.063-3.406 5.128-5.699-3.065-.283-5.224-.482-8.493-.783.279 4.564.488 7.979.663 10.814h14.702c0-3.66.095-6.73-.027-9.793-.115-2.91-.457-5.811-.691-8.611H85.96v-7.602zm-3.802-41.82h6.9c.623-6.013 1.107-10.685 1.657-15.972h29.751V10.94h15.152c-.399 2.627-.659 4.351-.925 6.1-3.334-1.333-6.226-2.489-9.915-3.961v11.325c2.82.964 4.74 1.619 7.11 2.428-3.118 3.292-10.832 1.329-7.206 8.66 2.195.802 4.39 1.601 7.484 2.729-11.984 9.893-26.371 3.904-38.604 6.962V59.5H82.157c.001-1.268.001-2.534.001-3.802z"
       fill="#620E11" />
    <path
       id="path14"
       d="M85.96 112.725H64.04c-.304 6.488-.809 13.078 7.604 15.207h6.714c8.412-2.129 7.906-8.719 7.602-15.207z"
       fill="#BC7689" />
    <path
       id="path16"
       d="M126.332 104.504c1.655.711 3.312 1.42 5.035 2.16-3.434 2.605-5.865 4.453-9.24 7.014 4.244 2.039 6.793 3.264 9.787 4.701-2.915 1.34-5.465 2.512-7.307 3.359v13.992c4.093-.355 7.49-.65 9.65-.838 1.273-3.264 1.938-4.967 4.17-10.682v14.707h-18.252V93.714c7.983.698.54 9.35 6.157 10.79z"
       fill="#620E11" />
    <path
       id="path18"
       d="M80.977 101.32H64.04v7.604h21.921v-7.604h-4.984z"
       fill="#BC7689" />
    <path
       id="path20"
       d="M80.148 108.924H64.039v3.801h21.92v-3.801h-5.811z"
       fill="#D0D0D0" />
    <path
       id="path22"
       d="M78.313 29.085c-.115-.118-.229-.238-.345-.356.879-1.032 1.76-2.062 2.639-3.095l1.199 1.199c-1.035.884-2.071 1.768-3.107 2.651-.113-.119-.229-.236-.343-.354v-.045h-.043z"
       fill="#BC7689" />
    <path
       id="path24"
       d="M85.96 44.292c-.198.24-.396.43-.595.595l-3.207 3.207v-3.802l-3.802-3.802c2.881.575 7.279-1.885 7.604 3.802z"
       fill="#620E11" />
    <path
       id="path26"
       d="M81.901 67.103H67.842v3.802h14.316v-3.802h-.257zm-6.356 19.008h-7.703v3.803h14.317v-3.803h-6.614zm4.605 11.407H64.038v3.803h21.92v-3.803H80.15z"
       fill="#D0D0D0" />
    <path
       id="path28"
       d="M78.955 93.715H64.04v3.803h5.81c.108-.047.217-.08.325-.125-.01.043-.021.084-.031.125h9.714c-.011-.041-.021-.082-.03-.125.107.045.216.078.324.125h5.81v-3.803h-7.007zm0 18.918H64.04v3.803h5.81c.108-.047.217-.08.325-.125-.01.043-.021.084-.031.125h9.714c-.011-.041-.021-.082-.03-.125.107.045.216.078.324.125h5.81v-3.803h-7.007z"
       fill="#FAA948" />
    <path
       id="path30"
       d="M82.158 89.914H67.841c-1.268 1.268-2.534 2.533-3.802 3.801h10.673c.096-.004.191-.004.287-.008.096.004.191.004.287.008h10.673l-3.801-3.801z"
       fill="#BC7689" />
    <g
       id="g32"
       fill="#FAA948">
      <path
         id="path34"
         d="M21.442 75.485v-20.81c-4.004 4.923-6.71 8.253-8.387 10.315 2.787 3.487 5.351 6.694 8.387 10.495zm15.986-8.816c-3.953.513-7.656.993-14.583 1.89 6.334 3.26 9.592 4.936 14.049 7.23.303-3.894.478-6.143.674-8.687h-.139c-.001-.144-.001-.288-.001-.433z" />
      <path
         id="path36"
         d="M112.572 66.669v-2.927c3.938-.512 7.639-.991 14.542-1.885-6.334-3.26-9.592-4.936-14.049-7.23-.303 3.888-.478 6.135-.673 8.674h-3.604v-8.896l-4.671 4.289-10.579 4.574h-10.58l-.801-.076v-7.495c-1.268-1.268-2.534-2.533-3.802-3.802 1.268-1.268 2.534-2.533 3.802-3.802v-3.802l-3.802-3.802v-11.36c-.015-.015-.028-.03-.043-.045h-6.628c-.014.015-.029.03-.043.045v11.36l-3.802 3.802v3.802c1.268 1.269 2.534 2.534 3.802 3.802-1.268 1.269-2.534 2.534-3.802 3.802v7.495l-.801.076H56.461l-10.58-4.574-4.67-4.289v8.896h-3.604c-.196-2.539-.37-4.786-.673-8.674-4.457 2.295-7.715 3.971-14.049 7.23 6.903.894 10.605 1.373 14.542 1.885v2.927c.058-.008.116-.016.174-.022-.012.154-.023.304-.035.456h3.645v8.461l5.243-4.003 10.579-4.289h35.934l10.579 4.289 5.243 4.003v-8.461h3.645c-.012-.152-.023-.302-.035-.456.057.007.115.015.173.022zm15.986-11.994v20.81c3.036-3.801 5.601-7.008 8.387-10.494-1.677-2.063-4.383-5.393-8.387-10.316z" />
      <path
         id="path38"
         d="M112.572 67.103h-.139c.195 2.544.37 4.792.674 8.687 4.457-2.295 7.715-3.971 14.049-7.23-6.928-.896-10.631-1.377-14.584-1.89v.433z" />
    </g>
    <path
       id="path40"
       d="M71.504 127.893h6.916v11.168h-6.916z"
       fill="#131313" />
    <path
       id="path42"
       d="M82.053 70.913h-14.14c-.196 2.933-.522 5.914 4.905 6.876h4.329c5.427-.963 5.101-3.943 4.906-6.876z"
       fill="#FAA948" />
  </g>
</svg>
